<?xml version="1.0" encoding="UTF-8"?>
<svg version="1.1" xmlns="http://www.w3.org/2000/svg" width="1601" height="701">
<path d="M0 0 C15.44652548 -0.0934274 30.89302983 -0.16397134 46.33977127 -0.20724869 C53.51192925 -0.22787697 60.68391171 -0.25600236 67.85595703 -0.30175781 C74.10688066 -0.3416178 80.35767717 -0.36743089 86.60872436 -0.37635398 C89.91891924 -0.3815703 93.22866551 -0.39592954 96.53876495 -0.42292023 C100.23342163 -0.45185499 103.92731901 -0.45596 107.62207031 -0.45410156 C108.72042709 -0.46848267 109.81878387 -0.48286377 110.95042419 -0.49768066 C111.95720718 -0.49218201 112.96399017 -0.48668335 114.00128174 -0.48101807 C114.87514149 -0.48470524 115.74900124 -0.48839241 116.64934158 -0.49219131 C119.78834076 0.16506629 121.01691872 1.53823295 123 4 C123 4.66 123 5.32 123 6 C123.99 6.33 124.98 6.66 126 7 C127.75390625 8.70703125 127.75390625 8.70703125 129.5625 10.8125 C130.16191406 11.49957031 130.76132813 12.18664062 131.37890625 12.89453125 C132.89648749 14.86555845 133.97902958 16.73964261 135 19 C135.66 19 136.32 19 137 19 C138.62109375 20.64453125 138.62109375 20.64453125 140.4375 22.8125 C142.97339332 25.82463265 142.97339332 25.82463265 145.72265625 28.63671875 C147 30 147 30 147 32 C147.66 32 148.32 32 149 32 C150.69140625 33.64453125 150.69140625 33.64453125 152.5625 35.8125 C153.18253906 36.52019531 153.80257813 37.22789062 154.44140625 37.95703125 C156 40 156 40 157 43 C157.66 43 158.32 43 159 43 C160.5078125 44.4609375 160.5078125 44.4609375 162.125 46.375 C162.66382813 47.00148437 163.20265625 47.62796875 163.7578125 48.2734375 C165 50 165 50 165 52 C165.99 52.33 166.98 52.66 168 53 C169.75390625 54.70703125 169.75390625 54.70703125 171.5625 56.8125 C172.16191406 57.49957031 172.76132813 58.18664062 173.37890625 58.89453125 C174.89648749 60.86555845 175.97902958 62.73964261 177 65 C177.66 65 178.32 65 179 65 C180.69140625 66.64453125 180.69140625 66.64453125 182.5625 68.8125 C183.18253906 69.52019531 183.80257813 70.22789062 184.44140625 70.95703125 C186 73 186 73 187 76 C187.66 76 188.32 76 189 76 C190.5078125 77.4609375 190.5078125 77.4609375 192.125 79.375 C192.66382813 80.00148438 193.20265625 80.62796875 193.7578125 81.2734375 C195 83 195 83 195 85 C195.99 85.33 196.98 85.66 198 86 C199.75390625 87.70703125 199.75390625 87.70703125 201.5625 89.8125 C202.16191406 90.49957031 202.76132813 91.18664062 203.37890625 91.89453125 C204.89648749 93.86555845 205.97902958 95.73964261 207 98 C207.66 98 208.32 98 209 98 C210.69140625 99.64453125 210.69140625 99.64453125 212.5625 101.8125 C213.18253906 102.52019531 213.80257813 103.22789062 214.44140625 103.95703125 C216 106 216 106 217 109 C217.66 109 218.32 109 219 109 C220.5078125 110.4609375 220.5078125 110.4609375 222.125 112.375 C222.66382813 113.00148438 223.20265625 113.62796875 223.7578125 114.2734375 C225 116 225 116 225 118 C225.99 118.33 226.98 118.66 228 119 C229.75390625 120.70703125 229.75390625 120.70703125 231.5625 122.8125 C232.16191406 123.49957031 232.76132813 124.18664062 233.37890625 124.89453125 C234.89648749 126.86555845 235.97902958 128.73964261 237 131 C237.66 131 238.32 131 239 131 C240.69140625 132.64453125 240.69140625 132.64453125 242.5625 134.8125 C243.18253906 135.52019531 243.80257813 136.22789062 244.44140625 136.95703125 C246 139 246 139 247 142 C247.66 142 248.32 142 249 142 C250.62109375 143.64453125 250.62109375 143.64453125 252.4375 145.8125 C254.97339332 148.82463265 254.97339332 148.82463265 257.72265625 151.63671875 C259 153 259 153 259 155 C259.66 155 260.32 155 261 155 C262.5078125 156.4609375 262.5078125 156.4609375 264.125 158.375 C264.66382813 159.00148438 265.20265625 159.62796875 265.7578125 160.2734375 C267 162 267 162 267 164 C267.99 164.33 268.98 164.66 270 165 C271.71875 166.7421875 271.71875 166.7421875 273.5 168.875 C275.58578225 171.35415347 277.67301287 173.7439576 280 176 C280.33 175.34 280.66 174.68 281 174 C281.66 174 282.32 174 283 174 C283.25652344 173.41476562 283.51304687 172.82953125 283.77734375 172.2265625 C285.10562162 169.80765392 286.56524801 168.26801128 288.5625 166.375 C291.14015389 163.95478041 291.14015389 163.95478041 293 161 C293.66 161 294.32 161 295 161 C295.2475 160.443125 295.495 159.88625 295.75 159.3125 C297.22924818 156.57589087 298.93467439 154.32349131 301 152 C301.66 152 302.32 152 303 152 C303 151.34 303 150.68 303 150 C303.66 150 304.32 150 305 150 C305.268125 149.41734375 305.53625 148.8346875 305.8125 148.234375 C307.01480991 145.97213399 308.33825913 144.19423682 310 142.25 C310.515625 141.63640625 311.03125 141.0228125 311.5625 140.390625 C313 139 313 139 315 139 C315.268125 138.41734375 315.53625 137.8346875 315.8125 137.234375 C317.01480991 134.97213399 318.33825913 133.19423682 320 131.25 C320.515625 130.63640625 321.03125 130.0228125 321.5625 129.390625 C323 128 323 128 325 128 C325.25652344 127.41476562 325.51304687 126.82953125 325.77734375 126.2265625 C327.10562162 123.80765392 328.56524801 122.26801128 330.5625 120.375 C333.14015389 117.95478041 333.14015389 117.95478041 335 115 C335.66 115 336.32 115 337 115 C337.2475 114.443125 337.495 113.88625 337.75 113.3125 C339.22924818 110.57589087 340.93467439 108.32349131 343 106 C343.66 106 344.32 106 345 106 C345 105.34 345 104.68 345 104 C345.66 104 346.32 104 347 104 C347.2475 103.443125 347.495 102.88625 347.75 102.3125 C349.22924818 99.57589087 350.93467439 97.32349131 353 95 C353.66 95 354.32 95 355 95 C355.25652344 94.41476563 355.51304687 93.82953125 355.77734375 93.2265625 C357.10562162 90.80765392 358.56524801 89.26801128 360.5625 87.375 C363.14015389 84.95478041 363.14015389 84.95478041 365 82 C365.66 82 366.32 82 367 82 C367.2475 81.443125 367.495 80.88625 367.75 80.3125 C369.22924818 77.57589087 370.93467439 75.32349131 373 73 C373.66 73 374.32 73 375 73 C375 72.34 375 71.68 375 71 C375.66 71 376.32 71 377 71 C377.2475 70.443125 377.495 69.88625 377.75 69.3125 C379.22924818 66.57589087 380.93467439 64.32349131 383 62 C383.66 62 384.32 62 385 62 C385.25652344 61.41476563 385.51304687 60.82953125 385.77734375 60.2265625 C387.10562162 57.80765392 388.56524801 56.26801128 390.5625 54.375 C393.14015389 51.95478041 393.14015389 51.95478041 395 49 C395.66 49 396.32 49 397 49 C397.2475 48.443125 397.495 47.88625 397.75 47.3125 C399.22924818 44.57589087 400.93467439 42.32349131 403 40 C403.66 40 404.32 40 405 40 C405 39.34 405 38.68 405 38 C405.66 38 406.32 38 407 38 C407.2475 37.443125 407.495 36.88625 407.75 36.3125 C409.22924818 33.57589087 410.93467439 31.32349131 413 29 C413.66 29 414.32 29 415 29 C415.38478516 28.12214844 415.38478516 28.12214844 415.77734375 27.2265625 C417.10562162 24.80765392 418.56524801 23.26801128 420.5625 21.375 C423.14015389 18.95478041 423.14015389 18.95478041 425 16 C425.66 16 426.32 16 427 16 C427.37125 15.1646875 427.37125 15.1646875 427.75 14.3125 C430.09322917 9.97752604 433.3456589 6.28890699 437 3 C437.66 3 438.32 3 439 3 C439.33 2.01 439.66 1.02 440 0 C479.27 0 518.54 0 559 0 C557.515 2.475 557.515 2.475 556 5 C555.34 5 554.68 5 554 5 C553.731875 5.58265625 553.46375 6.1653125 553.1875 6.765625 C551.98519009 9.02786601 550.66174087 10.80576318 549 12.75 C548.484375 13.36359375 547.96875 13.9771875 547.4375 14.609375 C546 16 546 16 544 16 C543.74347656 16.58523437 543.48695313 17.17046875 543.22265625 17.7734375 C541.89437838 20.19234608 540.43475199 21.73198872 538.4375 23.625 C535.85984611 26.04521959 535.85984611 26.04521959 534 29 C533.34 29 532.68 29 532 29 C531.7525 29.556875 531.505 30.11375 531.25 30.6875 C529.77075182 33.42410913 528.06532561 35.67650869 526 38 C525.34 38 524.68 38 524 38 C524 38.66 524 39.32 524 40 C523.34 40 522.68 40 522 40 C521.7525 40.556875 521.505 41.11375 521.25 41.6875 C518.636349 46.52275435 514.85368903 50.14631097 511 54 C509.16595722 56.12780721 507.34954399 58.26806364 505.55078125 60.42578125 C505.03902344 60.94527344 504.52726562 61.46476562 504 62 C503.34 62 502.68 62 502 62 C501.731875 62.58265625 501.46375 63.1653125 501.1875 63.765625 C499.98519009 66.02786601 498.66174087 67.80576318 497 69.75 C496.484375 70.36359375 495.96875 70.9771875 495.4375 71.609375 C494 73 494 73 492 73 C491.7525 73.556875 491.505 74.11375 491.25 74.6875 C488.90677083 79.02247396 485.6543411 82.71109301 482 86 C481.34 86 480.68 86 480 86 C479.7525 86.556875 479.505 87.11375 479.25 87.6875 C477.77075182 90.42410913 476.06532561 92.67650869 474 95 C473.34 95 472.68 95 472 95 C472 95.66 472 96.32 472 97 C471.34 97 470.68 97 470 97 C469.7525 97.556875 469.505 98.11375 469.25 98.6875 C467.77075182 101.42410913 466.06532561 103.67650869 464 106 C463.34 106 462.68 106 462 106 C461.34 107.32 460.68 108.64 460 110 C459.34 110 458.68 110 458 110 C457.78472656 110.53367187 457.56945313 111.06734375 457.34765625 111.6171875 C455.50271766 114.87925282 453.00238735 117.42658272 450.4375 120.125 C449.35500603 121.28081681 448.27297971 122.43707177 447.19140625 123.59375 C446.65402832 124.16609375 446.11665039 124.7384375 445.56298828 125.328125 C443.30921079 127.73891354 441.08871057 130.17732002 438.875 132.625 C438.17117188 133.40101563 437.46734375 134.17703125 436.7421875 134.9765625 C434.8547627 137.08510813 434.8547627 137.08510813 433 140 C432.34 140 431.68 140 431 140 C430.7525 140.56203125 430.505 141.1240625 430.25 141.703125 C428.78725133 144.39092569 427.03195127 146.46405482 425 148.75 C424.29875 149.54921875 423.5975 150.3484375 422.875 151.171875 C421 153 421 153 419 153 C418.7525 153.556875 418.505 154.11375 418.25 154.6875 C416.77075182 157.42410913 415.06532561 159.67650869 413 162 C412.34 162 411.68 162 411 162 C410.731875 162.58265625 410.46375 163.1653125 410.1875 163.765625 C408.98519009 166.02786601 407.66174087 167.80576318 406 169.75 C405.484375 170.36359375 404.96875 170.9771875 404.4375 171.609375 C403 173 403 173 401 173 C400.74347656 173.58523438 400.48695313 174.17046875 400.22265625 174.7734375 C398.89437838 177.19234608 397.43475199 178.73198872 395.4375 180.625 C392.85984611 183.04521959 392.85984611 183.04521959 391 186 C390.34 186 389.68 186 389 186 C388.72760498 186.59458008 388.45520996 187.18916016 388.17456055 187.80175781 C387.02970512 189.94440556 385.87355302 191.42006637 384.20703125 193.171875 C383.66248291 193.74993896 383.11793457 194.32800293 382.55688477 194.92358398 C381.98123779 195.52630127 381.40559082 196.12901855 380.8125 196.75 C379.62939361 198.00574332 378.44709514 199.26224834 377.265625 200.51953125 C376.41581055 201.42179443 376.41581055 201.42179443 375.54882812 202.34228516 C372.01178598 206.12799074 368.61786221 210.039753 365.3203125 214.03515625 C364.78148437 214.68355469 364.24265625 215.33195313 363.6875 216 C362.98173828 216.86625 362.98173828 216.86625 362.26171875 217.75 C361 219 361 219 359 219 C358.731875 219.58265625 358.46375 220.1653125 358.1875 220.765625 C356.98519009 223.02786601 355.66174087 224.80576318 354 226.75 C353.484375 227.36359375 352.96875 227.9771875 352.4375 228.609375 C351 230 351 230 349 230 C348.74347656 230.58523438 348.48695313 231.17046875 348.22265625 231.7734375 C346.89437838 234.19234608 345.43475199 235.73198872 343.4375 237.625 C340.85984611 240.04521959 340.85984611 240.04521959 339 243 C339.66 243 340.32 243 341 243 C342.69140625 244.64453125 342.69140625 244.64453125 344.5625 246.8125 C345.18253906 247.52019531 345.80257813 248.22789062 346.44140625 248.95703125 C348 251 348 251 349 254 C349.66 254 350.32 254 351 254 C352.5078125 255.4609375 352.5078125 255.4609375 354.125 257.375 C354.66382813 258.00148438 355.20265625 258.62796875 355.7578125 259.2734375 C357 261 357 261 357 263 C357.99 263.33 358.98 263.66 360 264 C361.75390625 265.70703125 361.75390625 265.70703125 363.5625 267.8125 C364.46162109 268.84310547 364.46162109 268.84310547 365.37890625 269.89453125 C366.89648749 271.86555845 367.97902958 273.73964261 369 276 C369.66 276 370.32 276 371 276 C372.3046875 277.29296875 372.3046875 277.29296875 373.875 279.1875 C376.22083037 281.96074862 378.60771736 284.67286876 381.09375 287.3203125 C381.63402832 287.89628174 382.17430664 288.47225098 382.73095703 289.06567383 C383.81710888 290.21973033 384.9065749 291.37067762 385.99951172 292.51831055 C388.32146554 294.99612766 389.91276798 296.73830393 391 300 C391.66 300 392.32 300 393 300 C394.5078125 301.4609375 394.5078125 301.4609375 396.125 303.375 C396.66382813 304.00148438 397.20265625 304.62796875 397.7578125 305.2734375 C399 307 399 307 399 309 C399.99 309.33 400.98 309.66 402 310 C403.4375 311.42578125 403.4375 311.42578125 405 313.3125 C408.04825023 316.90737738 411.17978834 320.41079945 414.375 323.875 C415.31654663 324.90091285 416.25795271 325.92695471 417.19921875 326.953125 C419.03025335 328.94738398 420.8670244 330.93583586 422.70703125 332.921875 C423.52558594 333.81390625 424.34414062 334.7059375 425.1875 335.625 C425.92355469 336.42164063 426.65960937 337.21828125 427.41796875 338.0390625 C429 340 429 340 429 342 C429.99 342.33 430.98 342.66 432 343 C433.5078125 344.49609375 433.5078125 344.49609375 435.125 346.4375 C438.72692425 350.70273364 442.48176816 354.80504546 446.27734375 358.8984375 C448 361 448 361 448 363 C448.66 363 449.32 363 450 363 C451.5078125 364.4609375 451.5078125 364.4609375 453.125 366.375 C453.66382813 367.00148438 454.20265625 367.62796875 454.7578125 368.2734375 C456 370 456 370 456 372 C456.99 372.33 457.98 372.66 459 373 C460.75390625 374.70703125 460.75390625 374.70703125 462.5625 376.8125 C463.46162109 377.84310547 463.46162109 377.84310547 464.37890625 378.89453125 C465.89648749 380.86555845 466.97902958 382.73964261 468 385 C468.66 385 469.32 385 470 385 C471.69140625 386.64453125 471.69140625 386.64453125 473.5625 388.8125 C474.18253906 389.52019531 474.80257813 390.22789062 475.44140625 390.95703125 C477 393 477 393 478 396 C478.66 396 479.32 396 480 396 C481.62109375 397.64453125 481.62109375 397.64453125 483.4375 399.8125 C485.97339332 402.82463265 485.97339332 402.82463265 488.72265625 405.63671875 C490 407 490 407 490 409 C490.66 409 491.32 409 492 409 C493.5078125 410.4609375 493.5078125 410.4609375 495.125 412.375 C495.66382813 413.00148438 496.20265625 413.62796875 496.7578125 414.2734375 C498 416 498 416 498 418 C498.66 418 499.32 418 500 418 C501.62109375 419.64453125 501.62109375 419.64453125 503.4375 421.8125 C505.97339332 424.82463265 505.97339332 424.82463265 508.72265625 427.63671875 C510 429 510 429 510 431 C510.66 431 511.32 431 512 431 C513.69140625 432.64453125 513.69140625 432.64453125 515.5625 434.8125 C516.18253906 435.52019531 516.80257812 436.22789062 517.44140625 436.95703125 C519 439 519 439 520 442 C520.66 442 521.32 442 522 442 C523.5078125 443.4609375 523.5078125 443.4609375 525.125 445.375 C525.66382813 446.00148438 526.20265625 446.62796875 526.7578125 447.2734375 C528 449 528 449 528 451 C528.66 451 529.32 451 530 451 C531.62109375 452.64453125 531.62109375 452.64453125 533.4375 454.8125 C535.97339332 457.82463265 535.97339332 457.82463265 538.72265625 460.63671875 C540 462 540 462 540 464 C540.66 464 541.32 464 542 464 C543.69140625 465.64453125 543.69140625 465.64453125 545.5625 467.8125 C546.18253906 468.52019531 546.80257812 469.22789062 547.44140625 469.95703125 C549 472 549 472 550 475 C550.66 475 551.32 475 552 475 C553.7265625 476.93359375 553.7265625 476.93359375 555.625 479.4375 C556.25664063 480.26121094 556.88828125 481.08492187 557.5390625 481.93359375 C559 484 559 484 559 485 C543.86620477 485.16369823 528.73245043 485.28704712 513.5979681 485.3626852 C506.57030028 485.39874298 499.54318332 485.44787981 492.51586914 485.52807617 C485.73367156 485.60543818 478.95204655 485.64599431 472.1694355 485.6641407 C469.58220984 485.6770719 466.9950154 485.70232394 464.40803337 485.7401104 C460.7829722 485.79095222 457.16027262 485.7979222 453.53491211 485.79467773 C452.46604263 485.81984467 451.39717316 485.8450116 450.2959137 485.87094116 C444.8893642 485.81860593 441.76050665 485.4125973 437.77906799 481.57533264 C435 478.42081383 435 478.42081383 435 476 C434.34 476 433.68 476 433 476 C431.37890625 474.35546875 431.37890625 474.35546875 429.5625 472.1875 C427.02660668 469.17536735 427.02660668 469.17536735 424.27734375 466.36328125 C423 465 423 465 423 463 C422.34 463 421.68 463 421 463 C419.4921875 461.5390625 419.4921875 461.5390625 417.875 459.625 C417.33617187 458.99851562 416.79734375 458.37203125 416.2421875 457.7265625 C415 456 415 456 415 454 C414.34 454 413.68 454 413 454 C413 453.34 413 452.68 413 452 C412.34 452 411.68 452 411 452 C409.4921875 450.5390625 409.4921875 450.5390625 407.875 448.625 C407.33617187 447.99851562 406.79734375 447.37203125 406.2421875 446.7265625 C405 445 405 445 405 443 C404.01 442.67 403.02 442.34 402 442 C400.24609375 440.29296875 400.24609375 440.29296875 398.4375 438.1875 C397.53837891 437.15689453 397.53837891 437.15689453 396.62109375 436.10546875 C395.10351251 434.13444155 394.02097042 432.26035739 393 430 C392.34 430 391.68 430 391 430 C389.58984375 428.6015625 389.58984375 428.6015625 387.9375 426.625 C384.31195476 422.34165541 380.53800452 418.21627867 376.72265625 414.1015625 C375 412 375 412 375 410 C374.01 409.67 373.02 409.34 372 409 C370.31640625 407.29296875 370.31640625 407.29296875 368.5625 405.1875 C366.62032666 402.88734132 364.7217084 400.72884408 362.5625 398.625 C361 397 361 397 361 395 C360.34 395 359.68 395 359 395 C357.30859375 393.35546875 357.30859375 393.35546875 355.4375 391.1875 C354.81746094 390.47980469 354.19742187 389.77210938 353.55859375 389.04296875 C352 387 352 387 351 384 C350.34 384 349.68 384 349 384 C349 383.34 349 382.68 349 382 C348.34 382 347.68 382 347 382 C345.4921875 380.5390625 345.4921875 380.5390625 343.875 378.625 C343.33617187 377.99851562 342.79734375 377.37203125 342.2421875 376.7265625 C341 375 341 375 341 373 C340.34 373 339.68 373 339 373 C337.37890625 371.35546875 337.37890625 371.35546875 335.5625 369.1875 C333.02660668 366.17536735 333.02660668 366.17536735 330.27734375 363.36328125 C329 362 329 362 329 360 C328.34 360 327.68 360 327 360 C325.30859375 358.35546875 325.30859375 358.35546875 323.4375 356.1875 C322.81746094 355.47980469 322.19742187 354.77210938 321.55859375 354.04296875 C320 352 320 352 319 349 C318.34 349 317.68 349 317 349 C315.4921875 347.5390625 315.4921875 347.5390625 313.875 345.625 C313.33617187 344.99851562 312.79734375 344.37203125 312.2421875 343.7265625 C311 342 311 342 311 340 C310.01 339.67 309.02 339.34 308 339 C306.24609375 337.29296875 306.24609375 337.29296875 304.4375 335.1875 C303.53837891 334.15689453 303.53837891 334.15689453 302.62109375 333.10546875 C301.10351251 331.13444155 300.02097042 329.26035739 299 327 C298.34 327 297.68 327 297 327 C295.30859375 325.35546875 295.30859375 325.35546875 293.4375 323.1875 C292.81746094 322.47980469 292.19742187 321.77210938 291.55859375 321.04296875 C290 319 290 319 289 316 C288.34 316 287.68 316 287 316 C285.2734375 314.25 285.2734375 314.25 283.375 312 C282.42753906 310.88625 282.42753906 310.88625 281.4609375 309.75 C280.97882813 309.1725 280.49671875 308.595 280 308 C278.824375 309.2375 278.824375 309.2375 277.625 310.5 C275 313 275 313 273 313 C272.62875 313.8353125 272.62875 313.8353125 272.25 314.6875 C270.77075182 317.42410913 269.06532561 319.67650869 267 322 C266.34 322 265.68 322 265 322 C264.731875 322.58265625 264.46375 323.1653125 264.1875 323.765625 C262.98519009 326.02786601 261.66174087 327.80576318 260 329.75 C259.484375 330.36359375 258.96875 330.9771875 258.4375 331.609375 C257 333 257 333 255 333 C254.62875 333.8353125 254.62875 333.8353125 254.25 334.6875 C251.90677083 339.02247396 248.6543411 342.71109301 245 346 C244.34 346 243.68 346 243 346 C242.62875 346.8353125 242.62875 346.8353125 242.25 347.6875 C240.77075182 350.42410913 239.06532561 352.67650869 237 355 C236.34 355 235.68 355 235 355 C234.731875 355.58265625 234.46375 356.1653125 234.1875 356.765625 C232.98519009 359.02786601 231.66174087 360.80576318 230 362.75 C229.484375 363.36359375 228.96875 363.9771875 228.4375 364.609375 C227 366 227 366 225 366 C224.74347656 366.58523438 224.48695313 367.17046875 224.22265625 367.7734375 C222.89437838 370.19234608 221.43475199 371.73198872 219.4375 373.625 C216.85984611 376.04521959 216.85984611 376.04521959 215 379 C214.34 379 213.68 379 213 379 C212.731875 379.58265625 212.46375 380.1653125 212.1875 380.765625 C210.98519009 383.02786601 209.66174087 384.80576318 208 386.75 C207.484375 387.36359375 206.96875 387.9771875 206.4375 388.609375 C205 390 205 390 203 390 C202.74347656 390.58523438 202.48695313 391.17046875 202.22265625 391.7734375 C200.89437838 394.19234608 199.43475199 395.73198872 197.4375 397.625 C194.85984611 400.04521959 194.85984611 400.04521959 193 403 C192.34 403 191.68 403 191 403 C190.62875 403.8353125 190.62875 403.8353125 190.25 404.6875 C187.90677083 409.02247396 184.6543411 412.71109301 181 416 C180.34 416 179.68 416 179 416 C178.62875 416.8353125 178.62875 416.8353125 178.25 417.6875 C176.77075182 420.42410913 175.06532561 422.67650869 173 425 C172.34 425 171.68 425 171 425 C170.731875 425.58265625 170.46375 426.1653125 170.1875 426.765625 C168.98519009 429.02786601 167.66174087 430.80576318 166 432.75 C165.484375 433.36359375 164.96875 433.9771875 164.4375 434.609375 C163 436 163 436 161 436 C160.74347656 436.58523438 160.48695313 437.17046875 160.22265625 437.7734375 C158.89437838 440.19234608 157.43475199 441.73198872 155.4375 443.625 C152.85984611 446.04521959 152.85984611 446.04521959 151 449 C150.34 449 149.68 449 149 449 C148.62875 449.8353125 148.62875 449.8353125 148.25 450.6875 C146.77075182 453.42410913 145.06532561 455.67650869 143 458 C142.34 458 141.68 458 141 458 C141 458.66 141 459.32 141 460 C140.34 460 139.68 460 139 460 C138.62875 460.8353125 138.62875 460.8353125 138.25 461.6875 C136.77075182 464.42410913 135.06532561 466.67650869 133 469 C132.34 469 131.68 469 131 469 C130.34 470.32 129.68 471.64 129 473 C128.34 473 127.68 473 127 473 C126.62875 473.8353125 126.62875 473.8353125 126.25 474.6875 C124.77075182 477.42410913 123.06532561 479.67650869 121 482 C120.34 482 119.68 482 119 482 C118.67 482.99 118.34 483.98 118 485 C79.06 485 40.12 485 0 485 C0.99 483.02 0.99 483.02 2 481 C2.66 481 3.32 481 4 481 C4.4021875 480.12601563 4.4021875 480.12601563 4.8125 479.234375 C6.01480991 476.97213399 7.33825913 475.19423682 9 473.25 C9.515625 472.63640625 10.03125 472.0228125 10.5625 471.390625 C12 470 12 470 14 470 C14.2475 469.443125 14.495 468.88625 14.75 468.3125 C17.09322917 463.97752604 20.3456589 460.28890699 24 457 C24.66 457 25.32 457 26 457 C26.37125 456.1646875 26.37125 456.1646875 26.75 455.3125 C28.22924818 452.57589087 29.93467439 450.32349131 32 448 C32.66 448 33.32 448 34 448 C34.268125 447.41734375 34.53625 446.8346875 34.8125 446.234375 C36.01480991 443.97213399 37.33825913 442.19423682 39 440.25 C39.515625 439.63640625 40.03125 439.0228125 40.5625 438.390625 C42 437 42 437 44 437 C44.25652344 436.41476562 44.51304687 435.82953125 44.77734375 435.2265625 C46.10562162 432.80765392 47.56524801 431.26801128 49.5625 429.375 C52.14015389 426.95478041 52.14015389 426.95478041 54 424 C54.66 424 55.32 424 56 424 C56.2475 423.443125 56.495 422.88625 56.75 422.3125 C58.22924818 419.57589087 59.93467439 417.32349131 62 415 C62.66 415 63.32 415 64 415 C64.25652344 414.41476562 64.51304687 413.82953125 64.77734375 413.2265625 C66.10562162 410.80765392 67.56524801 409.26801128 69.5625 407.375 C72.14015389 404.95478041 72.14015389 404.95478041 74 402 C74.66 402 75.32 402 76 402 C76.268125 401.41734375 76.53625 400.8346875 76.8125 400.234375 C78.01480991 397.97213399 79.33825913 396.19423682 81 394.25 C81.515625 393.63640625 82.03125 393.0228125 82.5625 392.390625 C84 391 84 391 86 391 C86.37125 390.1646875 86.37125 390.1646875 86.75 389.3125 C89.09322917 384.97752604 92.3456589 381.28890699 96 378 C96.66 378 97.32 378 98 378 C98.37125 377.1646875 98.37125 377.1646875 98.75 376.3125 C100.22924818 373.57589087 101.93467439 371.32349131 104 369 C104.66 369 105.32 369 106 369 C106.26876953 368.40904541 106.53753906 367.81809082 106.81445312 367.20922852 C108.00294882 364.99450496 109.23976757 363.46440923 110.96875 361.65234375 C111.82533203 360.74452148 111.82533203 360.74452148 112.69921875 359.81835938 C113.29347656 359.19767578 113.88773438 358.57699219 114.5 357.9375 C115.67898183 356.69841823 116.85613873 355.45759686 118.03125 354.21484375 C118.55267578 353.66948975 119.07410156 353.12413574 119.61132812 352.56225586 C121.20599134 350.84072536 121.20599134 350.84072536 123 348 C123.66 348 124.32 348 125 348 C125.37125 347.1646875 125.37125 347.1646875 125.75 346.3125 C127.22924818 343.57589087 128.93467439 341.32349131 131 339 C131.66 339 132.32 339 133 339 C133.268125 338.41734375 133.53625 337.8346875 133.8125 337.234375 C135.01480991 334.97213399 136.33825913 333.19423682 138 331.25 C138.515625 330.63640625 139.03125 330.0228125 139.5625 329.390625 C141 328 141 328 143 328 C143.2475 327.43796875 143.495 326.8759375 143.75 326.296875 C145.21274867 323.60907431 146.96804873 321.53594518 149 319.25 C149.70125 318.45078125 150.4025 317.6515625 151.125 316.828125 C153 315 153 315 155 315 C155.37125 314.1646875 155.37125 314.1646875 155.75 313.3125 C157.22924818 310.57589087 158.93467439 308.32349131 161 306 C161.66 306 162.32 306 163 306 C163.39638672 305.11054687 163.39638672 305.11054687 163.80078125 304.203125 C165.04370425 301.91970946 166.30401646 300.52573277 168.1875 298.75 C172.93331312 294.14260643 177.27436421 289.23866265 181.3125 284 C181.869375 283.34 182.42625 282.68 183 282 C183.66 282 184.32 282 185 282 C185.37125 281.1646875 185.37125 281.1646875 185.75 280.3125 C188.09322917 275.97752604 191.3456589 272.28890699 195 269 C195.66 269 196.32 269 197 269 C197.37125 268.1646875 197.37125 268.1646875 197.75 267.3125 C199.22924818 264.57589087 200.93467439 262.32349131 203 260 C203.66 260 204.32 260 205 260 C205.268125 259.41734375 205.53625 258.8346875 205.8125 258.234375 C207.01480991 255.97213399 208.33825913 254.19423682 210 252.25 C210.515625 251.63640625 211.03125 251.0228125 211.5625 250.390625 C213 249 213 249 215 249 C215.433125 248.13375 215.433125 248.13375 215.875 247.25 C217 245 217 245 218.25 243 C219.24092552 240.98178935 219.24092552 240.98178935 218.3125 238.8125 C217.04471168 236.69106619 217.04471168 236.69106619 214 236 C212.24609375 234.29296875 212.24609375 234.29296875 210.4375 232.1875 C209.83808594 231.50042969 209.23867187 230.81335938 208.62109375 230.10546875 C207.10351251 228.13444155 206.02097042 226.26035739 205 224 C204.34 224 203.68 224 203 224 C201.30859375 222.35546875 201.30859375 222.35546875 199.4375 220.1875 C198.81746094 219.47980469 198.19742187 218.77210938 197.55859375 218.04296875 C196 216 196 216 195 213 C194.34 213 193.68 213 193 213 C191.37890625 211.35546875 191.37890625 211.35546875 189.5625 209.1875 C187.02660668 206.17536735 187.02660668 206.17536735 184.27734375 203.36328125 C183 202 183 202 183 200 C182.34 200 181.68 200 181 200 C179.30859375 198.35546875 179.30859375 198.35546875 177.4375 196.1875 C176.81746094 195.47980469 176.19742187 194.77210938 175.55859375 194.04296875 C174 192 174 192 173 189 C172.34 189 171.68 189 171 189 C169.4921875 187.5390625 169.4921875 187.5390625 167.875 185.625 C167.33617187 184.99851562 166.79734375 184.37203125 166.2421875 183.7265625 C165 182 165 182 165 180 C164.01 179.67 163.02 179.34 162 179 C160.24609375 177.29296875 160.24609375 177.29296875 158.4375 175.1875 C157.83808594 174.50042969 157.23867187 173.81335938 156.62109375 173.10546875 C155.10351251 171.13444155 154.02097042 169.26035739 153 167 C152.34 167 151.68 167 151 167 C149.30859375 165.35546875 149.30859375 165.35546875 147.4375 163.1875 C146.81746094 162.47980469 146.19742187 161.77210938 145.55859375 161.04296875 C144 159 144 159 143 156 C142.34 156 141.68 156 141 156 C139.66015625 154.671875 139.66015625 154.671875 138.0625 152.75 C135.79320538 150.06723221 133.49329006 147.43344885 131.09375 144.8671875 C130.59351318 144.33125977 130.09327637 143.79533203 129.57788086 143.24316406 C128.5743398 142.17155617 127.5673769 141.1031417 126.55688477 140.03808594 C123 136.22069869 123 136.22069869 123 134 C122.34 134 121.68 134 121 134 C119.34375 132.390625 119.34375 132.390625 117.5 130.25 C116.8915625 129.55390625 116.283125 128.8578125 115.65625 128.140625 C114.12023037 126.15539208 113.0276034 124.28127955 112 122 C111.34 122 110.68 122 110 122 C108.4921875 120.5390625 108.4921875 120.5390625 106.875 118.625 C106.33617187 117.99851562 105.79734375 117.37203125 105.2421875 116.7265625 C104 115 104 115 104 113 C103.34 113 102.68 113 102 113 C100.37890625 111.35546875 100.37890625 111.35546875 98.5625 109.1875 C96.02660668 106.17536735 96.02660668 106.17536735 93.27734375 103.36328125 C92 102 92 102 92 100 C91.34 100 90.68 100 90 100 C88.30859375 98.35546875 88.30859375 98.35546875 86.4375 96.1875 C85.81746094 95.47980469 85.19742188 94.77210938 84.55859375 94.04296875 C83 92 83 92 82 89 C81.34 89 80.68 89 80 89 C78.4921875 87.5390625 78.4921875 87.5390625 76.875 85.625 C76.33617187 84.99851562 75.79734375 84.37203125 75.2421875 83.7265625 C74 82 74 82 74 80 C72.515 79.505 72.515 79.505 71 79 C69.24609375 77.29296875 69.24609375 77.29296875 67.4375 75.1875 C66.83808594 74.50042969 66.23867188 73.81335938 65.62109375 73.10546875 C64.10351251 71.13444155 63.02097042 69.26035739 62 67 C61.34 67 60.68 67 60 67 C58.30859375 65.35546875 58.30859375 65.35546875 56.4375 63.1875 C55.50744141 62.12595703 55.50744141 62.12595703 54.55859375 61.04296875 C53 59 53 59 52 56 C51.34 56 50.68 56 50 56 C48.4921875 54.5390625 48.4921875 54.5390625 46.875 52.625 C46.33617187 51.99851563 45.79734375 51.37203125 45.2421875 50.7265625 C44 49 44 49 44 47 C43.44828125 46.7834375 42.8965625 46.566875 42.328125 46.34375 C39.19443611 44.53504366 37.16603494 42.18448326 34.75 39.5 C34.29109375 39.00113281 33.8321875 38.50226563 33.359375 37.98828125 C30 34.25897507 30 34.25897507 30 32 C29.34 32 28.68 32 28 32 C26.4921875 30.5390625 26.4921875 30.5390625 24.875 28.625 C24.33617187 27.99851563 23.79734375 27.37203125 23.2421875 26.7265625 C22 25 22 25 22 23 C21.34 23 20.68 23 20 23 C18.37890625 21.35546875 18.37890625 21.35546875 16.5625 19.1875 C14.02660668 16.17536735 14.02660668 16.17536735 11.27734375 13.36328125 C10 12 10 12 10 10 C9.34 10 8.68 10 8 10 C6.30859375 8.3203125 6.30859375 8.3203125 4.4375 6.125 C3.50744141 5.04605469 3.50744141 5.04605469 2.55859375 3.9453125 C1 2 1 2 0 0 Z " fill="#6F6C6D" transform="translate(937,151)"/>
<path d="M0 0 C0.89869812 0.00115814 1.79739624 0.00231628 2.72332764 0.00350952 C16.66662049 0.03898351 30.19975449 0.78570351 43.9375 3.3125 C45.22398437 3.51746094 46.51046875 3.72242188 47.8359375 3.93359375 C82.71023656 10.02335747 116.68271414 25.11642988 142.68359375 49.26953125 C144.93254763 51.35963711 144.93254763 51.35963711 147.46484375 53.27734375 C166.73341521 69.1366261 178.94679728 96.12875207 181.9375 120.3125 C183.82327293 148.78312228 179.82060323 173.42354109 163.9375 197.3125 C162.88949219 198.98119141 162.88949219 198.98119141 161.8203125 200.68359375 C161.19898438 201.55113281 160.57765625 202.41867187 159.9375 203.3125 C159.2775 203.3125 158.6175 203.3125 157.9375 203.3125 C157.669375 203.90417969 157.40125 204.49585938 157.125 205.10546875 C149.61143414 219.06982635 128.84202705 228.09279008 114.42578125 232.71875 C111.9375 233.3125 111.9375 233.3125 107.9375 233.3125 C107.9375 233.9725 107.9375 234.6325 107.9375 235.3125 C108.54335938 235.34988281 109.14921875 235.38726562 109.7734375 235.42578125 C120.4799032 236.26582702 129.29704936 239.75773636 138.9375 244.3125 C140.66441661 245.08836108 142.39340984 245.85962629 144.125 246.625 C145.22908203 247.11419922 145.22908203 247.11419922 146.35546875 247.61328125 C146.87753906 247.84402344 147.39960938 248.07476562 147.9375 248.3125 C147.9375 248.9725 147.9375 249.6325 147.9375 250.3125 C149.04931641 250.73208984 149.04931641 250.73208984 150.18359375 251.16015625 C157.22367885 254.10600746 162.90054029 258.98210764 168.5 264.0625 C169.30546265 264.7884436 169.30546265 264.7884436 170.12719727 265.52905273 C171.43951265 266.74621405 172.69414985 268.0249699 173.9375 269.3125 C173.9375 269.9725 173.9375 270.6325 173.9375 271.3125 C174.9275 271.6425 175.9175 271.9725 176.9375 272.3125 C179.9375 275.75694444 179.9375 275.75694444 179.9375 278.3125 C180.5975 278.3125 181.2575 278.3125 181.9375 278.3125 C197.61934107 295.84220132 202.34259195 323.01674097 202.25 345.5 C202.24884186 346.18059479 202.24768372 346.86118958 202.24649048 347.56240845 C202.21096895 358.13184723 201.46618402 368.03386774 198.9375 378.3125 C198.61265625 379.85550781 198.61265625 379.85550781 198.28125 381.4296875 C195.14338092 395.51274279 189.54612156 408.13302743 181.9375 420.3125 C181.57269531 420.89676758 181.20789063 421.48103516 180.83203125 422.08300781 C176.2937105 429.29256823 176.2937105 429.29256823 173.9375 432.3125 C173.2775 432.3125 172.6175 432.3125 171.9375 432.3125 C171.53144531 433.17875 171.53144531 433.17875 171.1171875 434.0625 C168.37123364 439.29981598 164.4285199 444.46305437 159.9375 448.3125 C159.2775 448.3125 158.6175 448.3125 157.9375 448.3125 C157.9375 448.9725 157.9375 449.6325 157.9375 450.3125 C131.1221473 475.3125 131.1221473 475.3125 119.9375 475.3125 C119.9375 475.9725 119.9375 476.6325 119.9375 477.3125 C102.52700953 485.09101689 85.51126418 492.37609389 66.83984375 496.453125 C64.19530523 497.03550585 61.59092733 497.64995619 58.97265625 498.328125 C12.54362204 510.03832729 -44.36553845 507.01848216 -89.140625 490.04052734 C-91.01166624 489.33175639 -92.89639803 488.65946278 -94.78125 487.98828125 C-116.15686521 480.01809994 -140.77749497 466.46057059 -155.0625 448.3125 C-156.72133594 446.63803923 -158.38803923 444.97133594 -160.0625 443.3125 C-189.38032661 410.83987944 -199.0625 370.05537453 -199.0625 327.3125 C-164.0825 327.3125 -129.1025 327.3125 -93.0625 327.3125 C-92.7325 331.6025 -92.4025 335.8925 -92.0625 340.3125 C-91.57152783 343.30617136 -91.05782273 346.18299963 -90.375 349.125 C-90.20129883 349.87998779 -90.02759766 350.63497559 -89.84863281 351.4128418 C-86.03875044 367.21526987 -79.76000122 380.94351421 -69.0625 393.3125 C-69.0625 393.9725 -69.0625 394.6325 -69.0625 395.3125 C-68.4025 395.3125 -67.7425 395.3125 -67.0625 395.3125 C-64.9375 397.1875 -64.9375 397.1875 -63.0625 399.3125 C-63.0625 399.9725 -63.0625 400.6325 -63.0625 401.3125 C-62.53011719 401.55484375 -61.99773437 401.7971875 -61.44921875 402.046875 C-59.03144811 403.32896614 -56.84160595 404.82471295 -54.59667969 406.38452148 C-32.32498285 421.62288467 -3.67304338 424.04439521 22.45898438 419.80517578 C34.78080914 417.35586113 46.27447367 412.89928972 56.63671875 405.81640625 C58.9375 404.3125 58.9375 404.3125 60.9375 404.3125 C60.9375 403.6525 60.9375 402.9925 60.9375 402.3125 C62.6171875 400.5859375 62.6171875 400.5859375 64.8125 398.6875 C65.89144531 397.74003906 65.89144531 397.74003906 66.9921875 396.7734375 C68.9375 395.3125 68.9375 395.3125 70.9375 395.3125 C71.5975 393.6625 72.2575 392.0125 72.9375 390.3125 C73.5975 390.3125 74.2575 390.3125 74.9375 390.3125 C75.164375 389.673125 75.39125 389.03375 75.625 388.375 C76.71369249 385.83471753 77.88873212 383.72312179 79.3125 381.375 C84.27662437 372.56294491 86.56200208 362.36931391 86.9375 352.3125 C86.97746094 351.4771875 87.01742188 350.641875 87.05859375 349.78125 C87.30596122 339.88655118 86.29768245 329.64779287 82.9375 320.3125 C82.545625 319.054375 82.15375 317.79625 81.75 316.5 C78.75557955 308.65461843 72.87789475 302.88894588 66.44140625 297.72265625 C65.94511719 297.25730469 65.44882812 296.79195313 64.9375 296.3125 C64.9375 295.6525 64.9375 294.9925 64.9375 294.3125 C63.90882813 293.92384766 63.90882813 293.92384766 62.859375 293.52734375 C59.53468046 292.14501754 56.3862582 290.52769174 53.1875 288.875 C47.8697248 286.18855916 42.70801549 283.82750156 36.9375 282.3125 C36.04289063 282.05855469 35.14828125 281.80460937 34.2265625 281.54296875 C11.27832822 275.7917446 -13.86312474 277.01551137 -37.0625 276.3125 C-37.0625 252.8825 -37.0625 229.4525 -37.0625 205.3125 C-29.8025 205.3125 -22.5425 205.3125 -15.0625 205.3125 C-0.94469139 205.13723236 12.25404817 203.85958212 25.9375 200.3125 C27.11828125 200.0134375 28.2990625 199.714375 29.515625 199.40625 C38.84383801 196.7925478 48.80893221 192.96210004 56.22265625 186.58984375 C58.9375 184.3125 58.9375 184.3125 60.9375 184.3125 C60.9375 183.6525 60.9375 182.9925 60.9375 182.3125 C62.8125 180.1875 62.8125 180.1875 64.9375 178.3125 C65.5975 178.3125 66.2575 178.3125 66.9375 178.3125 C67.185 177.631875 67.4325 176.95125 67.6875 176.25 C68.9375 173.3125 68.9375 173.3125 70.875 170.125 C75.34627011 162.39001394 76.4713178 154.31307894 76.375 145.5 C76.36887695 144.5394873 76.36275391 143.57897461 76.35644531 142.58935547 C76.18766386 134.88383302 75.0213262 128.43391308 71.9375 121.3125 C71.61394531 120.549375 71.29039062 119.78625 70.95703125 119 C63.31007161 102.52002167 48.20659245 93.32912028 31.66992188 87.21459961 C19.94182799 83.0626503 8.33043184 81.93224268 -4.0625 82.3125 C-4.99707031 82.34085937 -5.93164062 82.36921875 -6.89453125 82.3984375 C-21.90531922 83.24241755 -36.7583361 87.71753735 -48.8359375 96.7265625 C-50.85530608 98.16491977 -52.81615719 99.27651541 -55.0625 100.3125 C-55.0625 100.9725 -55.0625 101.6325 -55.0625 102.3125 C-56.9375 104.4375 -56.9375 104.4375 -59.0625 106.3125 C-59.7225 106.3125 -60.3825 106.3125 -61.0625 106.3125 C-61.330625 107.075625 -61.59875 107.83875 -61.875 108.625 C-63.0625 111.3125 -63.0625 111.3125 -64.390625 112.52734375 C-77.40911135 126.4279238 -78.51570067 150.2977074 -80.0625 167.3125 C-114.7125 167.3125 -149.3625 167.3125 -185.0625 167.3125 C-185.0625 157.895842 -185.05550138 149.70041793 -183.4375 140.625 C-183.2607373 139.60680176 -183.08397461 138.58860352 -182.90185547 137.53955078 C-178.0443514 110.97830515 -167.3930594 86.76266368 -151.0625 65.3125 C-150.2890625 64.29027344 -149.515625 63.26804688 -148.71875 62.21484375 C-144.77057601 57.12942399 -144.77057601 57.12942399 -143.0625 55.3125 C-142.4025 55.3125 -141.7425 55.3125 -141.0625 55.3125 C-140.4025 53.9925 -139.7425 52.6725 -139.0625 51.3125 C-138.4025 51.3125 -137.7425 51.3125 -137.0625 51.3125 C-136.4025 49.9925 -135.7425 48.6725 -135.0625 47.3125 C-134.4025 47.3125 -133.7425 47.3125 -133.0625 47.3125 C-133.0625 46.6525 -133.0625 45.9925 -133.0625 45.3125 C-129.60096154 42.3125 -129.60096154 42.3125 -127.0625 42.3125 C-127.0625 41.6525 -127.0625 40.9925 -127.0625 40.3125 C-123.91787126 37.72721954 -120.45263652 35.56190139 -117.0625 33.3125 C-116.23234375 32.75175781 -115.4021875 32.19101563 -114.546875 31.61328125 C-101.49973004 23.02858004 -87.83910515 16.30668362 -73.0625 11.3125 C-72.43053711 11.09110352 -71.79857422 10.86970703 -71.14746094 10.64160156 C-59.70938464 6.64912081 -48.02496663 4.1689324 -36.0625 2.3125 C-34.32335327 2.04215942 -34.32335327 2.04215942 -32.54907227 1.76635742 C-21.68278276 0.23624961 -10.96322962 -0.04388935 0 0 Z " fill="#1D75C0" transform="translate(232.0625,136.6875)"/>
<path d="M0 0 C1.22770111 -0.0033284 2.45540222 -0.0066568 3.7203064 -0.01008606 C6.30360544 -0.01511823 8.8869109 -0.01749554 11.47021484 -0.01733398 C15.36697427 -0.01951365 19.26344697 -0.03769111 23.16015625 -0.05664062 C36.51967237 -0.0865599 49.54497342 0.27730468 62.7734375 2.16796875 C64.13688163 2.33872917 65.50073876 2.50622453 66.86499023 2.67041016 C91.44639256 5.64441103 118.66464863 11.83368375 140.984375 22.81640625 C143.2037055 23.89188013 145.4158738 24.87753933 147.6875 25.83203125 C159.91038913 31.00545919 171.4665714 37.21465008 182.7734375 44.16796875 C183.7973056 44.68713867 184.82117371 45.20630859 185.87606812 45.74121094 C188.7734375 48.16796875 188.7734375 48.16796875 189.4949646 51.87591553 C189.51231722 53.39217235 189.49648694 54.9090275 189.45458984 56.42480469 C189.455466 57.25444229 189.45634216 58.0840799 189.45724487 58.93885803 C189.4530688 61.67764876 189.40641875 64.41398171 189.359375 67.15234375 C189.34818286 69.05233421 189.33964276 70.95234199 189.33364868 72.85235596 C189.31075169 77.85052389 189.25182093 82.8476438 189.1854248 87.84539795 C189.12402105 92.9462669 189.09663774 98.0473054 189.06640625 103.1484375 C189.00207857 113.15540811 188.89968847 123.16160125 188.7734375 133.16796875 C187.4534375 132.50796875 186.1334375 131.84796875 184.7734375 131.16796875 C184.7734375 130.50796875 184.7734375 129.84796875 184.7734375 129.16796875 C183.9071875 128.76578125 183.9071875 128.76578125 183.0234375 128.35546875 C180.71793707 127.13867686 178.75287558 125.86462996 176.7734375 124.16796875 C176.7734375 123.50796875 176.7734375 122.84796875 176.7734375 122.16796875 C176.24363281 121.94109375 175.71382812 121.71421875 175.16796875 121.48046875 C171.97562739 119.7306699 169.27356772 117.45691663 166.4609375 115.16796875 C132.48933641 88.0782758 91.54305808 71.733958 48.7734375 65.16796875 C47.70109863 64.98991699 46.62875977 64.81186523 45.52392578 64.62841797 C34.47866311 62.94201479 23.5528991 62.77052636 12.3984375 62.79296875 C11.42710876 62.79318024 10.45578003 62.79339172 9.45501709 62.79360962 C-5.83460368 62.82678981 -20.26405211 63.8408711 -35.2265625 67.16796875 C-37.15582553 67.55938969 -39.08552049 67.94868723 -41.015625 68.3359375 C-56.44634051 71.53404714 -71.047409 76.23463612 -85.2265625 83.16796875 C-86.38929688 83.71839844 -87.55203125 84.26882812 -88.75 84.8359375 C-111.53369084 95.76990666 -132.04687902 109.60454573 -150.2265625 127.16796875 C-151.15984375 128.0496875 -152.093125 128.93140625 -153.0546875 129.83984375 C-160.00475514 136.55694823 -167.840631 144.39610575 -172.2265625 153.16796875 C-172.8865625 153.16796875 -173.5465625 153.16796875 -174.2265625 153.16796875 C-174.47148438 153.85375 -174.71640625 154.53953125 -174.96875 155.24609375 C-176.44948871 158.68582217 -178.36763353 161.75609506 -180.3515625 164.91796875 C-183.73840485 170.44441344 -186.7787137 176.05305499 -189.5390625 181.91796875 C-189.85182129 182.57764648 -190.16458008 183.23732422 -190.48681641 183.91699219 C-194.91171432 193.5125308 -197.97821357 203.33694194 -200.4140625 213.60546875 C-200.67380859 214.64767578 -200.93355469 215.68988281 -201.20117188 216.76367188 C-205.85237628 236.14969956 -205.75189655 257.58776943 -202.2265625 277.16796875 C-202.05511719 278.31265625 -201.88367188 279.45734375 -201.70703125 280.63671875 C-197.67754186 304.55368804 -186.54032228 329.36625935 -171.2265625 348.16796875 C-170.01754335 349.75077846 -168.80919565 351.33410131 -167.6015625 352.91796875 C-165.40967101 355.72459762 -163.14203737 358.43288605 -160.7890625 361.10546875 C-158.2265625 364.16796875 -158.2265625 364.16796875 -158.2265625 366.16796875 C-156.9065625 366.82796875 -155.5865625 367.48796875 -154.2265625 368.16796875 C-154.2265625 368.82796875 -154.2265625 369.48796875 -154.2265625 370.16796875 C-153.5665625 370.16796875 -152.9065625 370.16796875 -152.2265625 370.16796875 C-152.2265625 370.82796875 -152.2265625 371.48796875 -152.2265625 372.16796875 C-150.9065625 372.82796875 -149.5865625 373.48796875 -148.2265625 374.16796875 C-148.2265625 374.82796875 -148.2265625 375.48796875 -148.2265625 376.16796875 C-147.5665625 376.16796875 -146.9065625 376.16796875 -146.2265625 376.16796875 C-146.2265625 376.82796875 -146.2265625 377.48796875 -146.2265625 378.16796875 C-145.67871094 378.40386719 -145.13085938 378.63976562 -144.56640625 378.8828125 C-141.62360808 380.49914071 -139.32615263 382.53073932 -136.7890625 384.73046875 C-130.56899765 390.00674039 -124.05229585 394.6996516 -117.2265625 399.16796875 C-116.59073242 399.59190918 -115.95490234 400.01584961 -115.29980469 400.45263672 C-63.87539756 434.49922653 2.11294146 444.60326098 62.0859375 432.60546875 C86.12291696 427.51134945 112.23987209 419.78119737 133.02856445 406.28857422 C135.29019014 404.83609599 137.64007612 403.59586594 140.0234375 402.35546875 C149.50689418 397.22186203 158.18111316 391.04571668 166.58544922 384.31738281 C170.56489346 381.16796875 170.56489346 381.16796875 172.7734375 381.16796875 C172.7734375 380.50796875 172.7734375 379.84796875 172.7734375 379.16796875 C174.0934375 378.83796875 175.4134375 378.50796875 176.7734375 378.16796875 C176.7734375 377.50796875 176.7734375 376.84796875 176.7734375 376.16796875 C178.53095728 374.56390622 180.35518974 373.03229498 182.2109375 371.54296875 C183.22027344 370.72570312 184.22960937 369.9084375 185.26953125 369.06640625 C187.7734375 367.16796875 187.7734375 367.16796875 188.7734375 367.16796875 C188.7734375 395.21796875 188.7734375 423.26796875 188.7734375 452.16796875 C157.69875954 469.6474751 157.69875954 469.6474751 141.7734375 476.16796875 C140.99790527 476.48765625 140.22237305 476.80734375 139.42333984 477.13671875 C100.79507246 492.89896055 59.80213765 500.37736882 18.19946289 500.29833984 C14.84712184 500.29298661 11.49491507 500.29830724 8.14257812 500.3046875 C-33.50086252 500.31995326 -73.42197436 492.24306525 -112.2265625 477.16796875 C-113.804375 476.55501953 -113.804375 476.55501953 -115.4140625 475.9296875 C-136.76494959 467.30037063 -156.407563 456.36283462 -175.38427734 443.38769531 C-176.964322 442.34159101 -178.60106927 441.38202827 -180.24609375 440.44140625 C-181.22642578 439.81105469 -181.22642578 439.81105469 -182.2265625 439.16796875 C-182.2265625 438.50796875 -182.2265625 437.84796875 -182.2265625 437.16796875 C-183.5465625 436.83796875 -184.8665625 436.50796875 -186.2265625 436.16796875 C-186.2265625 435.50796875 -186.2265625 434.84796875 -186.2265625 434.16796875 C-187.061875 433.79478516 -187.061875 433.79478516 -187.9140625 433.4140625 C-190.62841 431.95143268 -192.84127637 430.18305816 -195.2265625 428.23046875 C-198.81657579 425.29773134 -198.81657579 425.29773134 -202.5390625 422.5390625 C-203.374375 421.86037109 -203.374375 421.86037109 -204.2265625 421.16796875 C-204.2265625 420.50796875 -204.2265625 419.84796875 -204.2265625 419.16796875 C-204.8453125 418.92046875 -205.4640625 418.67296875 -206.1015625 418.41796875 C-208.63014877 416.93056506 -208.94495254 415.73118866 -210.2265625 413.16796875 C-210.8040625 412.87921875 -211.3815625 412.59046875 -211.9765625 412.29296875 C-215.31368166 410.62440917 -217.87458592 408.05306003 -220.2265625 405.16796875 C-220.2265625 404.50796875 -220.2265625 403.84796875 -220.2265625 403.16796875 C-220.8865625 403.16796875 -221.5465625 403.16796875 -222.2265625 403.16796875 C-223.734375 401.70703125 -223.734375 401.70703125 -225.3515625 399.79296875 C-225.89039063 399.16648437 -226.42921875 398.54 -226.984375 397.89453125 C-228.2265625 396.16796875 -228.2265625 396.16796875 -228.2265625 394.16796875 C-228.8865625 394.16796875 -229.5465625 394.16796875 -230.2265625 394.16796875 C-231.65118473 392.49637184 -232.99004498 390.75143973 -234.2890625 388.98046875 C-234.68536865 388.44091553 -235.0816748 387.9013623 -235.48999023 387.34545898 C-239.85537432 381.36837337 -244.10744066 375.31712376 -248.2265625 369.16796875 C-248.88398438 368.18699219 -249.54140625 367.20601563 -250.21875 366.1953125 C-272.05303541 332.21625389 -282.67612399 292.41492221 -282.6015625 252.29296875 C-282.60168335 251.29584869 -282.6018042 250.29872864 -282.60192871 249.27139282 C-282.5758533 234.1711506 -281.74361445 219.90504447 -278.2265625 205.16796875 C-277.93180277 203.76627187 -277.63997697 202.36395373 -277.3515625 200.9609375 C-271.23323596 172.6706299 -257.60961017 146.52784349 -241.35742188 122.84375 C-240.59055857 121.70736189 -239.84228863 120.55824524 -239.11132812 119.3984375 C-238.19793635 117.9565954 -237.21782283 116.55742768 -236.2265625 115.16796875 C-235.5665625 115.16796875 -234.9065625 115.16796875 -234.2265625 115.16796875 C-233.99066406 114.44996094 -233.75476563 113.73195313 -233.51171875 112.9921875 C-232.01442921 109.70179133 -230.13875724 107.60610795 -227.6640625 104.98046875 C-224.58470452 101.82607938 -224.58470452 101.82607938 -222.2265625 98.16796875 C-221.5665625 98.16796875 -220.9065625 98.16796875 -220.2265625 98.16796875 C-219.5665625 96.84796875 -218.9065625 95.52796875 -218.2265625 94.16796875 C-217.5665625 94.16796875 -216.9065625 94.16796875 -216.2265625 94.16796875 C-215.8553125 93.30945313 -215.8553125 93.30945313 -215.4765625 92.43359375 C-214.03340051 89.81786264 -212.34440028 88.02023419 -210.2265625 85.91796875 C-209.1746875 84.85835937 -209.1746875 84.85835937 -208.1015625 83.77734375 C-206.2265625 82.16796875 -206.2265625 82.16796875 -204.2265625 82.16796875 C-204.2265625 81.50796875 -204.2265625 80.84796875 -204.2265625 80.16796875 C-202.51323496 78.58263173 -200.72967203 77.0725566 -198.9140625 75.60546875 C-197.43486328 74.39697266 -197.43486328 74.39697266 -195.92578125 73.1640625 C-193.2265625 71.16796875 -193.2265625 71.16796875 -190.2265625 70.16796875 C-190.2265625 69.50796875 -190.2265625 68.84796875 -190.2265625 68.16796875 C-188.79638672 66.89038086 -188.79638672 66.89038086 -186.78125 65.4453125 C-185.67112549 64.64432129 -185.67112549 64.64432129 -184.53857422 63.82714844 C-183.73436035 63.25899414 -182.93014648 62.69083984 -182.1015625 62.10546875 C-181.28059082 61.52055664 -180.45961914 60.93564453 -179.61376953 60.33300781 C-159.43700715 46.05044832 -137.9522057 33.45513751 -114.82421875 24.58984375 C-112.14162664 23.52962276 -109.55095594 22.41262858 -106.93359375 21.2109375 C-102.01636623 19.00642991 -96.99196238 17.33325068 -91.8515625 15.73046875 C-90.89113037 15.42971436 -89.93069824 15.12895996 -88.94116211 14.8190918 C-72.18547306 9.63086615 -55.54740837 5.93984232 -38.2265625 3.16796875 C-36.28330078 2.843125 -36.28330078 2.843125 -34.30078125 2.51171875 C-22.87731831 0.65113077 -11.5651813 0.01118862 0 0 Z " fill="#6F6C6D" transform="translate(738.2265625,138.83203125)"/>
<path d="M0 0 C3.9405216 1.9702608 5.96928147 3.89157074 9 7 C9.99 7.66 10.98 8.32 12 9 C12 9.66 12 10.32 12 11 C12.66 11 13.32 11 14 11 C14 11.66 14 12.32 14 13 C14.66 13 15.32 13 16 13 C16 13.66 16 14.32 16 15 C16.61875 15.2475 17.2375 15.495 17.875 15.75 C20.40358627 17.23740369 20.71839004 18.43678009 22 21 C22.66 21.33 23.32 21.66 24 22 C26.52845528 23.26422764 26.76422764 24.52845528 28 27 C28.58580338 27.280784 29.17160675 27.56156799 29.77516174 27.8508606 C32.57775813 29.29841479 34.37714383 31.14508846 36.59741211 33.38623047 C37.50192612 34.29412323 38.40644012 35.20201599 39.33836365 36.13742065 C40.3180524 37.13064795 41.29771171 38.12390428 42.27734375 39.1171875 C43.29046775 40.13658726 44.30411219 41.15547001 45.31825256 42.17385864 C47.98546754 44.85436224 50.64706063 47.54037303 53.30706787 50.22802734 C57.55946315 54.52356264 61.81854172 58.81244368 66.08099556 63.09799576 C67.5639988 64.59116537 69.04350711 66.08773312 70.52268982 67.58468628 C71.43035599 68.49888336 72.33802216 69.41308044 73.27319336 70.35498047 C74.46421913 71.55838577 74.46421913 71.55838577 75.67930603 72.78610229 C78.01684446 75.01606929 80.45566444 77.01177252 83 79 C84.8125 80.625 84.8125 80.625 86 82 C86 82.66 86 83.32 86 84 C87.485 84.495 87.485 84.495 89 85 C90.6875 86.4375 90.6875 86.4375 92 88 C92 88.66 92 89.32 92 90 C93.485 90.495 93.485 90.495 95 91 C94.431775 94.66910998 93.05620402 96.24478235 90.375 98.75 C85.61405669 103.33272618 81.33313251 108.23059068 77.078125 113.28125 C76.45421875 114.0134375 75.8303125 114.745625 75.1875 115.5 C74.62417969 116.1703125 74.06085938 116.840625 73.48046875 117.53125 C72 119 72 119 70 119 C69.76410156 119.56460938 69.52820313 120.12921875 69.28515625 120.7109375 C67.70765058 123.52071963 65.75948714 125.39619051 63.4375 127.625 C60.30957946 130.51070681 60.30957946 130.51070681 58 134 C57.34 134 56.68 134 56 134 C55.76410156 134.56460938 55.52820313 135.12921875 55.28515625 135.7109375 C53.70765058 138.52071963 51.75948714 140.39619051 49.4375 142.625 C46.30957946 145.51070681 46.30957946 145.51070681 44 149 C43.34 149 42.68 149 42 149 C41.76410156 149.56460938 41.52820313 150.12921875 41.28515625 150.7109375 C39.70765058 153.52071963 37.75948714 155.39619051 35.4375 157.625 C32.30957946 160.51070681 32.30957946 160.51070681 30 164 C29.34 164 28.68 164 28 164 C27.64615234 164.84691406 27.64615234 164.84691406 27.28515625 165.7109375 C25.70765058 168.52071963 23.75948714 170.39619051 21.4375 172.625 C18.30957946 175.51070681 18.30957946 175.51070681 16 179 C15.34 179 14.68 179 14 179 C13.78472656 179.54140625 13.56945312 180.0828125 13.34765625 180.640625 C11.52713205 183.82786158 9.04241138 186.20846034 6.4375 188.75 C5.93025391 189.25660156 5.42300781 189.76320313 4.90039062 190.28515625 C1.14048812 194 1.14048812 194 0 194 C0 129.98 0 65.96 0 0 Z " fill="#1E75BF" transform="translate(927,294)"/>
<path d="M0 0 C6.88054487 4.0841223 11.09390078 9.07262458 14.1875 16.4375 C14.49873449 19.16851258 14.66648512 21.59313434 14.625 24.3125 C14.61525146 25.02212891 14.60550293 25.73175781 14.59545898 26.46289062 C14.3071144 34.96270243 11.93563876 39.00997523 5.875 44.75 C-2.41711599 51.69413654 -11.18700036 53.20870562 -21.8125 52.4375 C-30.94192434 50.85327637 -37.67625451 46.69151263 -43.1875 39.25 C-47.37663649 32.39817949 -48.62392082 25.59225899 -46.8125 17.75 C-43.8820179 8.84437906 -39.16661711 4.124076 -31.08203125 -0.43359375 C-22.20821235 -4.84759317 -8.79011558 -4.16257362 0 0 Z M-34.4375 8.5625 C-36.00962122 10.31877926 -36.00962122 10.31877926 -35.8125 12.4375 C-36.4725 12.4375 -37.1325 12.4375 -37.8125 12.4375 C-41.46066334 20.21920463 -42.43056586 24.745109 -39.5625 33.0625 C-36.17824854 39.58927067 -30.75789396 44.0673236 -23.8125 46.4375 C-15.62281642 47.4579117 -7.59263601 47.61536506 -0.8125 42.4375 C1.97947732 40.14567728 1.97947732 40.14567728 4.1875 37.4375 C5.3321875 36.2 5.3321875 36.2 6.5 34.9375 C9.07015999 29.6067978 8.81415893 24.25959866 8.1875 18.4375 C7.25229488 15.63646175 7.25229488 15.63646175 6.1875 13.4375 C5.5275 13.4375 4.8675 13.4375 4.1875 13.4375 C3.94773437 12.84324219 3.70796875 12.24898437 3.4609375 11.63671875 C1.92613823 8.98612982 0.37404918 7.90522032 -2.1875 6.25 C-2.95835938 5.74082031 -3.72921875 5.23164062 -4.5234375 4.70703125 C-13.94514068 -0.51831608 -26.35371258 2.01848161 -34.4375 8.5625 Z " fill="#5C6065" transform="translate(1556.8125,583.5625)"/>
<path d="M0 0 C3.526875 -0.103125 7.05375 -0.20625 10.6875 -0.3125 C11.79053467 -0.35802002 12.89356934 -0.40354004 14.0300293 -0.45043945 C21.24906346 -0.55278559 21.24906346 -0.55278559 25.16796875 2.33203125 C27 5 27 5 27.625 8 C26.57278935 13.0506111 23.13247231 15.24501846 19 18 C19.75796875 19.04800781 19.75796875 19.04800781 20.53125 20.1171875 C21.50578125 21.48230469 21.50578125 21.48230469 22.5 22.875 C23.1496875 23.77992188 23.799375 24.68484375 24.46875 25.6171875 C26 28 26 28 26 30 C22.8125 30.4375 22.8125 30.4375 19 30 C16.82857115 27.9521921 15.31305984 25.67452741 14 23 C14 22.34 14 21.68 14 21 C13.34 21 12.68 21 12 21 C11.34 20.01 10.68 19.02 10 18 C8.68 17.67 7.36 17.34 6 17 C6 21.29 6 25.58 6 30 C4.02 30 2.04 30 0 30 C0 20.1 0 10.2 0 0 Z M6 5 C6 7.31 6 9.62 6 12 C14.00938881 12.53926154 14.00938881 12.53926154 21 9 C20.67 8.01 20.34 7.02 20 6 C17.23547967 4.61773984 14.9538637 4.90474613 11.875 4.9375 C10.77929688 4.94652344 9.68359375 4.95554687 8.5546875 4.96484375 C7.29011719 4.98224609 7.29011719 4.98224609 6 5 Z " fill="#5B6065" transform="translate(1529,593)"/>
</svg>
