<?xml version="1.0" encoding="UTF-8"?>
<svg version="1.1" xmlns="http://www.w3.org/2000/svg" width="2446" height="1650">
<path d="M0 0 C2.27880859 0.18139648 2.27880859 0.18139648 5 1 C6.82666016 3.17602539 6.82666016 3.17602539 8.5390625 6.09765625 C9.51866943 7.74060669 9.51866943 7.74060669 10.51806641 9.41674805 C11.22061782 10.63185984 11.92292168 11.8471148 12.625 13.0625 C13.36875555 14.32227168 14.11406752 15.5811256 14.86083984 16.83911133 C16.44199655 19.5084818 18.01363152 22.18313494 19.578125 24.86230469 C21.96918954 28.95427683 24.38718896 33.02981698 26.8125 37.1015625 C29.63120701 41.83558146 32.44649472 46.57155575 35.25387573 51.31230164 C39.6430428 58.72405909 44.06022062 66.11841559 48.5 73.5 C53.75272552 82.23318999 58.96409407 90.99001556 64.15805054 99.75820923 C70.60825712 110.64658238 77.10177531 121.50551295 83.6875 132.3125 C91.18556899 144.6186149 98.5504303 157.00064787 105.87841797 169.40869141 C109.72544049 175.9218516 113.57905409 182.43110101 117.4375 188.9375 C118.03785065 189.9499176 118.03785065 189.9499176 118.65032959 190.98278809 C124.88747391 201.49535119 131.20634021 211.95557978 137.56811523 222.39306641 C143.89888068 232.79042072 150.1178124 243.25309849 156.31835938 253.72851562 C157.06638498 254.99220009 157.81443162 256.2558721 158.5625 257.51953125 C158.92984253 258.14011917 159.29718506 258.76070709 159.67565918 259.40010071 C162.26836218 263.77605365 164.87970343 268.14052273 167.5 272.5 C170.49558632 277.48385972 173.47554459 282.4765457 176.4375 287.48046875 C176.80580933 288.10262772 177.17411865 288.72478668 177.55358887 289.36579895 C178.31088484 290.64514441 179.0681682 291.92449733 179.82543945 293.20385742 C186.32134733 304.174394 192.86432936 315.11342631 199.5 326 C206.43596799 337.38026398 213.26236351 348.82256874 220.0546875 360.2890625 C224.84466985 368.37463741 229.65611125 376.44654269 234.5 384.5 C239.75272552 393.23318999 244.96409407 401.99001556 250.15805054 410.75820923 C256.60825712 421.64658238 263.10177531 432.50551295 269.6875 443.3125 C277.18556899 455.6186149 284.5504303 468.00064787 291.87841797 480.40869141 C295.72544049 486.9218516 299.57905409 493.43110101 303.4375 499.9375 C304.03785065 500.9499176 304.03785065 500.9499176 304.65032959 501.98278809 C310.88747391 512.49535119 317.20634021 522.95557978 323.56811523 533.39306641 C329.89888068 543.79042072 336.1178124 554.25309849 342.31835938 564.72851562 C343.06638498 565.99220009 343.81443162 567.2558721 344.5625 568.51953125 C344.92984253 569.14011917 345.29718506 569.76070709 345.67565918 570.40010071 C348.26836218 574.77605365 350.87970343 579.14052273 353.5 583.5 C356.49558632 588.48385972 359.47554459 593.4765457 362.4375 598.48046875 C362.80580933 599.10262772 363.17411865 599.72478668 363.55358887 600.36579895 C364.31088484 601.64514441 365.0681682 602.92449733 365.82543945 604.20385742 C372.32134733 615.174394 378.86432936 626.11342631 385.5 637 C392.43596799 648.38026398 399.26236351 659.82256874 406.0546875 671.2890625 C410.84466985 679.37463741 415.65611125 687.44654269 420.5 695.5 C425.75272552 704.23318999 430.96409407 712.99001556 436.15805054 721.75820923 C442.60825712 732.64658238 449.10177531 743.50551295 455.6875 754.3125 C463.18556899 766.6186149 470.5504303 779.00064787 477.87841797 791.40869141 C481.72544049 797.9218516 485.57905409 804.43110101 489.4375 810.9375 C489.83773376 811.61244507 490.23796753 812.28739014 490.65032959 812.98278809 C496.21149116 822.35599783 501.82806272 831.6934511 507.5 841 C513.60872147 851.02331916 519.64163445 861.08884455 525.625 871.1875 C526.02420654 871.86121643 526.42341309 872.53493286 526.8347168 873.22906494 C527.23150635 873.89871277 527.6282959 874.5683606 528.03710938 875.25830078 C528.82940383 876.59539138 529.62172135 877.93246832 530.4140625 879.26953125 C530.80156677 879.92344849 531.18907104 880.57736572 531.58831787 881.25109863 C535.37411332 887.63659992 539.18184795 894.00878469 543 900.375 C543.60287842 901.38151611 544.20575684 902.38803223 544.8269043 903.42504883 C547.64292134 908.11633986 550.48090207 912.79148933 553.37109375 917.4375 C553.89123047 918.27619629 554.41136719 919.11489258 554.94726562 919.97900391 C555.90991971 921.52675738 556.87828296 923.0709811 557.85351562 924.61083984 C561 929.66872863 561 929.66872863 561 933 C459.42462167 934.77245627 357.25966498 903.73254161 227.546875 804.63671875 C226.27822158 803.35058388 225.01467006 802.05938337 223.7578125 800.76171875 C221.89005651 798.88981219 219.94095435 797.1629084 217.9375 795.4375 C204.00914932 783.41341602 192.11184937 768.54492641 181.6875 753.4375 C177.98290603 748.10897443 174.06088227 744.031221 169 740 C167.47432611 738.58854768 165.95387118 737.17144185 164.4375 735.75 C158.01013504 729.96241869 151.06844543 724.96471944 144 720 C142.93394531 719.236875 141.86789062 718.47375 140.76953125 717.6875 C110.16021842 696.80904058 71.99563696 686.78051662 35.25 686.75 C34.15251938 686.74898788 34.15251938 686.74898788 33.03286743 686.74795532 C20.80516772 686.76580647 9.00194235 687.50277014 -3 690 C-4.22468994 690.24943359 -4.22468994 690.24943359 -5.47412109 690.50390625 C-47.61643783 699.37078762 -86.68627783 722.57442577 -113.70703125 756.19921875 C-116.65196757 759.79635561 -119.75414552 763.23076541 -122.8828125 766.66796875 C-124.78051169 768.75823889 -126.64733415 770.86986115 -128.5 773 C-129.66666667 774.33333333 -130.83333333 775.66666667 -132 777 C-132.61746094 777.7115625 -133.23492188 778.423125 -133.87109375 779.15625 C-138.75003099 784.69001625 -143.8566601 789.96181114 -149.0625 795.1875 C-149.72306396 795.85265625 -150.38362793 796.5178125 -151.06420898 797.203125 C-154.98215058 801.10893374 -159.0104047 804.82924569 -163.19848633 808.44360352 C-165.44046809 810.38053721 -167.62584465 812.37599108 -169.8125 814.375 C-197.09422696 838.92855427 -227.8787187 859.40274375 -260 877 C-261.32306152 877.72751465 -261.32306152 877.72751465 -262.67285156 878.46972656 C-317.90621254 908.66340746 -379.52901867 925.83485385 -442 932 C-443.36983032 932.1381311 -443.36983032 932.1381311 -444.76733398 932.27905273 C-482.08012682 935.88265579 -519.92352841 934.14635864 -557 929 C-556.41781612 924.85861951 -555.05066586 922.05102354 -552.8515625 918.51171875 C-552.18519775 917.42858398 -551.51883301 916.34544922 -550.83227539 915.22949219 C-550.47344269 914.65372437 -550.11460999 914.07795654 -549.74490356 913.48474121 C-547.80577596 910.37279465 -545.8910555 907.24584453 -543.97265625 904.12109375 C-543.36692024 903.13672836 -543.36692024 903.13672836 -542.74894714 902.13247681 C-538.5175591 895.24407871 -534.40081381 888.2890574 -530.28997803 881.32827759 C-524.92817529 872.2500585 -519.56530283 863.18192607 -513.90869141 854.28320312 C-509.00148878 846.5063763 -504.37363629 838.55816138 -499.69189453 830.64453125 C-494.02022806 821.05961424 -488.29852004 811.5086973 -482.5 802 C-476.34030973 791.89857169 -470.27336714 781.74577002 -464.25 771.5625 C-458.59402041 762.00087977 -452.87214615 752.49290172 -446.98242188 743.07275391 C-441.69487149 734.5805774 -436.61316439 725.96867189 -431.52050781 717.35888672 C-425.22919583 706.72452391 -418.8566067 696.1445481 -412.42382812 685.59521484 C-406.96132691 676.62611969 -401.59636081 667.60120451 -396.25 658.5625 C-390.60048362 649.01180603 -384.90358138 639.50199455 -378.99560547 630.10791016 C-375.68003479 624.80612989 -372.49721916 619.43977146 -369.3671875 614.02734375 C-368.53475624 612.59620812 -367.70207204 611.16521959 -366.86914062 609.734375 C-365.63858533 607.62035023 -364.41297865 605.5043608 -363.20483398 603.37744141 C-353.72947012 586.69902198 -344.39450504 575.63258477 -325.35546875 569.875 C-322.97072024 569.23276675 -320.58108555 568.60847121 -318.1875 568 C-317.22549179 567.75086853 -317.22549179 567.75086853 -316.24404907 567.4967041 C-295.59452256 562.15763417 -274.7288649 558.25864577 -253.5625 555.6875 C-252.55937271 555.56526062 -252.55937271 555.56526062 -251.53598022 555.44055176 C-203.70619994 549.70775567 -156.01644791 552.85222659 -108.78222656 561.32714844 C-104.40644944 562.10559162 -100.02395555 562.83583862 -95.63818359 563.55541992 C-93.25191782 563.95754744 -90.87697669 564.39841316 -88.5 564.8515625 C-40.37643784 573.47014763 10.23884566 563.01440323 50.57104492 535.29736328 C68.35185289 522.68901803 84.19339355 507.65751942 97 490 C97.41169434 489.43796875 97.82338867 488.8759375 98.24755859 488.296875 C117.38089185 461.86635365 128.88300757 431.09160494 134 399 C133.47865479 398.83129395 132.95730957 398.66258789 132.42016602 398.48876953 C128.17135001 397.09530309 123.96192532 395.63112902 119.77734375 394.0546875 C88.9574386 382.49323361 57.26172619 374.54072824 24.6875 369.75 C23.66495117 369.59877686 22.64240234 369.44755371 21.58886719 369.29174805 C1.26589761 366.49299384 -18.9990723 365.67298426 -39.49926758 365.73925781 C-43.43000742 365.74997956 -47.36028948 365.73929043 -51.29101562 365.7265625 C-105.75131871 365.69694818 -156.5525265 376.99715958 -208.0234375 393.921875 C-209.01358353 394.24707626 -210.00372955 394.57227753 -211.02388 394.90733337 C-215.83708292 396.49174397 -220.64414274 398.09197975 -225.44311523 399.71899414 C-227.17689695 400.29841053 -228.9107011 400.8777598 -230.64453125 401.45703125 C-231.43423309 401.73033264 -232.22393494 402.00363403 -233.03756714 402.28521729 C-236.80273075 403.53405482 -239.21115636 404.20457519 -243 403 C-242.37677856 401.9790625 -242.37677856 401.9790625 -241.7409668 400.9375 C-233.24400407 387.00706594 -224.8113028 373.0420655 -216.5 359 C-210.51104423 348.88420972 -204.4843496 338.7935909 -198.375 328.75 C-197.85338287 327.89239075 -197.85338287 327.89239075 -197.32122803 327.01745605 C-194.5364429 322.44038652 -191.74745795 317.86588018 -188.95825195 313.29150391 C-186.51182882 309.27888859 -184.06714645 305.26521976 -181.625 301.25 C-181.27741638 300.67858276 -180.92983276 300.10716553 -180.57171631 299.51843262 C-174.40630092 289.37582391 -168.34016098 279.17585992 -162.29354858 268.96209717 C-156.04590226 258.41121296 -149.72226519 247.90968912 -143.34375 237.4375 C-138.19339111 228.97959182 -133.08726738 220.4959906 -128 212 C-122.22342233 202.35282679 -116.41176035 192.72826326 -110.5625 183.125 C-104.47175627 173.12425435 -98.46494904 163.07624136 -92.5 153 C-85.85141722 141.76893593 -79.13299922 130.58402857 -72.34375 119.4375 C-67.19339111 110.97959182 -62.08726738 102.4959906 -57 94 C-50.88036842 83.77990962 -44.71844231 73.58690443 -38.52017212 63.41433716 C-32.252148 53.12185361 -26.10638496 42.75931085 -19.9744873 32.38531494 C-13.5132156 21.46237549 -6.88415808 10.66288756 0 0 Z " fill="#01ADEB" transform="translate(1221,2)"/>
<path d="M0 0 C5.20699589 0.94235022 10.42749462 1.754322 15.66575623 2.5020752 C16.37135681 2.67682373 17.0769574 2.85157227 17.80393982 3.03161621 C18.13393982 3.69161621 18.46393982 4.35161621 18.80393982 5.03161621 C20.62758684 5.2554966 22.4523119 5.47210922 24.28001404 5.66003418 C29.43608014 6.41913 34.38812196 8.08757599 39.36643982 9.59411621 C40.55592224 9.95199219 41.74540466 10.30986816 42.97093201 10.67858887 C91.53850184 25.4507394 138.99678711 47.58854638 179.80393982 78.03161621 C180.45733337 78.51517578 181.11072693 78.99873535 181.78392029 79.49694824 C194.88361947 89.19324895 207.53328244 99.3050433 219.80393982 110.03161621 C221.16712341 111.22270996 221.16712341 111.22270996 222.55784607 112.43786621 C229.81950335 118.94904654 236.71152299 125.83509911 243.61643982 132.71911621 C244.11666656 133.21666412 244.61689331 133.71421204 245.13227844 134.22683716 C250.91095557 139.98204541 256.51076185 145.82441223 261.80393982 152.03161621 C262.83680044 153.20031571 263.87193084 154.36701347 264.90940857 155.53161621 C272.70201784 164.35492128 279.86868824 173.52219918 286.80393982 183.03161621 C286.47393982 183.69161621 286.14393982 184.35161621 285.80393982 185.03161621 C285.12331482 184.30458496 284.44268982 183.57755371 283.74143982 182.82849121 C275.79365358 174.51480794 267.2072235 167.62917052 257.80393982 161.03161621 C257.14829041 160.56368652 256.49264099 160.09575684 255.81712341 159.61364746 C224.00934672 137.09989028 184.79954788 125.81379378 146.05393982 125.78161621 C144.9564592 125.7806041 144.9564592 125.7806041 143.83680725 125.77957153 C131.60910754 125.79742268 119.80588217 126.53438635 107.80393982 129.03161621 C106.98747986 129.19790527 106.1710199 129.36419434 105.32981873 129.53552246 C63.18750199 138.40240383 24.11766199 161.60604198 -2.90309143 195.23083496 C-5.84802775 198.82797183 -8.9502057 202.26238162 -12.07887268 205.69958496 C-13.97657187 207.7898551 -15.84339433 209.90147736 -17.69606018 212.03161621 C-18.86272685 213.36494954 -20.02939351 214.69828288 -21.19606018 216.03161621 C-21.81352112 216.74317871 -22.43098206 217.45474121 -23.06715393 218.18786621 C-27.94609117 223.72163246 -33.05272028 228.99342735 -38.25856018 234.21911621 C-38.91912415 234.88427246 -39.57968811 235.54942871 -40.26026917 236.23474121 C-44.17821076 240.14054995 -48.20646488 243.8608619 -52.39454651 247.47521973 C-54.63652827 249.41215342 -56.82190483 251.40760729 -59.00856018 253.40661621 C-86.29028714 277.96017048 -117.07477888 298.43435996 -149.19606018 316.03161621 C-150.0781012 316.51662598 -150.96014221 317.00163574 -151.86891174 317.50134277 C-207.10227272 347.69502367 -268.72507885 364.86647006 -331.19606018 371.03161621 C-332.5658905 371.16974731 -332.5658905 371.16974731 -333.96339417 371.31066895 C-371.276187 374.91427201 -409.11958859 373.17797485 -446.19606018 368.03161621 C-445.6138763 363.89023572 -444.24672604 361.08263975 -442.04762268 357.54333496 C-441.38125793 356.4602002 -440.71489319 355.37706543 -440.02833557 354.2611084 C-439.66950287 353.68534058 -439.31067017 353.10957275 -438.94096375 352.51635742 C-437.00183614 349.40441086 -435.08711568 346.27746074 -433.16871643 343.15270996 C-432.76489243 342.49646637 -432.36106842 341.84022278 -431.94500732 341.16409302 C-427.71361928 334.27569492 -423.59687399 327.32067361 -419.48603821 320.3598938 C-414.12423547 311.28167471 -408.76136302 302.21354228 -403.10475159 293.31481934 C-398.19754896 285.53799251 -393.56969647 277.58977759 -388.88795471 269.67614746 C-383.21628824 260.09123045 -377.49458022 250.54031351 -371.69606018 241.03161621 C-365.53636991 230.9301879 -359.46942732 220.77738623 -353.44606018 210.59411621 C-347.79008059 201.03249598 -342.06820633 191.52451793 -336.17848206 182.10437012 C-330.89093167 173.61219361 -325.80922458 165.0002881 -320.71656799 156.39050293 C-314.42525601 145.75614012 -308.05266688 135.17616431 -301.61988831 124.62683105 C-296.1573871 115.6577359 -290.79242099 106.63282073 -285.44606018 97.59411621 C-279.7965438 88.04342224 -274.09964157 78.53361076 -268.19166565 69.13952637 C-264.87609497 63.8377461 -261.69327934 58.47138767 -258.56324768 53.05895996 C-257.73081642 51.62782433 -256.89813222 50.1968358 -256.06520081 48.76599121 C-254.83464551 46.65196644 -253.60903883 44.53597701 -252.40089417 42.40905762 C-242.9255303 25.73063819 -233.59056522 14.66420098 -214.55152893 8.90661621 C-212.16678042 8.26438296 -209.77714573 7.64008742 -207.38356018 7.03161621 C-206.74222137 6.86552856 -206.10088257 6.69944092 -205.44010925 6.52832031 C-184.79058274 1.18925038 -163.92492508 -2.70973802 -142.75856018 -5.28088379 C-141.75543289 -5.40312317 -141.75543289 -5.40312317 -140.73204041 -5.52783203 C-93.69743781 -11.16531948 -46.47454997 -8.41434103 0 0 Z " fill="#017EB3" transform="translate(1110.196060180664,562.9683837890625)"/>
<path d="M0 0 C2.27880859 0.18139648 2.27880859 0.18139648 5 1 C6.82666016 3.17602539 6.82666016 3.17602539 8.5390625 6.09765625 C9.51866943 7.74060669 9.51866943 7.74060669 10.51806641 9.41674805 C11.22061782 10.63185984 11.92292168 11.8471148 12.625 13.0625 C13.36875555 14.32227168 14.11406752 15.5811256 14.86083984 16.83911133 C16.44199655 19.5084818 18.01363152 22.18313494 19.578125 24.86230469 C21.96918954 28.95427683 24.38718896 33.02981698 26.8125 37.1015625 C29.63120701 41.83558146 32.44649472 46.57155575 35.25387573 51.31230164 C39.6430428 58.72405909 44.06022062 66.11841559 48.5 73.5 C53.75272552 82.23318999 58.96409407 90.99001556 64.15805054 99.75820923 C70.60825712 110.64658238 77.10177531 121.50551295 83.6875 132.3125 C91.18556899 144.6186149 98.5504303 157.00064787 105.87841797 169.40869141 C109.72544049 175.9218516 113.57905409 182.43110101 117.4375 188.9375 C117.83773376 189.61244507 118.23796753 190.28739014 118.65032959 190.98278809 C124.88747391 201.49535119 131.20634021 211.95557978 137.56811523 222.39306641 C143.89888068 232.79042072 150.1178124 243.25309849 156.31835938 253.72851562 C157.06638498 254.99220009 157.81443162 256.2558721 158.5625 257.51953125 C158.92984253 258.14011917 159.29718506 258.76070709 159.67565918 259.40010071 C162.26836218 263.77605365 164.87970343 268.14052273 167.5 272.5 C170.49558632 277.48385972 173.47554459 282.4765457 176.4375 287.48046875 C176.80580933 288.10262772 177.17411865 288.72478668 177.55358887 289.36579895 C178.31088484 290.64514441 179.0681682 291.92449733 179.82543945 293.20385742 C186.32134733 304.174394 192.86432936 315.11342631 199.5 326 C206.43596799 337.38026398 213.26236351 348.82256874 220.0546875 360.2890625 C224.84466985 368.37463741 229.65611125 376.44654269 234.5 384.5 C239.75272552 393.23318999 244.96409407 401.99001556 250.15805054 410.75820923 C256.60825712 421.64658238 263.10177531 432.50551295 269.6875 443.3125 C277.18556899 455.6186149 284.5504303 468.00064787 291.87841797 480.40869141 C301.7565714 497.13279306 311.65523088 513.84301979 321.75 530.4375 C322.44251504 531.57719892 323.13497967 532.71692848 323.82739258 533.85668945 C326.98471784 539.05114393 330.14719611 544.24228714 333.32434082 549.42463684 C334.40826938 551.19547745 335.48857304 552.96846873 336.56738281 554.74243164 C337.91182658 556.95259638 339.2624823 559.15899754 340.62011719 561.36108398 C341.21211914 562.33762939 341.80412109 563.3141748 342.4140625 564.3203125 C342.9395166 565.17898926 343.4649707 566.03766602 344.00634766 566.92236328 C344.33425293 567.6079834 344.6621582 568.29360352 345 569 C344.67 569.66 344.34 570.32 344 571 C343.57332031 570.40316406 343.14664063 569.80632813 342.70703125 569.19140625 C333.55117765 556.4864795 324.07760236 543.9897628 314 532 C313.56929199 531.484375 313.13858398 530.96875 312.69482422 530.4375 C299.56687078 514.75239325 285.66272841 499.08124223 270.0703125 485.79296875 C267.6172589 483.66853176 265.25296853 481.45811363 262.875 479.25 C257.12361764 474.01213392 251.09113107 469.21659238 244.92285156 464.48144531 C242.92694116 462.94371241 240.94353559 461.39078651 238.9609375 459.8359375 C214.59249869 440.82633188 187.93570726 424.53665331 160.13769531 411.04003906 C158.66338505 410.32275243 157.19151501 409.60043584 155.72167969 408.87402344 C146.1375107 404.13957912 136.5928136 399.90747929 126.453125 396.515625 C123.32966671 395.47075715 120.24755772 394.34995173 117.171875 393.171875 C87.34721839 381.80186279 56.23860966 374.39025734 24.6875 369.75 C23.66495117 369.59877686 22.64240234 369.44755371 21.58886719 369.29174805 C1.26589761 366.49299384 -18.9990723 365.67298426 -39.49926758 365.73925781 C-43.43000742 365.74997956 -47.36028948 365.73929043 -51.29101562 365.7265625 C-105.75131871 365.69694818 -156.5525265 376.99715958 -208.0234375 393.921875 C-209.01358353 394.24707626 -210.00372955 394.57227753 -211.02388 394.90733337 C-215.83708292 396.49174397 -220.64414274 398.09197975 -225.44311523 399.71899414 C-227.17689695 400.29841053 -228.9107011 400.8777598 -230.64453125 401.45703125 C-231.43423309 401.73033264 -232.22393494 402.00363403 -233.03756714 402.28521729 C-236.80273075 403.53405482 -239.21115636 404.20457519 -243 403 C-242.58451904 402.319375 -242.16903809 401.63875 -241.7409668 400.9375 C-233.24400407 387.00706594 -224.8113028 373.0420655 -216.5 359 C-210.51104423 348.88420972 -204.4843496 338.7935909 -198.375 328.75 C-197.85338287 327.89239075 -197.85338287 327.89239075 -197.32122803 327.01745605 C-194.5364429 322.44038652 -191.74745795 317.86588018 -188.95825195 313.29150391 C-186.51182882 309.27888859 -184.06714645 305.26521976 -181.625 301.25 C-181.27741638 300.67858276 -180.92983276 300.10716553 -180.57171631 299.51843262 C-174.40630092 289.37582391 -168.34016098 279.17585992 -162.29354858 268.96209717 C-156.04590226 258.41121296 -149.72226519 247.90968912 -143.34375 237.4375 C-138.19339111 228.97959182 -133.08726738 220.4959906 -128 212 C-122.22342233 202.35282679 -116.41176035 192.72826326 -110.5625 183.125 C-104.47175627 173.12425435 -98.46494904 163.07624136 -92.5 153 C-85.85141722 141.76893593 -79.13299922 130.58402857 -72.34375 119.4375 C-67.19339111 110.97959182 -62.08726738 102.4959906 -57 94 C-50.88036842 83.77990962 -44.71844231 73.58690443 -38.52017212 63.41433716 C-32.252148 53.12185361 -26.10638496 42.75931085 -19.9744873 32.38531494 C-13.5132156 21.46237549 -6.88415808 10.66288756 0 0 Z " fill="#017BAF" transform="translate(1221,2)"/>
<path d="M0 0 C35.330625 -0.639375 70.66125 -1.27875 107.0625 -1.9375 C118.16140869 -2.21972412 129.26031738 -2.50194824 140.69555664 -2.79272461 C154.39343262 -2.93273926 154.39343262 -2.93273926 160.83396912 -2.95875549 C165.27595907 -2.98732356 169.7061313 -3.10198906 174.1448822 -3.27284241 C214.89721612 -4.77347525 214.89721612 -4.77347525 229.9835822 8.87964028 C235.95223615 14.66610043 241.20327469 21.01708587 246.27965355 27.58685398 C249.92051829 32.25980439 254.09774069 35.91614841 258.8948431 39.36051655 C264.65821153 43.52403862 269.85378582 47.82375994 271.80014038 54.91531754 C273.01187939 62.88903958 272.89348334 70.92630413 272.7488308 78.97005486 C272.69791643 82.49186568 272.71968937 86.01338598 272.73059082 89.53544617 C272.73772443 95.44110125 272.68907686 101.34424129 272.60546875 107.24926758 C272.509709 114.05562209 272.49946815 120.85802094 272.5353694 127.66486484 C272.5684157 134.24774246 272.54457074 140.8292185 272.49391174 147.41194725 C272.47322399 150.19869603 272.47143588 152.98448014 272.48521423 155.77126503 C272.50110996 159.66581486 272.43340456 163.55655037 272.35742188 167.45043945 C272.37138 168.59298187 272.38533813 169.73552429 272.39971924 170.91268921 C272.24511837 175.7772327 271.97375721 178.82198115 268.81117249 182.6479702 C266.2958245 184.91867222 263.70341734 186.96027176 261 189 C259.7685561 190.18477205 258.55456214 191.38856478 257.375 192.625 C255.0267111 195.01728495 252.60395483 197.25135536 250.0625 199.4375 C247.25423653 201.85617779 244.60029407 204.35899683 242 207 C238.80612534 210.24377895 235.47277473 213.23637671 232.01953125 216.19921875 C229.13467336 218.77159687 226.44994203 221.5253134 223.76171875 224.30078125 C222 226 222 226 219 228 C221.2821221 235.43831607 224.34933507 242.29282467 227.6875 249.3125 C228.86915879 251.82078322 230.04503325 254.33174157 231.21875 256.84375 C231.67975349 257.83016228 231.67975349 257.83016228 232.15007019 258.83650208 C235.77110746 266.61354981 239.22474089 274.46407749 242.6875 282.3125 C248.39880576 295.2452254 254.24157846 308.11098322 260.1875 320.9375 C267.1318639 335.92047106 273.98116586 350.93984427 280.68261719 366.03320312 C281.90187635 368.77902177 283.12636395 371.52245319 284.3515625 374.265625 C285.00573819 375.73934825 285.65943546 377.21328402 286.3125 378.6875 C286.84488281 379.88761719 287.37726563 381.08773438 287.92578125 382.32421875 C289 385 289 385 289 387 C254.68 387 220.36 387 185 387 C166.63820423 347.03609155 166.63820423 347.03609155 158.484375 328.78125 C154.31252382 319.44422325 150.09239984 310.12901719 145.875 300.8125 C145.27948334 299.49668945 145.27948334 299.49668945 144.67193604 298.15429688 C140.89626661 289.81187993 137.11889115 281.4702359 133.34082031 273.12890625 C131.14694772 268.2851841 128.95370636 263.44117651 126.76080322 258.59701538 C125.52581889 255.86952166 124.29002354 253.1423964 123.05419922 250.4152832 C122.29650789 248.74171805 121.53885605 247.06813501 120.78125 245.39453125 C120.44147125 244.64534424 120.1016925 243.89615723 119.75161743 243.12426758 C119.43204071 242.41786133 119.11246399 241.71145508 118.78320312 240.98364258 C118.50963989 240.37974197 118.23607666 239.77584137 117.95422363 239.15364075 C116.60780317 236.11482901 115.30928398 233.05499596 114 230 C106.08 229.67 98.16 229.34 90 229 C90 281.14 90 333.28 90 387 C60.3 387 30.6 387 0 387 C0 259.29 0 131.58 0 0 Z M90 77 C90 102.74 90 128.48 90 155 C119.7 155 149.4 155 180 155 C180 129.26 180 103.52 180 77 C150.3 77 120.6 77 90 77 Z " fill="#045891" transform="translate(419,1032)"/>
<path d="M0 0 C39.27 0 78.54 0 119 0 C131.43906801 39.35401049 143.86760661 78.71055322 156.19970703 118.09814453 C157.06150218 120.8505926 157.92332252 123.60303277 158.78515625 126.35546875 C158.99804291 127.03540138 159.21092957 127.71533401 159.43026733 128.41587067 C162.77847107 139.1089005 166.13473781 149.79937886 169.49609375 160.48828125 C169.72526426 161.21704279 169.95443478 161.94580433 170.19054985 162.69664955 C171.35014313 166.38404611 172.50984029 170.07140999 173.66958618 173.75875854 C181.32063486 198.0849559 188.94816107 222.41829685 196.54571533 246.76125336 C204.83657509 273.3241728 213.18994221 299.86724182 221.56081295 326.40504551 C222.68335197 329.96382698 223.80556303 333.52271106 224.92692566 337.0818634 C225.37070707 338.49028848 225.8144988 339.89871031 226.25830078 341.30712891 C226.4782499 342.00517104 226.69819902 342.70321318 226.92481327 343.4224081 C228.39135845 348.07471631 229.8626962 352.72548921 231.33627796 357.37557316 C232.37103822 360.64244935 233.4035294 363.91004012 234.43563652 367.17775536 C234.93120441 368.74485539 235.42779034 370.31163389 235.92543221 371.87807655 C236.61231373 374.04054484 237.29569103 376.20409085 237.97827148 378.36791992 C238.36949692 379.60297775 238.76072235 380.83803558 239.1638031 382.11051941 C240 385 240 385 240 387 C208.65 387 177.3 387 145 387 C143.12956134 382.01216359 141.40466222 377.24974225 139.9152832 372.17260742 C139.63664932 371.22711029 139.63664932 371.22711029 139.35238647 370.26251221 C138.74877005 368.21105436 138.14956759 366.15834114 137.55078125 364.10546875 C137.12923271 362.66672998 136.70753318 361.22803543 136.28569031 359.78938293 C135.4070906 356.79027473 134.53077307 353.79051139 133.65600586 350.7902832 C132.53437818 346.94432288 131.40629487 343.10029002 130.27644062 339.25673962 C129.4063048 336.29364729 128.53992158 333.32946785 127.67464256 330.36495399 C127.26003193 328.94640109 126.84416757 327.528214 126.42702675 326.11040306 C125.84632062 324.1348485 125.27076728 322.15786383 124.6965332 320.18041992 C124.36804886 319.05649338 124.03956451 317.93256683 123.7011261 316.77458191 C123 314 123 314 123 311 C60.135 311.495 60.135 311.495 -4 312 C-10.86671729 335.55999754 -10.86671729 335.55999754 -17.73217773 359.12036133 C-19.06066895 363.67712402 -19.06066895 363.67712402 -19.68275452 365.81034851 C-20.11708942 367.30015483 -20.55119607 368.79002771 -20.98512268 370.279953 C-21.64245851 372.53680846 -22.30051844 374.79345163 -22.95874023 377.05004883 C-23.15187774 377.7137766 -23.34501524 378.37750437 -23.54400539 379.0613451 C-24.32145935 381.72431873 -25.12260512 384.36781535 -26 387 C-57.02 387 -88.04 387 -120 387 C-119.30150268 381.41202142 -118.63076371 377.23613781 -116.96899414 372.03564453 C-116.76326499 371.38504436 -116.55753584 370.7344442 -116.34557247 370.06412888 C-115.66527639 367.91822467 -114.97521738 365.77559442 -114.28515625 363.6328125 C-113.79760259 362.10088608 -113.31072057 360.56874575 -112.82446289 359.03640747 C-111.78657385 355.76981557 -110.74457293 352.50457676 -109.69924927 349.24035645 C-108.0407698 344.0606777 -106.39216469 338.87789215 -104.74584961 333.69433594 C-104.47051927 332.82748421 -104.19518892 331.96063248 -103.91151524 331.06751251 C-103.35495496 329.31514093 -102.79843035 327.56275802 -102.24194145 325.81036377 C-101.40459714 323.17448446 -100.56640543 320.53887584 -99.7280426 317.90332031 C-95.10740846 303.37222143 -90.56472131 288.81825753 -86.0625 274.25 C-84.61784355 269.58052597 -83.17238414 264.91130087 -81.7265625 260.2421875 C-81.35685333 259.04811279 -80.98714417 257.85403809 -80.60623169 256.6237793 C-75.41366189 239.8647338 -70.17334486 223.12056396 -64.9375 206.375 C-64.40422257 204.66931249 -63.87094824 202.96362401 -63.337677 201.25793457 C-61.18106573 194.36007499 -59.02427006 187.46227309 -56.86714172 180.5645752 C-51.85104657 164.52494279 -46.83818061 148.48430224 -41.82600021 132.44344616 C-40.02682463 126.68555819 -38.22713516 120.92783099 -36.42724609 115.17016602 C-35.39807035 111.87777994 -34.36893818 108.58538025 -33.33984375 105.29296875 C-33.08478561 104.47695505 -32.82972748 103.66094135 -32.56694031 102.82019997 C-28.94763373 91.24009817 -25.33342333 79.65841472 -21.72244263 68.07571411 C-19.68105204 61.52775788 -17.63837152 54.98020425 -15.59539986 48.43274117 C-13.92570774 43.0811629 -12.25775551 37.72904644 -10.59109592 32.37652302 C-9.56474018 29.08181608 -8.53672839 25.78762762 -7.5082531 22.49358177 C-7.03167666 20.96597296 -6.55579555 19.43814703 -6.08065987 17.91008949 C-5.4306977 15.82009469 -4.77827261 13.73088411 -4.12524414 11.6418457 C-3.76096817 10.47305374 -3.3966922 9.30426178 -3.02137756 8.10005188 C-2.11961232 5.36304342 -1.07024946 2.67562366 0 0 Z M59 101 C58.74960464 101.82777954 58.49920929 102.65555908 58.2412262 103.50842285 C55.54053672 112.43640499 52.83948388 121.36427715 50.13821411 130.29208374 C49.09050826 133.75480833 48.0428864 137.21755832 46.99533081 140.68032837 C41.56912567 158.61667232 36.14028004 176.55218328 30.6875 194.48046875 C30.28343173 195.80937386 29.87937373 197.13828209 29.47532654 198.4671936 C27.61178253 204.5958808 25.74663621 210.72407516 23.87915039 216.8515625 C23.22276785 219.00909902 22.56643334 221.16665015 21.91015625 223.32421875 C21.61129517 224.30279343 21.31243408 225.2813681 21.0045166 226.28959656 C20.73755981 227.16815811 20.47060303 228.04671967 20.19555664 228.9519043 C19.96292618 229.7152861 19.73029572 230.47866791 19.49061584 231.2651825 C18.95464461 232.85990037 18.95464461 232.85990037 19 234 C45.4 234 71.8 234 99 234 C95.70093406 220.72838491 95.70093406 220.72838491 91.97900391 207.59667969 C91.70520401 206.68037277 91.43140411 205.76406586 91.14930725 204.81999207 C90.26181025 201.85291666 89.36925144 198.88739201 88.4765625 195.921875 C87.84615037 193.81798601 87.21606046 191.71400044 86.58627319 189.60992432 C84.93797685 184.10619273 83.28535817 178.60376862 81.6317749 173.10162354 C79.96542123 167.55421648 78.30320032 162.00557161 76.640625 156.45703125 C73.91379421 147.35870768 71.18410128 138.26124804 68.45191383 129.16453171 C65.63240592 119.77701533 62.81599499 110.38857066 60 101 C59.67 101 59.34 101 59 101 Z " fill="#045891" transform="translate(120,1032)"/>
<path d="M0 0 C34.65 0 69.3 0 105 0 C109.62 8.25 114.24 16.5 119 25 C124.17716203 33.89877137 124.17716203 33.89877137 129.375 42.78515625 C133.25236329 49.41498185 137.06841618 56.0793996 140.875 62.75 C141.54052292 63.91520435 142.20605027 65.08040617 142.87158203 66.24560547 C146.02962291 71.77753181 149.17978128 77.31380457 152.31655884 82.8578186 C153.77420933 85.43283463 155.23510024 88.00600469 156.6963501 90.57897949 C157.39115055 91.80452974 158.0843443 93.03099246 158.77581787 94.25842285 C159.73721004 95.96488366 160.70443212 97.66805597 161.671875 99.37109375 C162.2194043 100.33974365 162.76693359 101.30839355 163.33105469 102.30639648 C165.03636974 105.05869914 166.92764034 107.51570945 169 110 C178.430813 93.91581988 187.7359004 77.7635062 196.96777344 61.56445312 C198.97873997 58.03639936 200.99277539 54.51010513 203.0078125 50.984375 C203.33795349 50.40668365 203.66809448 49.82899231 204.00823975 49.23379517 C205.6612246 46.34160158 207.31475655 43.44972248 208.96875 40.55810547 C212.10659928 35.07074503 215.24010401 29.58106664 218.35906982 24.08294678 C219.83914772 21.47445398 221.32157786 18.86730168 222.80419922 16.26025391 C223.51306328 15.01222648 224.22076302 13.76353695 224.92724609 12.51416016 C225.90431384 10.78643548 226.88564906 9.06112625 227.8671875 7.3359375 C228.42519043 6.35157715 228.98319336 5.3672168 229.55810547 4.35302734 C231 2 231 2 233 0 C234.85468483 -0.24609566 234.85468483 -0.24609566 237.15078735 -0.24050903 C238.02019455 -0.24325836 238.88960175 -0.24600769 239.78535461 -0.24884033 C240.74129013 -0.24164978 241.69722565 -0.23445923 242.68212891 -0.22705078 C243.68703873 -0.22734283 244.69194855 -0.22763489 245.72731018 -0.22793579 C249.06048107 -0.22653856 252.39343049 -0.21095882 255.7265625 -0.1953125 C258.03298826 -0.19158377 260.3394156 -0.18873614 262.64584351 -0.18673706 C268.72534536 -0.17908959 274.80475211 -0.15943154 280.88421631 -0.1373291 C287.08425612 -0.11689463 293.28431125 -0.10774048 299.484375 -0.09765625 C311.65629185 -0.0761867 323.82813803 -0.04203735 336 0 C335.39915661 3.19572708 334.79720432 5.75748743 333.171875 8.58203125 C332.60049805 9.59040039 332.60049805 9.59040039 332.01757812 10.61914062 C331.59927734 11.34294922 331.18097656 12.06675781 330.75 12.8125 C329.83714912 14.42238827 328.92576767 16.03311036 328.015625 17.64453125 C327.52771484 18.50643066 327.03980469 19.36833008 326.53710938 20.25634766 C323.80111501 25.13994116 321.15545337 30.07229813 318.5 35 C314.76430646 41.91570875 311.01435387 48.82176893 307.1875 55.6875 C306.79916992 56.38423828 306.41083984 57.08097656 306.01074219 57.79882812 C305.6037207 58.52908203 305.19669922 59.25933594 304.77734375 60.01171875 C301.25443466 66.3335075 297.7494304 72.6651924 294.25 79 C293.90840851 79.61834717 293.56681702 80.23669434 293.21487427 80.8737793 C287.69846795 90.86588309 282.26573942 100.9004363 276.87036133 110.95849609 C273.22300421 117.75106451 269.51947669 124.50807557 265.75634766 131.23706055 C262.28189499 137.46147239 258.88738917 143.727857 255.5 150 C251.61733151 157.18585111 247.71660742 164.36010664 243.75 171.5 C243.15783691 172.57362793 243.15783691 172.57362793 242.55371094 173.66894531 C240.53871243 177.30662696 238.47084225 180.8983913 236.3125 184.453125 C235.88227539 185.17564453 235.45205078 185.89816406 235.00878906 186.64257812 C234.19451541 188.0058074 233.36406748 189.35955982 232.51464844 190.70117188 C230.80909677 193.58186237 229.92104081 195.41520852 230.375 198.77734375 C232.79759896 203.58177678 235.48845544 208.19600866 238.25 212.8125 C243.27736463 221.31634452 248.20279285 229.86421185 253 238.5 C257.55205144 246.68225687 262.19248972 254.80315105 266.9375 262.875 C272.57899163 272.47565504 278.01212614 282.17952252 283.39208984 291.92871094 C288.07243587 300.38751812 292.90186334 308.7483664 297.80078125 317.08203125 C301.95900223 324.17161071 306.00370254 331.31803796 310 338.5 C315.31526665 348.05218208 320.755472 357.52333116 326.29492188 366.94726562 C327.86965207 369.62785616 329.43692903 372.31259697 331 375 C331.74805908 376.27617188 331.74805908 376.27617188 332.51123047 377.578125 C332.97029785 378.37734375 333.42936523 379.1765625 333.90234375 380 C334.30831787 380.70125 334.71429199 381.4025 335.13256836 382.125 C336 384 336 384 336 387 C322.70927001 387.30148358 309.41935561 387.53232975 296.12590027 387.67355824 C289.9526578 387.74135081 283.7817575 387.83325452 277.60986328 387.98071289 C271.65093078 388.12218878 265.69424712 388.19973631 259.73376465 388.23340416 C257.46248965 388.25738785 255.19133517 388.30422905 252.92102051 388.37449074 C235.59772984 388.88918612 235.59772984 388.88918612 231.29076004 385.75696373 C228.14955164 382.29911075 226.62334369 378.35580614 225 374 C223.91427625 372.01759671 222.80164568 370.04938998 221.6484375 368.10546875 C220.55509929 366.13402678 219.46401234 364.16133486 218.375 362.1875 C213.67805035 353.73400729 208.89875419 345.33814383 204 337 C199.21103913 328.84611289 194.5332458 320.63930212 189.9375 312.375 C183.49618189 300.79355739 176.80509755 289.37091086 170 278 C167.61814975 281.03543676 165.67330138 284.17710726 163.76953125 287.53125 C162.8249707 289.19027344 162.8249707 289.19027344 161.86132812 290.8828125 C161.17836381 292.08852943 160.49542172 293.29425895 159.8125 294.5 C159.09729294 295.75797613 158.38179302 297.0157858 157.66601562 298.2734375 C156.17936538 300.88607504 154.69397743 303.4994241 153.20947266 306.11328125 C149.81809595 312.08225255 146.40810412 318.04056827 143 324 C141.67167704 326.32410565 140.34365169 328.6483813 139.015625 330.97265625 C138.34961486 332.13818673 137.68359922 333.30371406 137.01757812 334.46923828 C136.68604736 335.04941711 136.3545166 335.62959595 136.01293945 336.22735596 C126.34195964 353.15157064 116.67097982 370.07578532 107 387 C72.35 387 37.7 387 2 387 C6.8530603 377.29387939 11.70628305 367.65579407 16.875 358.125 C17.48230957 357.00134033 18.08961914 355.87768066 18.71533203 354.7199707 C22.84840464 347.08695147 27.03291484 339.48435759 31.265625 331.90625 C34.74189189 325.67947239 38.18191165 319.43265932 41.625 313.1875 C41.96445648 312.57181152 42.30391296 311.95612305 42.65365601 311.32177734 C42.99506622 310.70254395 43.33647644 310.08331055 43.68823242 309.4453125 C44.38460207 308.18229123 45.08097251 306.9192704 45.77734375 305.65625 C46.12552658 305.02468994 46.47370941 304.39312988 46.83244324 303.74243164 C49.26156398 299.33702421 51.69443368 294.93370177 54.12890625 290.53125 C55.48205315 288.08348928 56.83489977 285.63556285 58.1875 283.1875 C58.52079315 282.58430939 58.8540863 281.98111877 59.19747925 281.35964966 C63.73822338 273.13834606 68.23145948 264.89258162 72.6875 256.625 C76.8261047 248.94644075 81.05655649 241.32878625 85.375 233.75 C90.09425172 225.45438919 94.70739645 217.10617895 99.23175049 208.70300293 C99.90567032 207.45178954 100.58106439 206.20136897 101.25799561 204.95178223 C102.20274315 203.20606966 103.14057779 201.45662135 104.078125 199.70703125 C104.88878418 198.19846558 104.88878418 198.19846558 105.71582031 196.65942383 C107.31684052 193.44916745 107.31684052 193.44916745 108 190 C107.07316024 187.52791979 107.07316024 187.52791979 105.52734375 184.984375 C104.96466797 183.99308594 104.40199219 183.00179688 103.82226562 181.98046875 C103.20029297 180.91441406 102.57832031 179.84835937 101.9375 178.75 C100.98327148 177.08130859 100.98327148 177.08130859 100.00976562 175.37890625 C98.02086324 171.91057401 96.01380188 168.45392448 94 165 C93.40074707 163.97068359 92.80149414 162.94136719 92.18408203 161.88085938 C89.87905796 157.92569898 87.57075854 153.97251574 85.25366211 150.02441406 C81.07877075 142.89867717 77.01617197 135.71622643 73 128.5 C67.90248967 119.34420181 62.68915204 110.26554925 57.38842773 101.22607422 C52.89448663 93.55513437 48.46527921 85.84849698 44.0625 78.125 C38.89945417 69.06910267 33.71595566 60.02557794 28.5 51 C23.46733432 42.28314692 18.43563959 33.56572077 13.42797852 24.83447266 C12.73837299 23.63305927 12.04781613 22.43219133 11.35620117 21.23193359 C10.38843637 19.55199499 9.42463725 17.86977383 8.4609375 16.1875 C7.91228027 15.23230469 7.36362305 14.27710938 6.79833984 13.29296875 C4.41294608 8.92503621 2.22571059 4.45142117 0 0 Z " fill="#045891" transform="translate(2110,1032)"/>
<path d="M0 0 C76.56 0 153.12 0 232 0 C232 25.41 232 50.82 232 77 C185.14 77 138.28 77 90 77 C90 102.74 90 128.48 90 155 C129.6 155 169.2 155 210 155 C210 180.41 210 205.82 210 232 C170.4 232 130.8 232 90 232 C90 257.41 90 282.82 90 309 C137.19 309 184.38 309 233 309 C233 334.74 233 360.48 233 387 C156.11 387 79.22 387 0 387 C0 259.29 0 131.58 0 0 Z " fill="#045891" transform="translate(1818,1032)"/>
<path d="M0 0 C76.89 0 153.78 0 233 0 C233 25.41 233 50.82 233 77 C185.81 77 138.62 77 90 77 C90 102.74 90 128.48 90 155 C128.94 155 167.88 155 208 155 C208 180.41 208 205.82 208 232 C169.06 232 130.12 232 90 232 C90 283.15 90 334.3 90 387 C60.3 387 30.6 387 0 387 C0 259.29 0 131.58 0 0 Z " fill="#045891" transform="translate(1233,1032)"/>
<path d="M0 0 C85.14 0 170.28 0 258 0 C258 25.41 258 50.82 258 77 C230.28 77 202.56 77 174 77 C174 179.3 174 281.6 174 387 C144.63 387 115.26 387 85 387 C85 284.7 85 182.4 85 77 C56.95 77 28.9 77 0 77 C0 51.59 0 26.18 0 0 Z " fill="#045891" transform="translate(767,1032)"/>
<path d="M0 0 C29.7 0 59.4 0 90 0 C90 101.97 90 203.94 90 309 C137.52 309 185.04 309 234 309 C234 334.74 234 360.48 234 387 C156.78 387 79.56 387 0 387 C0 259.29 0 131.58 0 0 Z " fill="#045891" transform="translate(1525,1032)"/>
<path d="M0 0 C29.7 0 59.4 0 90 0 C90 127.71 90 255.42 90 387 C60.63 387 31.26 387 1 387 C0 386 0 386 -0.1241985 383.40075821 C-0.12381878 382.22856155 -0.12343906 381.05636489 -0.12304783 379.84864712 C-0.12420167 379.19578103 -0.12535552 378.54291494 -0.12654433 377.87026504 C-0.12921734 375.65538278 -0.12468326 373.44057141 -0.12025452 371.22569275 C-0.12069008 369.63265658 -0.12156471 368.03962048 -0.12284368 366.44658476 C-0.12509159 362.04782756 -0.12106335 357.64909447 -0.11606562 353.25034034 C-0.11176552 348.51479902 -0.11320723 343.77925916 -0.1139679 339.04371643 C-0.11449341 330.83202222 -0.11134374 322.62033594 -0.10573006 314.40864372 C-0.09761878 302.53577058 -0.09500022 290.66290128 -0.09374207 278.79002566 C-0.09155096 259.52920439 -0.08488929 240.26838734 -0.07543945 221.00756836 C-0.06626685 202.2923993 -0.05918528 183.57723139 -0.05493164 164.86206055 C-0.05466892 163.70934298 -0.05440619 162.55662541 -0.05413551 161.368977 C-0.05283051 155.58639614 -0.0515668 149.80381527 -0.05032361 144.02123439 C-0.03994917 96.01415251 -0.02150988 48.00707844 0 0 Z " fill="#045891" transform="translate(1084,1032)"/>
<path d="M0 0 C8.25 0 16.5 0 25 0 C29.49943376 10.12372597 29.49943376 10.12372597 30.70068359 13.77734375 C31.1137249 15.02158112 31.1137249 15.02158112 31.53511047 16.29095459 C31.82000839 17.16431458 32.10490631 18.03767456 32.3984375 18.9375 C32.71004318 19.87934143 33.02164886 20.82118286 33.34269714 21.79156494 C34.0105045 23.81113407 34.67634033 25.83135603 35.34036255 27.85217285 C37.10890356 33.23286095 38.89311839 38.60835251 40.67578125 43.984375 C41.03717697 45.07538513 41.39857269 46.16639526 41.7709198 47.29046631 C45.31028739 57.96347179 48.92316264 68.61072953 52.5625 79.25 C52.83946716 80.06098145 53.11643433 80.87196289 53.40179443 81.70751953 C54.20559916 84.06058771 55.01065703 86.41322201 55.81640625 88.765625 C56.19928802 89.88439026 56.19928802 89.88439026 56.58990479 91.02575684 C58.02127595 95.19462677 59.47734005 99.35370449 60.95654297 103.50585938 C61.44319679 104.87723053 61.44319679 104.87723053 61.93968201 106.27630615 C62.56861096 108.04554953 63.20146987 109.81340215 63.83876038 111.57965088 C64.12134201 112.3754657 64.40392365 113.17128052 64.69506836 113.99121094 C65.07350136 115.04547272 65.07350136 115.04547272 65.45957947 116.12103271 C66 118 66 118 66 121 C66.66 121 67.32 121 68 121 C68.14332764 120.42781738 68.28665527 119.85563477 68.43432617 119.26611328 C70.94323358 109.65578406 74.15153637 100.28515508 77.3125 90.875 C77.93328746 89.02021596 78.55397244 87.16539762 79.17456055 85.31054688 C85.44338253 66.5976634 91.81581053 47.92020388 98.22607422 29.25537109 C99.20876919 26.39160574 100.18843059 23.52680755 101.16804504 20.6619873 C102.21349486 17.60706315 103.26310451 14.55357061 104.3125 11.5 C104.67964111 10.42556641 105.04678223 9.35113281 105.42504883 8.24414062 C105.75529053 7.28701172 106.08553223 6.32988281 106.42578125 5.34375 C106.70848877 4.52068359 106.99119629 3.69761719 107.2824707 2.84960938 C108 1 108 1 109 0 C117.25 0 125.5 0 134 0 C134 42.57 134 85.14 134 129 C129.71 129 125.42 129 121 129 C121 89.07 121 49.14 121 8 C120.34 8 119.68 8 119 8 C118.8349775 8.81530575 118.8349775 8.81530575 118.66662121 9.64708233 C117.47493216 15.2924073 115.89984427 20.69232167 114.03833008 26.1496582 C113.74692139 27.01617508 113.4555127 27.88269196 113.15527344 28.77546692 C112.19781297 31.61876287 111.23376671 34.45977647 110.26953125 37.30078125 C109.59375792 39.30254219 108.91836491 41.30443155 108.24333191 43.30644226 C106.82802519 47.5009014 105.40973885 51.69433601 103.98901367 55.88696289 C102.18775817 61.2025751 100.39138528 66.51981908 98.59698963 71.83775043 C96.86445458 76.97180756 95.12965789 82.10509951 93.39453125 87.23828125 C93.07295359 88.19006067 92.75137592 89.1418401 92.42005348 90.12246132 C88.02905755 103.11134013 83.54796778 116.06517466 79 129 C71.08 129 63.16 129 55 129 C54.17910889 126.56238281 53.35821777 124.12476563 52.51245117 121.61328125 C49.75139212 113.41486954 46.9892175 105.21683397 44.22654247 97.01896667 C42.55717164 92.06522611 40.88813775 87.11137264 39.2199707 82.15722656 C37.60641968 77.36538263 35.99203993 72.57381873 34.37692642 67.78250122 C33.7378897 65.88662998 33.09904218 63.99069496 32.46038437 62.09469604 C29.20597176 52.435469 25.93716159 42.78202049 22.59619141 33.15234375 C22.333583 32.39430954 22.0709746 31.63627533 21.80040836 30.85527039 C20.58605504 27.35168043 19.36682273 23.84994035 18.13822937 20.35131836 C17.51160149 18.54932983 17.51160149 18.54932983 16.87231445 16.7109375 C16.50813919 15.67243652 16.14396393 14.63393555 15.76875305 13.56396484 C15 11 15 11 15 8 C14.34 8 13.68 8 13 8 C13 47.93 13 87.86 13 129 C8.71 129 4.42 129 0 129 C0 86.43 0 43.86 0 0 Z " fill="#045891" transform="translate(528,1519)"/>
<path d="M0 0 C8.58 0 17.16 0 26 0 C27.0003125 2.14757813 28.000625 4.29515625 29.03125 6.5078125 C31.55791511 11.9264132 34.09923723 17.3378448 36.65625 22.7421875 C44.31447644 38.93607248 51.85989022 55.17449587 59.24057007 71.4967804 C59.54532257 72.17073349 59.85007507 72.84468658 60.1640625 73.5390625 C60.46970123 74.2151506 60.77533997 74.89123871 61.09024048 75.58781433 C63.52705642 80.9714747 65.99059671 86.34258971 68.4609375 91.7109375 C69.20510976 93.33014497 69.94925069 94.94936683 70.69335938 96.56860352 C71.77549865 98.92317045 72.85869785 101.27721569 73.94555664 103.62960815 C74.94330993 105.78944678 75.93688945 107.95116143 76.9296875 110.11328125 C77.22684662 110.75337128 77.52400574 111.3934613 77.83016968 112.052948 C79.17805226 114.99778222 80.37444936 117.81326064 81 121 C81.66 121 82.32 121 83 121 C83 81.07 83 41.14 83 0 C87.29 0 91.58 0 96 0 C96 42.57 96 85.14 96 129 C87.42 129 78.84 129 70 129 C59.25911978 105.87208292 48.55636475 82.7281397 37.97714233 59.52580261 C35.51896293 54.13504409 33.05537526 48.74677451 30.58984375 43.359375 C29.85636078 41.7563491 29.12288093 40.15332177 28.3894043 38.55029297 C27.33407556 36.24390513 26.27864419 33.93756465 25.22280884 31.63140869 C24.25746136 29.5227085 23.29273098 27.41372696 22.328125 25.3046875 C21.7805957 24.10827637 21.23306641 22.91186523 20.66894531 21.67919922 C18.75644852 17.4630894 16.88025995 13.23058489 15 9 C14.67 48.6 14.34 88.2 14 129 C9.38 129 4.76 129 0 129 C0 86.43 0 43.86 0 0 Z " fill="#045891" transform="translate(1089,1519)"/>
<path d="M0 0 C8.58 0 17.16 0 26 0 C30.54585426 8.97009969 34.89435171 17.98646512 39.02243042 27.1552124 C40.30772518 30.00973696 41.59938339 32.86137016 42.89051819 35.71325684 C43.5699686 37.21417808 44.24911495 38.715237 44.92796326 40.21643066 C48.24763671 47.55573283 51.59402789 54.8827103 54.94580078 62.20739746 C55.9358436 64.37137953 56.9250572 66.5357389 57.9140625 68.70019531 C61.06425681 75.59284136 64.22019577 82.48276495 67.38938904 89.36669922 C68.88139469 92.60842657 70.37088351 95.8513073 71.86013794 99.09429932 C72.57296036 100.6446472 73.2870324 102.19442121 74.00241089 103.74359131 C74.99298261 105.88885106 75.97934699 108.03599898 76.96484375 110.18359375 C77.25883057 110.81733414 77.55281738 111.45107452 77.85571289 112.10401917 C79.19468068 115.03233511 80.3755623 117.83261224 81 121 C81.66 121 82.32 121 83 121 C83 81.07 83 41.14 83 0 C87.29 0 91.58 0 96 0 C96 42.57 96 85.14 96 129 C87.42 129 78.84 129 70 129 C59.51565685 106.44004095 49.08199577 83.86007088 38.81452942 61.20057678 C34.35585885 51.36612692 29.85720234 41.54989216 25.36450195 31.73095703 C25.04323837 31.02874023 24.72197479 30.32652344 24.39097595 29.60302734 C23.52695182 27.71459501 22.66265702 25.82628651 21.79833984 23.93798828 C19.52579527 18.96159078 17.26380812 13.98037787 15 9 C14.67 48.6 14.34 88.2 14 129 C9.38 129 4.76 129 0 129 C0 86.43 0 43.86 0 0 Z " fill="#045891" transform="translate(45,1519)"/>
<path d="M0 0 C8.58 0 17.16 0 26 0 C32.0234375 13.17626953 38.046875 26.35253906 44.0703125 39.52880859 C44.56632462 40.61383415 44.56632462 40.61383415 45.07235718 41.72077942 C45.73221018 43.16420912 46.39206125 44.6076397 47.0519104 46.05107117 C48.69260211 49.64010651 50.33332761 53.22912641 51.97412109 56.81811523 C55.06863691 63.58699377 58.16283822 70.35601553 61.25592041 77.12554932 C62.69864722 80.28305632 64.14155361 83.44048124 65.58447266 86.59790039 C66.26490039 88.08695469 66.94524247 89.57604813 67.62548828 91.06518555 C68.2664139 92.46823644 68.90750305 93.87121264 69.54876709 95.27410889 C70.15934765 96.61042918 70.76926964 97.94705062 71.378479 99.28399658 C72.82856853 102.46174161 74.29362031 105.63083445 75.79199219 108.78613281 C76.34274414 109.95241211 76.89349609 111.11869141 77.4609375 112.3203125 C77.95126465 113.34656738 78.4415918 114.37282227 78.94677734 115.43017578 C80 118 80 118 80 121 C80.66 121 81.32 121 82 121 C82 81.07 82 41.14 82 0 C86.29 0 90.58 0 95 0 C95 42.57 95 85.14 95 129 C86.75 129 78.5 129 70 129 C64.41009962 117.95135891 59.07603787 106.82680456 53.9375 95.5625 C53.19566668 93.94164415 52.45363793 92.32087773 51.71142578 90.70019531 C49.46973462 85.80220155 47.2338992 80.9015517 45 76 C44.66425964 75.26344177 44.32851929 74.52688354 43.98260498 73.76800537 C40.86528654 66.92778772 37.7530919 60.0852683 34.64898682 53.23904419 C34.34845398 52.57621429 34.04792114 51.9133844 33.73828125 51.23046875 C33.43823181 50.56868622 33.13818237 49.90690369 32.82904053 49.22506714 C30.83218098 44.82433513 28.82485529 40.42849519 26.81158447 36.0352478 C25.40007547 32.95471886 23.99125607 29.87296318 22.58258057 26.7911377 C21.90679126 25.31469597 21.22968363 23.83885689 20.5512085 22.36364746 C19.61539587 20.32859403 18.68416136 18.29150473 17.75390625 16.25390625 C16.95448608 14.51089233 16.95448608 14.51089233 16.13891602 12.73266602 C15 10 15 10 15 8 C14.34 8 13.68 8 13 8 C13 47.93 13 87.86 13 129 C8.71 129 4.42 129 0 129 C0 86.43 0 43.86 0 0 Z " fill="#045891" transform="translate(1738,1519)"/>
<path d="M0 0 C10.34590428 11.08636661 13.33843095 22.10903813 13 37 C8.71 37 4.42 37 0 37 C-0.17015625 35.9378125 -0.3403125 34.875625 -0.515625 33.78125 C-2.34039084 22.90595424 -3.94914031 14.74723445 -12.84765625 7.47265625 C-22.09585568 1.14494085 -34.33953577 0.76538203 -45.078125 2.49609375 C-54.35274982 4.78884318 -62.34018864 9.25929839 -67.56640625 17.45703125 C-77.63686524 35.58385743 -77.22434642 66.22747359 -72 86 C-68.56789755 95.28751047 -63.76768474 102.91628379 -54.6875 107.3125 C-42.57973437 112.09404134 -30.27403541 112.38358407 -18 108 C-10.38817266 104.30906862 -6.19351271 99.45613245 -3.0703125 91.6875 C-0.80217888 84.94790295 -0.61361492 79.36337902 0 72 C-14.52 72 -29.04 72 -44 72 C-44 68.37 -44 64.74 -44 61 C-25.19 61 -6.38 61 13 61 C13 80.8 13 100.6 13 121 C9.04 121 5.08 121 1 121 C0.67 116.38 0.34 111.76 0 107 C-1.32 108.5675 -2.64 110.135 -4 111.75 C-7.9594395 116.14386077 -11.39857857 119.09841044 -17 121 C-18.49273438 121.52980469 -18.49273438 121.52980469 -20.015625 122.0703125 C-32.60251469 125.56722794 -49.15869589 124.38080187 -61 119 C-61.81082031 118.649375 -62.62164063 118.29875 -63.45703125 117.9375 C-73.95834661 112.78523625 -81.0740236 103.89755873 -85 93 C-88.454081 82.38728202 -88.43145352 71.98610818 -88.33618164 60.93457031 C-88.31254502 58.00557911 -88.31564655 55.07750042 -88.32226562 52.1484375 C-88.29875423 36.07405386 -87.99562173 20.4316167 -78 7 C-77.195625 5.7934375 -77.195625 5.7934375 -76.375 4.5625 C-67.35971831 -5.16451446 -53.8461515 -10.27344874 -40.67578125 -11.00390625 C-26.21801984 -10.98280003 -11.38456435 -10.0478249 0 0 Z " fill="#045891" transform="translate(2310,1527)"/>
<path d="M0 0 C76.29411765 0 76.29411765 0 89 12 C95.19967317 19.08534077 97.69053986 28.25573079 97.28125 37.65234375 C96.24974385 46.26255479 94.383494 53.8361531 88 60 C84.22142217 62.95181209 80.56401002 65.47866333 76 67 C76.59167969 67.21914062 77.18335938 67.43828125 77.79296875 67.6640625 C83.41094015 69.91858284 86.66816402 71.89812615 90 77 C90.86358841 80.33507841 91.12278673 83.44612186 91.11352539 86.88208008 C91.11341209 88.29297661 91.11341209 88.29297661 91.11329651 89.7323761 C91.10813522 90.7346373 91.10297394 91.7368985 91.09765625 92.76953125 C91.0962413 93.80567062 91.09482635 94.84181 91.09336853 95.90934753 C91.08778242 99.21042804 91.07523242 102.51144008 91.0625 105.8125 C91.05748321 108.05403548 91.05292061 110.29557202 91.04882812 112.53710938 C91.03781753 118.02476586 91.02056239 123.51237133 91 129 C86.38 129 81.76 129 77 129 C76.970271 126.8957666 76.970271 126.8957666 76.93994141 124.74902344 C76.86388312 119.54555272 76.77516575 114.34236156 76.68261719 109.13916016 C76.64432843 106.88693764 76.60947539 104.634654 76.578125 102.38232422 C76.53247263 99.14528553 76.47447785 95.90866764 76.4140625 92.671875 C76.40251129 91.66445251 76.39096008 90.65703003 76.37905884 89.61907959 C76.35918915 88.67840637 76.33931946 87.73773315 76.31884766 86.76855469 C76.30552399 85.94248718 76.29220032 85.11641968 76.2784729 84.26531982 C75.96324322 81.70099112 75.4437391 80.14431451 74 78 C70.85970653 75.81713157 68.07363935 75.73106601 64.31347656 75.68115234 C63.17259583 75.66128265 62.03171509 75.64141296 60.85626221 75.62094116 C59.63010193 75.60938995 58.40394165 75.59783875 57.140625 75.5859375 C55.88111023 75.56657135 54.62159546 75.5472052 53.32391357 75.5272522 C49.9833905 75.47761586 46.64297675 75.43633723 43.30230713 75.39910889 C39.89023993 75.35902661 36.47833641 75.30805946 33.06640625 75.2578125 C26.37766676 75.16010724 19.68905646 75.08053997 13 75 C13 92.82 13 110.64 13 129 C8.71 129 4.42 129 0 129 C0 86.43 0 43.86 0 0 Z M13 11 C13 28.16 13 45.32 13 63 C20.321875 63.0825 27.64375 63.165 35.1875 63.25 C37.47067139 63.28641602 39.75384277 63.32283203 42.10620117 63.36035156 C60.00961744 63.58663356 60.00961744 63.58663356 76.0625 56.3125 C81.66183269 50.69923862 83.24111011 44.74595311 83.5 36.9375 C83.26320261 29.35998348 81.47017777 25.01910616 76.75 19.25 C64.19895976 8.98096708 46.95152099 10.72878667 31.625 10.875 C25.47875 10.91625 19.3325 10.9575 13 11 Z " fill="#045891" transform="translate(406,1519)"/>
<path d="M0 0 C12.32547319 11.72907933 15.82164389 26.0765953 16.37060547 42.51855469 C16.45398614 46.40933997 16.46120999 50.29843019 16.44042969 54.18994141 C16.4296966 56.57219881 16.44040409 58.95370252 16.453125 61.3359375 C16.47074124 79.17542726 15.67863909 96.38099137 2.5625 109.88671875 C-11.44359546 122.7447736 -27.54286248 123.9355281 -45.71728516 123.29638672 C-58.65707739 122.36993425 -69.70892695 116.64853506 -78.6328125 107.32421875 C-87.2107972 96.88497322 -89.13031146 84.78314829 -89.15625 71.71875 C-89.1629068 70.54011887 -89.1695636 69.36148773 -89.17642212 68.1471405 C-89.18651529 65.66020255 -89.19124018 63.17323771 -89.19091797 60.6862793 C-89.19527859 56.91604019 -89.23160188 53.14698457 -89.26953125 49.37695312 C-89.27540286 46.94922271 -89.27936995 44.52148679 -89.28125 42.09375 C-89.29562103 40.98288528 -89.30999207 39.87202057 -89.32479858 38.72749329 C-89.24934094 25.55284864 -85.26207574 12.85082787 -76.3828125 2.94921875 C-69.35568869 -3.71788164 -59.33921955 -8.33929674 -49.8203125 -9.92578125 C-49.11390625 -10.04566406 -48.4075 -10.16554688 -47.6796875 -10.2890625 C-31.68154776 -12.48748236 -13.06623188 -10.14062777 0 0 Z M-67.6328125 13.76171875 C-74.81423842 22.42608413 -75.97369277 33.20406097 -76.0234375 44.01953125 C-76.02913757 44.98519012 -76.03483765 45.950849 -76.04071045 46.94577026 C-76.05014187 48.98824983 -76.05668704 51.03074449 -76.06054688 53.07324219 C-76.07021371 56.16759518 -76.10123907 59.26127254 -76.1328125 62.35546875 C-76.13934734 64.34765234 -76.14459592 66.33984065 -76.1484375 68.33203125 C-76.1607843 69.24389191 -76.1731311 70.15575256 -76.18585205 71.09524536 C-76.14620289 82.77378483 -72.89459702 93.39889976 -64.96484375 102.11328125 C-56.4835248 109.86851278 -45.78882454 112.6079726 -34.52734375 112.32421875 C-23.05080162 111.26433607 -13.38654086 108.03422602 -5.8203125 99.07421875 C0.79872216 89.5335653 2.49089586 81.35677685 2.48046875 69.92578125 C2.48689644 68.34692642 2.48689644 68.34692642 2.49345398 66.73617554 C2.49917309 64.51911129 2.49971548 62.30202829 2.49536133 60.08496094 C2.49220367 56.71646698 2.51568387 53.34885425 2.54101562 49.98046875 C2.54328928 47.81640735 2.54399181 45.65234361 2.54296875 43.48828125 C2.5521785 42.49317535 2.56138824 41.49806946 2.57087708 40.47280884 C2.49820479 29.33720569 -0.5739769 18.33398733 -8.63671875 10.25390625 C-26.15183048 -3.82895126 -52.14481456 -2.28529398 -67.6328125 13.76171875 Z " fill="#045891" transform="translate(1950.8203125,1526.92578125)"/>
<path d="M0 0 C12.32547319 11.72907933 15.82164389 26.0765953 16.37060547 42.51855469 C16.45398614 46.40933997 16.46120999 50.29843019 16.44042969 54.18994141 C16.4296966 56.57219881 16.44040409 58.95370252 16.453125 61.3359375 C16.47074124 79.17542726 15.67863909 96.38099137 2.5625 109.88671875 C-11.44359546 122.7447736 -27.54286248 123.9355281 -45.71728516 123.29638672 C-58.65707739 122.36993425 -69.70892695 116.64853506 -78.6328125 107.32421875 C-87.2107972 96.88497322 -89.13031146 84.78314829 -89.15625 71.71875 C-89.1629068 70.54011887 -89.1695636 69.36148773 -89.17642212 68.1471405 C-89.18651529 65.66020255 -89.19124018 63.17323771 -89.19091797 60.6862793 C-89.19527859 56.91604019 -89.23160188 53.14698457 -89.26953125 49.37695312 C-89.27540286 46.94922271 -89.27936995 44.52148679 -89.28125 42.09375 C-89.29562103 40.98288528 -89.30999207 39.87202057 -89.32479858 38.72749329 C-89.24934094 25.55284864 -85.26207574 12.85082787 -76.3828125 2.94921875 C-69.35568869 -3.71788164 -59.33921955 -8.33929674 -49.8203125 -9.92578125 C-49.11390625 -10.04566406 -48.4075 -10.16554688 -47.6796875 -10.2890625 C-31.68154776 -12.48748236 -13.06623188 -10.14062777 0 0 Z M-67.6328125 13.76171875 C-74.81423842 22.42608413 -75.97369277 33.20406097 -76.0234375 44.01953125 C-76.02913757 44.98519012 -76.03483765 45.950849 -76.04071045 46.94577026 C-76.05014187 48.98824983 -76.05668704 51.03074449 -76.06054688 53.07324219 C-76.07021371 56.16759518 -76.10123907 59.26127254 -76.1328125 62.35546875 C-76.13934734 64.34765234 -76.14459592 66.33984065 -76.1484375 68.33203125 C-76.1607843 69.24389191 -76.1731311 70.15575256 -76.18585205 71.09524536 C-76.14536703 83.01998531 -72.76240091 93.38402711 -64.70703125 102.25 C-56.81052879 109.8849206 -45.32499041 112.43372795 -34.66796875 112.2890625 C-23.15751965 111.42064727 -14.54132412 108.17949598 -6.5703125 99.88671875 C-0.9058702 93.23183369 2.26900129 85.02605224 2.34082031 76.28076172 C2.35042786 75.33232391 2.3600354 74.38388611 2.36993408 73.40670776 C2.37418396 72.38690826 2.37843384 71.36710876 2.3828125 70.31640625 C2.38851257 69.25817657 2.39421265 68.1999469 2.40008545 67.10964966 C2.40952926 64.86868283 2.41606697 62.62770216 2.41992188 60.38671875 C2.42959204 56.98282104 2.46060728 53.57953641 2.4921875 50.17578125 C2.4987216 47.99349315 2.50397047 45.81120075 2.5078125 43.62890625 C2.5263327 42.11742508 2.5263327 42.11742508 2.54522705 40.57540894 C2.51053538 29.39316708 -0.53657382 18.37147085 -8.63671875 10.25390625 C-26.15183048 -3.82895126 -52.14481456 -2.28529398 -67.6328125 13.76171875 Z " fill="#045891" transform="translate(361.8203125,1526.92578125)"/>
<path d="M0 0 C10.30470122 11.0128442 12.62613838 25.23295362 12.61328125 39.7109375 C12.61756638 40.80032623 12.6218515 41.88971497 12.62626648 43.01211548 C12.6319767 45.30299183 12.63253464 47.59388631 12.62817383 49.88476562 C12.6250151 53.3583926 12.64851163 56.83116552 12.67382812 60.3046875 C12.67610182 62.54426977 12.67680429 64.78385431 12.67578125 67.0234375 C12.684991 68.04569427 12.69420074 69.06795105 12.70368958 70.1211853 C12.61769779 83.75933014 8.86655169 97.01302562 -0.62890625 107.12109375 C-14.07110834 119.3899727 -29.37397804 120.86887 -46.7890625 120.3828125 C-60.45930001 119.69779272 -72.41414758 114.27750671 -81.8671875 104.26953125 C-91.36092699 92.43291614 -92.81489655 79.14425485 -92.890625 64.49609375 C-92.89632507 63.61454117 -92.90202515 62.73298859 -92.90789795 61.82472229 C-92.91728462 59.96836523 -92.92385649 58.11199198 -92.92773438 56.25561523 C-92.93739109 53.46892886 -92.96845551 50.68299688 -93 47.89648438 C-93.10269506 30.60544362 -92.20362055 13.16455748 -79.75 -0.12109375 C-58.52051985 -19.4608285 -21.35552507 -18.79854424 0 0 Z M-69.7265625 8.96875 C-83.83266744 25.53592006 -80.67724366 52.61091557 -79.44921875 72.87109375 C-78.38594456 83.19237147 -74.93543358 93.23246476 -66.6875 100 C-65.98625 100.680625 -65.285 101.36125 -64.5625 102.0625 C-54.35925968 108.93859674 -42.20510295 110.05455448 -30.3125 108.375 C-20.43464467 106.3828275 -12.32809744 101.38383881 -6.6875 93 C-0.01854826 81.59147879 -0.34003412 68.59838937 -0.37182617 55.79443359 C-0.3749854 53.13727721 -0.35146045 50.48123823 -0.32617188 47.82421875 C-0.2704443 33.11437186 -1.22321453 19.46543751 -11.50390625 7.96875 C-20.41181819 -0.52525896 -31.15340642 -2.33516799 -43.0546875 -2.2109375 C-53.13646792 -1.6255438 -62.39596836 1.89093496 -69.7265625 8.96875 Z " fill="#045891" transform="translate(2185.6875,1530)"/>
<path d="M0 0 C13.20636137 14.08868292 13.43993483 32.28626939 13.32861328 50.48876953 C13.31252953 53.61535264 13.32853516 56.74064346 13.34765625 59.8671875 C13.36554697 76.47711498 12.70285637 93.61850822 0.69921875 106.46875 C-11.87288868 118.26032747 -26.14448942 120.89151654 -42.82885742 120.71069336 C-56.72199348 120.22149099 -68.62057825 116.80817778 -79.0625 107.12109375 C-81.3888852 104.60937807 -83.2842057 102.04257725 -85.0625 99.12109375 C-85.62710938 98.23550781 -85.62710938 98.23550781 -86.203125 97.33203125 C-93.18125206 85.0942711 -92.53682695 70.35991948 -92.45361328 56.75341797 C-92.43752953 53.62683486 -92.45353516 50.50154404 -92.47265625 47.375 C-92.49114037 30.13462309 -91.5494041 13.25448282 -79.125 0 C-58.23746796 -19.02822521 -20.89350385 -19.03366544 0 0 Z M-70.0625 10.12109375 C-79.45924823 21.64747885 -79.55826875 37.40846017 -79.39868164 51.62255859 C-79.37486252 53.88414761 -79.37818387 56.14456499 -79.38476562 58.40625 C-79.35854857 72.25668073 -78.87614644 87.81132866 -68.8984375 98.5234375 C-59.17852682 106.98182786 -47.72655623 109.88739015 -35.0625 109.12109375 C-24.72515903 108.07540897 -16.54903479 104.43748002 -9.0625 97.12109375 C-1.33513727 87.30227957 0.08570006 75.28280278 0.10546875 63.140625 C0.10879715 62.40591476 0.11212555 61.67120453 0.11555481 60.91423035 C0.12058241 59.36885191 0.12296444 57.82346278 0.12280273 56.27807617 C0.12497836 53.95667879 0.14314883 51.63576611 0.16210938 49.31445312 C0.22145378 34.04112141 -0.49537743 19.42620693 -11.4140625 7.6484375 C-20.48250695 -0.7538416 -31.44810904 -2.42841307 -43.46875 -2.171875 C-53.66456552 -1.34069439 -62.99062533 2.65102794 -70.0625 10.12109375 Z " fill="#045891" transform="translate(1048.0625,1529.87890625)"/>
<path d="M0 0 C7.92 0 15.84 0 24 0 C25.17433594 3.40183594 26.34867188 6.80367187 27.55859375 10.30859375 C35.75360458 34.04414279 43.95529743 57.77731914 52.1875 81.5 C52.52627167 82.47629364 52.86504333 83.45258728 53.21408081 84.45846558 C53.87601744 86.36589699 54.53805905 88.27329198 55.20021057 90.1806488 C55.83730478 92.01611057 56.47406293 93.85168902 57.11045837 95.68739319 C58.81777033 100.60916851 60.53533595 105.52714242 62.26416016 110.44140625 C62.82167717 112.03088074 62.82167717 112.03088074 63.39045715 113.65246582 C64.10883516 115.69983365 64.82967539 117.7463396 65.55326843 119.79187012 C65.87382706 120.70682251 66.19438568 121.6217749 66.5246582 122.56445312 C66.95280571 123.77929382 66.95280571 123.77929382 67.38960266 125.01867676 C68 127 68 127 68 129 C63.38 129 58.76 129 54 129 C51.17305493 122.08899492 48.60336268 115.1478387 46.25 108.0625 C45.93417969 107.13115234 45.61835937 106.19980469 45.29296875 105.24023438 C44.99519531 104.34755859 44.69742188 103.45488281 44.390625 102.53515625 C44.12282227 101.734729 43.85501953 100.93430176 43.57910156 100.10961914 C43 98 43 98 43 95 C22.54 95 2.08 95 -19 95 C-19.66 97.97 -20.32 100.94 -21 104 C-21.60166663 106.0419071 -22.23510424 108.07491565 -22.91015625 110.09375 C-23.26013672 111.14304687 -23.61011719 112.19234375 -23.97070312 113.2734375 C-24.33099609 114.33820313 -24.69128906 115.40296875 -25.0625 116.5 C-25.42666016 117.59570312 -25.79082031 118.69140625 -26.16601562 119.8203125 C-28.86631944 127.86631944 -28.86631944 127.86631944 -30 129 C-32.35313555 129.07271741 -34.70833668 129.08370868 -37.0625 129.0625 C-38.35285156 129.05347656 -39.64320313 129.04445313 -40.97265625 129.03515625 C-42.47119141 129.01775391 -42.47119141 129.01775391 -44 129 C-41.91163529 120.89336404 -39.38611838 112.9996197 -36.640625 105.09375 C-36.21904114 103.87079727 -35.79745728 102.64784454 -35.36309814 101.38783264 C-34.23021104 98.10203135 -33.09289588 94.81777978 -31.95455933 91.53386307 C-31.00866924 88.8033465 -30.06538653 86.07193234 -29.12213135 83.34050465 C-9.27662656 25.87417295 -9.27662656 25.87417295 0 0 Z M11 8 C6.98437755 19.49401513 2.97267144 30.98938495 -1.032547 42.48703003 C-2.84276637 47.68282332 -4.6562084 52.8774596 -6.47497559 58.07026672 C-7.63272037 61.37893592 -8.78469142 64.6896078 -9.9375 68 C-10.35563965 69.18940186 -10.7737793 70.37880371 -11.20458984 71.60424805 C-11.57922363 72.68359619 -11.95385742 73.76294434 -12.33984375 74.875 C-12.66331787 75.80054688 -12.98679199 76.72609375 -13.32006836 77.6796875 C-14.14060476 80.07684274 -14.14060476 80.07684274 -14 83 C3.16 83 20.32 83 38 83 C37.17278555 78.86392773 36.1382754 75.19960638 34.79101562 71.22192383 C34.45670784 70.23078331 34.45670784 70.23078331 34.11564636 69.21961975 C33.38219711 67.04772348 32.64431455 64.87736304 31.90625 62.70703125 C31.39417999 61.19446946 30.88234255 59.68182891 30.37072754 58.16911316 C29.30000922 55.00540032 28.22722563 51.84239821 27.15283203 48.67993164 C25.77434864 44.62217986 24.39988142 40.56308222 23.02680206 36.50349903 C21.97110492 33.38307329 20.91387898 30.26316736 19.85612488 27.14343834 C19.34862999 25.64639418 18.84147765 24.14923386 18.33467102 22.65195656 C17.62757747 20.56409987 16.91857027 18.47690331 16.20898438 16.38989258 C15.80562866 15.20140213 15.40227295 14.01291168 14.98669434 12.78840637 C14.09614335 10.08959694 14.09614335 10.08959694 13 8 C12.34 8 11.68 8 11 8 Z " fill="#045891" transform="translate(727,1519)"/>
<path d="M0 0 C4.29 0 8.58 0 13 0 C13 19.14 13 38.28 13 58 C35.44 58 57.88 58 81 58 C81 38.86 81 19.72 81 0 C85.29 0 89.58 0 94 0 C94 42.57 94 85.14 94 129 C89.71 129 85.42 129 81 129 C81 109.53 81 90.06 81 70 C58.56 70 36.12 70 13 70 C13 89.47 13 108.94 13 129 C8.71 129 4.42 129 0 129 C0 86.43 0 43.86 0 0 Z " fill="#045891" transform="translate(1611,1519)"/>
<path d="M0 0 C8.23717201 8.64372771 12.14557754 19.98139269 12.1953125 31.78515625 C12.1540625 33.24953125 12.1128125 34.71390625 12.0703125 36.22265625 C7.7803125 36.22265625 3.4903125 36.22265625 -0.9296875 36.22265625 C-1.07664062 35.18367188 -1.22359375 34.1446875 -1.375 33.07421875 C-3.09823125 21.96391203 -5.82596449 12.64238622 -15.0703125 5.40234375 C-24.44231231 -0.54375697 -36.32145854 -1.00354309 -47.0078125 0.71875 C-55.26590362 2.76020549 -62.52125142 6.53327478 -67.9296875 13.22265625 C-72.05087317 20.44980869 -75.02168798 26.73398584 -75.09082031 35.12963867 C-75.10042786 36.07800095 -75.1100354 37.02636322 -75.11993408 38.00346375 C-75.1263089 39.52542107 -75.1263089 39.52542107 -75.1328125 41.078125 C-75.13851257 42.13493973 -75.14421265 43.19175446 -75.15008545 44.28059387 C-75.15951966 46.51558435 -75.16606315 48.75058864 -75.16992188 50.9855957 C-75.17960328 54.38062257 -75.21063241 57.77503756 -75.2421875 61.16992188 C-75.2487207 63.34765268 -75.25396993 65.52538779 -75.2578125 67.703125 C-75.2701593 68.70764206 -75.2825061 69.71215912 -75.29522705 70.74711609 C-75.25934781 82.27356405 -72.0449052 91.34112054 -64.37109375 99.9765625 C-56.54154773 107.4681425 -45.21336016 109.57985211 -34.7109375 109.4375 C-25.49899128 108.72590303 -16.72807854 106.21779226 -10.21484375 99.4375 C-3.41386688 91.07346244 -2.35664742 81.65044031 -0.9296875 71.22265625 C3.3603125 71.22265625 7.6503125 71.22265625 12.0703125 71.22265625 C12.67849446 86.42720534 9.35981063 99.12750493 -1.05078125 110.4375 C-12.84532058 121.64353841 -28.41094989 121.67935548 -43.71484375 121.5 C-57.4640182 121.08733999 -69.59388231 115.59807022 -79.109375 105.5625 C-90.22436791 91.27520225 -90.11660892 74.74248211 -90.11499023 57.57470703 C-90.11717088 54.99234375 -90.1353637 52.41041276 -90.15429688 49.828125 C-90.21329605 32.90267269 -89.49999097 15.91161037 -78.0546875 2.3203125 C-58.51400025 -16.96893208 -20.51093023 -18.89164627 0 0 Z " fill="#045891" transform="translate(1571.9296875,1528.77734375)"/>
<path d="M0 0 C27.06 0 54.12 0 82 0 C82 3.63 82 7.26 82 11 C59.23 11 36.46 11 13 11 C13 26.51 13 42.02 13 58 C34.12 58 55.24 58 77 58 C77 61.96 77 65.92 77 70 C55.88 70 34.76 70 13 70 C13 85.51 13 101.02 13 117 C36.1 117 59.2 117 83 117 C83 120.96 83 124.92 83 129 C55.61 129 28.22 129 0 129 C0 86.43 0 43.86 0 0 Z " fill="#045891" transform="translate(1377,1519)"/>
<path d="M0 0 C27.06 0 54.12 0 82 0 C82 3.63 82 7.26 82 11 C59.56 11 37.12 11 14 11 C14 26.51 14 42.02 14 58 C34.46 58 54.92 58 76 58 C76 61.96 76 65.92 76 70 C55.54 70 35.08 70 14 70 C14 89.47 14 108.94 14 129 C9.38 129 4.76 129 0 129 C0 86.43 0 43.86 0 0 Z " fill="#045891" transform="translate(173,1519)"/>
<path d="M0 0 C5.50350238 -1.71252601 10.65082964 -2.64682132 16 0 C22.07000466 6.25325009 25.88046531 14.62268458 29.96044922 22.26513672 C33.22177998 28.31913586 36.91975538 34.10859843 40.5625 39.9375 C41.83567113 42.00847822 43.10784838 44.08006785 44.37890625 46.15234375 C47.86359207 51.80397705 51.4185932 57.40925941 55 63 C57.60585737 60.52072762 59.68072761 58.18583558 61.48828125 55.078125 C61.93969482 54.31201904 62.3911084 53.54591309 62.85620117 52.7565918 C63.33677979 51.9294165 63.8173584 51.10224121 64.3125 50.25 C69.60480587 41.27890627 75.03230276 32.40336371 80.64404297 23.62792969 C83.45009999 19.21686853 86.14819474 14.87162962 88.390625 10.14453125 C90.28937542 6.2309612 91.8700234 3.07700776 95 0 C100.26472798 -1.64972129 105.65603672 -0.88519637 111 0 C109.486887 5.75721042 106.52323056 10.12064413 103.25 15 C102.06537961 16.79359319 100.88182243 18.58788896 99.69921875 20.3828125 C99.08739746 21.30868164 98.47557617 22.23455078 97.84521484 23.18847656 C94.87062624 27.72080819 91.96564457 32.29669633 89.0625 36.875 C88.48862549 37.77879395 87.91475098 38.68258789 87.32348633 39.61376953 C86.15058519 41.46107657 84.9779798 43.30857141 83.80566406 45.15625 C81.93284234 48.10576695 80.05675587 51.05318397 78.1796875 54 C77.55312256 54.98371582 76.92655762 55.96743164 76.28100586 56.98095703 C75.08926416 58.85182262 73.89737949 60.72259715 72.70532227 62.59326172 C72.16190186 63.44678223 71.61848145 64.30030273 71.05859375 65.1796875 C70.58736084 65.91944824 70.11612793 66.65920898 69.63061523 67.42138672 C69.09251221 68.2723291 68.55440918 69.12327148 68 70 C67.36722389 70.8221701 67.36722389 70.8221701 66.72166443 71.66094971 C62.44159164 77.58467162 62.26675488 82.77671598 62.29296875 89.9375 C62.27784744 91.05817871 62.26272614 92.17885742 62.24714661 93.33349609 C62.20439065 96.88920403 62.19544274 100.44406099 62.1875 104 C62.16434648 106.42059535 62.13897938 108.8411706 62.11132812 111.26171875 C62.04859446 117.17455401 62.01616478 123.08686147 62 129 C57.71 129 53.42 129 49 129 C49.04825928 127.58074219 49.09651855 126.16148438 49.14624023 124.69921875 C51.1382838 88.01609186 51.1382838 88.01609186 35.05761719 56.47900391 C31.54712652 52.24958741 28.80268301 47.55370897 25.9375 42.875 C24.79557108 41.07564119 23.64974344 39.27875061 22.5 37.484375 C18.80837015 31.70054317 15.12221019 25.91324206 11.4375 20.125 C10.86572021 19.22765137 10.29394043 18.33030273 9.70483398 17.40576172 C8.63467179 15.72505319 7.5661396 14.04330529 6.49951172 12.36035156 C5.50224201 10.79056916 4.49867531 9.22476899 3.48876953 7.66308594 C3.02970215 6.94668945 2.57063477 6.23029297 2.09765625 5.4921875 C1.48869507 4.55028564 1.48869507 4.55028564 0.86743164 3.58935547 C0 2 0 2 0 0 Z " fill="#045891" transform="translate(2335,1519)"/>
<path d="M0 0 C34.32 0 68.64 0 104 0 C104 3.63 104 7.26 104 11 C89.15 11 74.3 11 59 11 C59 49.94 59 88.88 59 129 C54.71 129 50.42 129 46 129 C46 90.06 46 51.12 46 11 C30.82 11 15.64 11 0 11 C0 7.37 0 3.74 0 0 Z " fill="#045891" transform="translate(1251,1519)"/>
<path d="M0 0 C34.32 0 68.64 0 104 0 C104 3.63 104 7.26 104 11 C89.15 11 74.3 11 59 11 C59 49.94 59 88.88 59 129 C54.71 129 50.42 129 46 129 C46 90.06 46 51.12 46 11 C30.82 11 15.64 11 0 11 C0 7.37 0 3.74 0 0 Z " fill="#045891" transform="translate(789,1519)"/>
<path d="M0 0 C4.29 0 8.58 0 13 0 C13 38.61 13 77.22 13 117 C36.76 117 60.52 117 85 117 C85 120.96 85 124.92 85 129 C56.95 129 28.9 129 0 129 C0 86.43 0 43.86 0 0 Z " fill="#045891" transform="translate(1995,1519)"/>
<path d="M0 0 C4.62 0 9.24 0 14 0 C14 42.57 14 85.14 14 129 C9.38 129 4.76 129 0 129 C0 86.43 0 43.86 0 0 Z " fill="#045891" transform="translate(914,1519)"/>
<path d="M0 0 C4.29 0 8.58 0 13 0 C13 42.57 13 85.14 13 129 C8.71 129 4.42 129 0 129 C0 86.43 0 43.86 0 0 Z " fill="#045891" transform="translate(0,1519)"/>
</svg>
