<?xml version="1.0" encoding="UTF-8"?>
<svg version="1.1" xmlns="http://www.w3.org/2000/svg" width="1464" height="695">
<path d="M0 0 C1.71938714 1.61222313 3.39913487 3.27003284 5 5 C5 5.66 5 6.32 5 7 C5.55429688 7.18046875 6.10859375 7.3609375 6.6796875 7.546875 C10.16285839 9.72825475 11.91944261 12.84022137 14.125 16.25 C14.56714844 16.90613281 15.00929688 17.56226563 15.46484375 18.23828125 C17.97159381 22.04763255 19.77277498 25.55992747 21 30 C21.66 30 22.32 30 23 30 C24.77433039 34.67986818 26.53634428 39.36395702 28.27783203 44.05615234 C28.84660097 45.58709836 29.42041813 47.11616892 29.99609375 48.64453125 C33.77699952 59.20364115 34.35973826 70.06067639 34.3125 81.1875 C34.31056641 83.08375122 34.31056641 83.08375122 34.30859375 85.01831055 C34.21042458 94.6125063 33.26479134 103.68469751 31 113 C30.34 113 29.68 113 29 113 C28.938125 113.886875 28.87625 114.77375 28.8125 115.6875 C26.61213174 130.46564901 17.2205771 145.37155949 7 156 C6.34 156 5.68 156 5 156 C4.7525 156.5775 4.505 157.155 4.25 157.75 C2.81700012 160.32939979 1.21575324 162.06121592 -1 164 C-1.66 164 -2.32 164 -3 164 C-3.38865234 164.88751953 -3.38865234 164.88751953 -3.78515625 165.79296875 C-11.81853171 180.38736468 -36.40076871 189.32288089 -51.5690918 193.98144531 C-65.37693912 197.98259079 -79.61713867 200.5995087 -94 201 C-95.06476563 201.03996094 -96.12953125 201.07992187 -97.2265625 201.12109375 C-129.75819868 201.76867901 -163.76814591 193.90810355 -190 174 C-190.763125 173.46246094 -191.52625 172.92492187 -192.3125 172.37109375 C-193.3953125 171.59958984 -193.3953125 171.59958984 -194.5 170.8125 C-195.1290625 170.36519531 -195.758125 169.91789063 -196.40625 169.45703125 C-198.21620185 167.80234487 -198.95296502 166.19422113 -200 164 C-200.61875 163.690625 -201.2375 163.38125 -201.875 163.0625 C-204.76105552 161.61947224 -206.04451995 159.54804976 -208 157 C-208.763125 156.278125 -209.52625 155.55625 -210.3125 154.8125 C-215.53372555 149.34842675 -224 139.8785072 -224 132 C-224.66 132 -225.32 132 -226 132 C-226.20157715 131.39003174 -226.4031543 130.78006348 -226.61083984 130.15161133 C-227.53062885 127.37137604 -228.4527916 124.59193366 -229.375 121.8125 C-229.69210937 120.85279297 -230.00921875 119.89308594 -230.3359375 118.90429688 C-230.6453125 117.97294922 -230.9546875 117.04160156 -231.2734375 116.08203125 C-231.55622559 115.22843018 -231.83901367 114.3748291 -232.13037109 113.49536133 C-232.72710664 111.78305531 -233.37636033 110.08842707 -234.06835938 108.41235352 C-239.33768032 94.76818155 -237.61424712 77.19937522 -235.6875 63.0625 C-235.56995361 62.18625977 -235.45240723 61.31001953 -235.33129883 60.40722656 C-234.51346524 54.92852537 -233.1010856 50.11151386 -231 45 C-230.63519531 43.96617187 -230.27039062 42.93234375 -229.89453125 41.8671875 C-226.80329069 33.31884718 -222.68150694 25.74830057 -218 18 C-217.34 18 -216.68 18 -216 18 C-215.814375 17.34 -215.62875 16.68 -215.4375 16 C-213.71508733 12.40539964 -211.45716934 9.90644954 -208.78515625 6.9765625 C-207.32522875 5.3601001 -205.95982177 3.65871754 -204.625 1.9375 C-197.45527853 -6.08575974 -187.37438319 -12.77802816 -178 -18 C-177.34 -18 -176.68 -18 -176 -18 C-176 -18.66 -176 -19.32 -176 -20 C-117.99243924 -49.604895 -49.23781806 -42.71879231 0 0 Z M-149 41 C-149.97066406 41.77923828 -149.97066406 41.77923828 -150.9609375 42.57421875 C-158.25348593 48.8603295 -164.30942663 60.90164188 -165.82421875 70.41015625 C-167.03982131 88.32003392 -165.71808929 103.56003306 -153.47119141 117.77441406 C-147.83240262 123.95238998 -142.43896623 129.0973121 -135 133 C-134.154375 133.45503906 -133.30875 133.91007812 -132.4375 134.37890625 C-114.60564428 143.03764388 -94.56065705 143.23312326 -76 137 C-66.16681039 133.35853823 -57.97945791 127.79135404 -51 120 C-51 119.34 -51 118.68 -51 118 C-50.01 117.67 -49.02 117.34 -48 117 C-39.4306992 106.28397498 -35.1254252 92.89263528 -35.59765625 79.16015625 C-36.55711053 71.62424834 -38.6009119 64.1972643 -41 57 C-41.66 57 -42.32 57 -43 57 C-43.11859375 56.42121094 -43.2371875 55.84242188 -43.359375 55.24609375 C-46.48379775 44.29156278 -56.7966673 36.99684832 -66.12890625 31.51953125 C-93.20442013 17.18976948 -126.20823737 20.34270403 -149 41 Z " fill="#C4112D" transform="translate(1299,494)"/>
<path d="M0 0 C0 17.16 0 34.32 0 52 C-11 50 -11 50 -14.515625 48.9765625 C-33.07043356 43.77622378 -61.27091979 40.4498847 -79.125 49.875 C-82.63641904 52.47039668 -86.01782001 55.03564001 -88 59 C-88.2858701 64.14566178 -88.16117125 67.57942483 -84.66772461 71.4921875 C-77.64405853 77.19570645 -69.05338315 79.33210668 -60.5625 82 C-58.23252433 82.74722677 -55.903992 83.49883733 -53.57546997 84.25057983 C-52.0288757 84.74983339 -50.48189862 85.24790261 -48.93453979 85.74478149 C-43.54160183 87.48183241 -38.17322402 89.28041467 -32.82421875 91.1484375 C-32.15008438 91.38103271 -31.47595001 91.61362793 -30.78138733 91.85327148 C-21.90216495 94.98696003 -13.22189328 98.87995445 -6 105 C-5.33097656 105.55300781 -4.66195312 106.10601563 -3.97265625 106.67578125 C6.47354964 115.62662024 13.75727243 125.41315263 17 139 C17.0626143 140.99901962 17.08005449 143.00160282 17 145 C17.66 145 18.32 145 19 145 C19.05865035 148.18742115 19.09381259 151.37470118 19.125 154.5625 C19.14175781 155.45775391 19.15851563 156.35300781 19.17578125 157.27539062 C19.21462396 162.57742101 18.72917166 166.92816905 17 172 C16.69320312 173.0828125 16.38640625 174.165625 16.0703125 175.28125 C14.27423551 181.39681792 12.48817642 186.66514195 9 192 C8.49984375 192.79792969 7.9996875 193.59585938 7.484375 194.41796875 C4.43489832 199.19202812 4.43489832 199.19202812 3 201 C2.34 201 1.68 201 1 201 C0.76539063 201.57234375 0.53078125 202.1446875 0.2890625 202.734375 C-7.13468413 215.78217211 -26.94692606 222.14145384 -40.42431641 226.05224609 C-63.77115931 232.44478078 -87.59863005 232.70587164 -111.625 231.25 C-112.32246338 231.20876007 -113.01992676 231.16752014 -113.73852539 231.12503052 C-155.40190065 228.59809935 -155.40190065 228.59809935 -159 225 C-159.09346915 223.34261557 -159.11744977 221.68125356 -159.11352539 220.02124023 C-159.11344986 218.96021591 -159.11337433 217.89919159 -159.11329651 216.80601501 C-159.10813522 215.651866 -159.10297394 214.49771698 -159.09765625 213.30859375 C-159.0962413 212.13361832 -159.09482635 210.95864288 -159.09336853 209.74806213 C-159.08774992 205.97784936 -159.07519426 202.20769496 -159.0625 198.4375 C-159.0574874 195.88867273 -159.05292408 193.33984453 -159.04882812 190.79101562 C-159.03777444 184.52732367 -159.02101821 178.26366601 -159 172 C-155.57406499 170.85802166 -154.21115241 171.17989921 -150.73046875 171.92578125 C-149.15990723 172.25400879 -149.15990723 172.25400879 -147.55761719 172.58886719 C-146.44547852 172.82766602 -145.33333984 173.06646484 -144.1875 173.3125 C-101.2710628 182.24698628 -101.2710628 182.24698628 -59.7421875 172.28125 C-57.94099979 171.02931303 -57.94099979 171.02931303 -56.3828125 169.34375 C-55 168 -55 168 -53 168 C-52.16942999 165.09959681 -51.86467713 162.51427898 -51.875 159.5 C-51.87242187 158.7471875 -51.86984375 157.994375 -51.8671875 157.21875 C-52.00188937 154.96843645 -52.19482908 153.11010309 -53 151 C-53.99 150.67 -54.98 150.34 -56 150 C-56.76570312 149.21109375 -57.53140625 148.4221875 -58.3203125 147.609375 C-66.09240121 140.04121865 -79.21924811 138.04189795 -89.37216187 135.20349121 C-101.24765672 131.87722261 -112.37696028 128.4180865 -123 122 C-123.62132812 121.62842773 -124.24265625 121.25685547 -124.8828125 120.87402344 C-139.9072423 111.81830689 -150.70028685 102.32329146 -156 85 C-156.25007812 84.34201416 -156.50015625 83.68402832 -156.7578125 83.00610352 C-158.87254183 77.28769001 -159.47685768 72.26363422 -159.375 66.1875 C-159.36557373 65.3109375 -159.35614746 64.434375 -159.34643555 63.53125 C-159.06556819 51.4103127 -155.40241838 40.80483675 -150 30 C-149.34 30 -148.68 30 -148 30 C-147.7525 29.278125 -147.505 28.55625 -147.25 27.8125 C-141.87059618 15.70884141 -126.21789958 6.34185686 -114.38671875 1.2265625 C-78.70030512 -11.69792871 -36.27083272 -9.06770818 0 0 Z " fill="#C4112E" transform="translate(722,463)"/>
<path d="M0 0 C0.84949219 0.04108887 1.69898438 0.08217773 2.57421875 0.12451172 C20.07208975 1.04840403 37.00283772 3.75070943 54 8 C54 29.12 54 50.24 54 72 C50.56984568 71.31396914 47.82461427 70.66273571 44.62109375 69.4765625 C19.0907818 60.30362369 -10.16978487 55.91142786 -35.68823242 67.83862305 C-44.06450024 72.04907383 -51.2643078 76.49947943 -57 84 C-57.66 84 -58.32 84 -59 84 C-59.268125 84.70640625 -59.53625 85.4128125 -59.8125 86.140625 C-61.46701173 90.12451509 -63.52942906 93.87003234 -65.5625 97.671875 C-70.798874 109.79521914 -70.78707544 125.62998063 -67.1328125 138.20703125 C-65.34598741 142.61247932 -62.96672643 146.59286637 -60.42578125 150.6015625 C-59 153 -59 153 -59 155 C-58.13375 155.3403125 -58.13375 155.3403125 -57.25 155.6875 C-54.41027692 157.34400513 -53.04775464 159.42567988 -51 162 C-39.75645728 174.40903191 -20.60469548 178.32356408 -4.61328125 179.34375 C12.63341711 179.9669315 33.68041779 177.00327378 49.06860352 168.91235352 C51 168 51 168 54 168 C54 188.79 54 209.58 54 231 C5.7368804 241.96889082 -44.74983442 244.00010035 -88.578125 217.4375 C-90.76242488 216.01101845 -92.88628182 214.5286344 -95 213 C-95.65097656 212.55269531 -96.30195313 212.10539063 -96.97265625 211.64453125 C-102.8935433 207.44223169 -108.2118546 202.45534599 -113 197 C-113 196.34 -113 195.68 -113 195 C-113.5775 194.79375 -114.155 194.5875 -114.75 194.375 C-117.81938843 192.49926262 -119.09314738 190.01405737 -121 187 C-121.49121338 186.51136475 -121.98242676 186.02272949 -122.48852539 185.51928711 C-125.05378867 182.94076452 -126.66831488 179.71212717 -128.4375 176.5625 C-128.83638428 175.85254883 -129.23526855 175.14259766 -129.64624023 174.41113281 C-133.49888088 167.37470726 -137 160.14150975 -137 152 C-137.66 152 -138.32 152 -139 152 C-144.67373383 128.96734243 -144.76264721 102.2190555 -136 80 C-135.63519531 79.02675781 -135.27039063 78.05351563 -134.89453125 77.05078125 C-129.48518438 63.36142328 -121.00393372 48.95594003 -110 39 C-109.23558594 38.28972656 -108.47117188 37.57945312 -107.68359375 36.84765625 C-103.30136433 32.81809507 -99.02082253 29.21926968 -94 26 C-93.40131104 25.61400635 -92.80262207 25.2280127 -92.18579102 24.83032227 C-64.35252758 6.96253497 -33.30307462 -1.6441644 0 0 Z " fill="#C4112D" transform="translate(273,456)"/>
<path d="M0 0 C0 21.12 0 42.24 0 64 C-4.66026677 63.22328887 -7.56513805 62.47547673 -11.75 60.6875 C-17.18005765 58.53914004 -22.54941496 57.00817856 -28.25 55.75 C-28.98186523 55.58717529 -29.71373047 55.42435059 -30.46777344 55.2565918 C-53.33223935 50.41908738 -77.70906744 51.9594623 -97.9375 64.5 C-105.45625392 69.50019723 -105.45625392 69.50019723 -111.25 76.3125 C-111.8275 77.199375 -112.405 78.08625 -113 79 C-113.66 79 -114.32 79 -115 79 C-115.26554688 79.845625 -115.53109375 80.69125 -115.8046875 81.5625 C-117 85 -117 85 -118.5078125 88.3125 C-124.45565255 101.53293451 -125.8423 116.74862804 -120.6875 130.5 C-119.83872177 132.35558724 -118.94431911 134.19116339 -118 136 C-115 141.78922717 -115 141.78922717 -115 144 C-114.34 144 -113.68 144 -113 144 C-111.92580696 145.31224136 -110.91573391 146.67724678 -109.9375 148.0625 C-99.2948752 161.99823206 -83.38413857 167.81546244 -66.6015625 170.5546875 C-45.99297289 173.10282114 -26.41697184 168.83215219 -7.17797852 161.70849609 C-5 161 -5 161 0 160 C0 180.79 0 201.58 0 223 C-18.02107376 227.09569858 -34.74295014 230.23777724 -53 231 C-54.13179687 231.05414062 -55.26359375 231.10828125 -56.4296875 231.1640625 C-85.62060215 231.89218055 -118.51052527 225.70777248 -143 209 C-143.76183594 208.51917969 -144.52367187 208.03835938 -145.30859375 207.54296875 C-154.46759327 201.68924056 -162.21757257 194.47803429 -169 186 C-169.845625 185.175 -170.69125 184.35 -171.5625 183.5 C-173.88955704 181.11327483 -175.3411328 178.86531606 -177 176 C-177.66902344 175.39478516 -177.66902344 175.39478516 -178.3515625 174.77734375 C-192.11332899 159.93942017 -196.18748889 133.58997942 -196.18530273 114.40429688 C-196.18748029 112.26932559 -196.20565346 110.13487962 -196.22460938 108 C-196.27543751 96.27993638 -194.59610824 85.80883759 -190.875 74.6875 C-190.57585693 73.78684814 -190.27671387 72.88619629 -189.96850586 71.95825195 C-187.21986852 64.02347974 -183.5582139 57.0445124 -179 50 C-178.34 50 -177.68 50 -177 50 C-176.88140625 49.42121094 -176.7628125 48.84242188 -176.640625 48.24609375 C-175.96422312 45.87456275 -175.0555677 44.1489294 -173.75 42.0625 C-173.35296875 41.41410156 -172.9559375 40.76570313 -172.546875 40.09765625 C-165.05994075 29.94491965 -149.25428894 14.12068623 -136 12 C-136 11.34 -136 10.68 -136 10 C-93.16866678 -11.85951463 -45.9455308 -11.4863827 0 0 Z " fill="#C4112E" transform="translate(997,464)"/>
<path d="M0 0 C4.17093854 3.52873569 7.45070751 6.90530945 9.28515625 12.1640625 C9.28515625 13.1540625 9.28515625 14.1440625 9.28515625 15.1640625 C9.94515625 15.1640625 10.60515625 15.1640625 11.28515625 15.1640625 C11.42254292 55.61548559 11.52824138 96.06687823 11.59154823 136.5184881 C11.59905231 141.29609857 11.60681826 146.07370858 11.61474609 150.85131836 C11.61631996 151.80243906 11.61789382 152.75355975 11.61951537 153.73350229 C11.64561056 169.12617534 11.69291102 184.5187137 11.74807303 199.9113069 C11.80421761 215.71005498 11.83751644 231.50873261 11.84968722 247.30757636 C11.85791263 257.05335923 11.88387471 266.79876135 11.93265505 276.544427 C11.96441462 283.23089705 11.97394694 289.91717078 11.96616451 296.60371075 C11.96232818 300.45941684 11.968134 304.31445846 12.0003891 308.17004585 C12.03516241 312.35739135 12.0230449 316.54333149 12.00668335 320.73078918 C12.0241604 321.93996044 12.04163745 323.14913169 12.0596441 324.39494449 C11.95984443 333.86093564 9.15586343 340.75487724 2.8984375 347.8828125 C-6.52052469 355.17491226 -15.90062702 357.23525955 -27.71484375 356.1640625 C-36.82492319 354.98897597 -43.42854314 350.8220194 -49.71484375 344.1640625 C-51.96898107 340.37963798 -52.71484375 338.62314665 -52.71484375 334.1640625 C-53.37484375 334.1640625 -54.03484375 334.1640625 -54.71484375 334.1640625 C-54.71484375 229.2240625 -54.71484375 124.2840625 -54.71484375 16.1640625 C-54.05484375 16.1640625 -53.39484375 16.1640625 -52.71484375 16.1640625 C-52.63234375 15.2978125 -52.54984375 14.4315625 -52.46484375 13.5390625 C-50.95030653 6.72364499 -46.70933058 2.73433709 -41.26171875 -1.2890625 C-29.15796952 -8.64041939 -11.65257037 -7.8801555 0 0 Z " fill="#14485C" transform="translate(1103.71484375,5.8359375)"/>
<path d="M0 0 C7.01508651 5.3153132 12.11861924 11.1839445 13.50732553 20.14476383 C13.687705 23.55534654 13.71440139 26.93420699 13.68461609 30.34947205 C13.69312161 31.64882472 13.70162713 32.9481774 13.71039039 34.28690439 C13.73307573 37.86898563 13.72486746 41.45041261 13.71125114 45.03251493 C13.70196131 48.90516872 13.72151116 52.7776961 13.73722839 56.65031433 C13.76326782 64.22734987 13.76224141 71.80414775 13.75119021 79.38121098 C13.74261916 85.54175134 13.74347252 91.70222314 13.7509861 97.86276436 C13.75204099 98.74079838 13.75309588 99.6188324 13.75418273 100.52347352 C13.75635374 102.30740115 13.75854051 104.09132877 13.76074288 105.87525637 C13.78015692 122.58982787 13.76819002 139.30426625 13.74595693 156.01882685 C13.72770855 170.34720009 13.73860932 184.6753156 13.77026367 199.00366211 C13.80705558 215.65837736 13.82403767 232.3129317 13.8108514 248.96768767 C13.80951035 250.74522338 13.80820137 252.52275912 13.80692482 254.30029488 C13.80629415 255.17478423 13.80566349 256.04927359 13.80501371 256.95026262 C13.80199107 263.09980958 13.81322637 269.24923478 13.8301754 275.39875603 C13.85053466 282.89831411 13.84957863 290.39750865 13.821543 297.89704793 C13.80780316 301.72037757 13.80351421 305.5430733 13.82549286 309.36637878 C13.84904427 313.51824861 13.82576181 317.66857466 13.79814148 321.82041931 C13.81220793 323.01887842 13.82627438 324.21733752 13.84076709 325.45211357 C13.71472363 334.87367641 10.88419116 341.77283881 4.65625 348.8671875 C-4.76271219 356.15928726 -14.14281452 358.21963455 -25.95703125 357.1484375 C-34.96510242 355.98650876 -41.93520633 351.96754454 -47.95703125 345.1484375 C-52.95459998 337.55112967 -53.67661403 330.8836964 -53.59867859 321.94740295 C-53.60718411 320.64805028 -53.61568963 319.3486976 -53.62445289 318.00997061 C-53.64713823 314.42788937 -53.63892996 310.84646239 -53.62531364 307.26436007 C-53.61602381 303.39170628 -53.63557366 299.5191789 -53.65129089 295.64656067 C-53.67733032 288.06952513 -53.67630391 280.49272725 -53.66525271 272.91566402 C-53.65668166 266.75512366 -53.65753502 260.59465186 -53.6650486 254.43411064 C-53.66610349 253.55607662 -53.66715838 252.6780426 -53.66824523 251.77340148 C-53.67041624 249.98947385 -53.67260301 248.20554623 -53.67480538 246.42161863 C-53.69421942 229.70704713 -53.68225252 212.99260875 -53.66001943 196.27804815 C-53.64177105 181.94967491 -53.65267182 167.6215594 -53.68432617 153.29321289 C-53.72111808 136.63849764 -53.73810017 119.9839433 -53.7249139 103.32918733 C-53.72357285 101.55165162 -53.72226387 99.77411588 -53.72098732 97.99658012 C-53.72035665 97.12209077 -53.71972599 96.24760141 -53.71907621 95.34661238 C-53.71605357 89.19706542 -53.72728887 83.04764022 -53.7442379 76.89811897 C-53.76459716 69.39856089 -53.76364113 61.89936635 -53.7356055 54.39982707 C-53.72186566 50.57649743 -53.71757671 46.7538017 -53.73955536 42.93049622 C-53.76310677 38.77862639 -53.73982431 34.62830034 -53.71220398 30.47645569 C-53.72627043 29.27799658 -53.74033688 28.07953748 -53.75482959 26.84476143 C-53.62878613 17.42319859 -50.79825366 10.52403619 -44.5703125 3.4296875 C-31.98181563 -6.31624556 -13.94746394 -8.73328653 0 0 Z " fill="#14495C" transform="translate(401.95703125,4.8515625)"/>
<path d="M0 0 C22.11 0 44.22 0 67 0 C67 76.23 67 152.46 67 231 C44.89 231 22.78 231 0 231 C0 154.77 0 78.54 0 0 Z " fill="#C3122D" transform="translate(413,460)"/>
<path d="M0 0 C0.804375 0.43570313 1.60875 0.87140625 2.4375 1.3203125 C7.74779852 4.51697246 11.64752515 8.16018806 14 14 C14 15.32 14 16.64 14 18 C14.66 18 15.32 18 16 18 C17.12300911 25.19742312 17.14108152 32.28226058 17.12939453 39.55688477 C17.13075164 40.91614834 17.1325333 42.27541155 17.13470459 43.63467407 C17.1392417 47.30605012 17.13750485 50.97739788 17.1343255 54.64877439 C17.13178313 58.50119681 17.13414461 62.35361691 17.13571167 66.20603943 C17.13752767 72.6727644 17.13514176 79.13947794 17.13037109 85.60620117 C17.12492727 93.07138344 17.1266943 100.5365384 17.1321975 108.00172001 C17.1367421 114.42486986 17.13737265 120.84801151 17.13475883 127.27116245 C17.13320377 131.10150566 17.13298118 134.93183605 17.13629532 138.76217842 C17.13919369 142.36306277 17.13716231 145.96391205 17.13140106 149.56479263 C17.12945821 151.50879621 17.13241045 153.45280276 17.13552856 155.39680481 C17.10623653 167.5260099 15.79382462 177.7100746 7.07421875 187.06640625 C5.11986341 188.62910721 3.21585999 189.84170955 1 191 C0.38125 191.33515625 -0.2375 191.6703125 -0.875 192.015625 C-9.64556274 195.78422618 -22.71173771 195.64351062 -31.625 192.4375 C-41.0874193 187.73880725 -46.43591929 180.90663932 -50 171 C-50.78261106 165.88772566 -50.76390773 160.84189629 -50.68115234 155.68457031 C-50.67945582 154.18528309 -50.68041784 152.6859909 -50.68380737 151.18670654 C-50.68551475 147.15404032 -50.65047241 143.12246536 -50.60836363 139.0900507 C-50.57061682 134.86207311 -50.56731254 130.63406493 -50.56021118 126.40594482 C-50.54163215 118.4162634 -50.49249034 110.42708008 -50.43211424 102.43761706 C-50.3648316 93.33480148 -50.33200566 84.23196094 -50.30194163 75.12895823 C-50.23938418 56.41902408 -50.13398579 37.70955222 -50 19 C-49.34 19 -48.68 19 -48 19 C-47.9175 18.13375 -47.835 17.2675 -47.75 16.375 C-46.00837981 8.53770916 -40.44861523 4.20739035 -34 0 C-23.27052434 -6.16990085 -10.77247545 -5.8593532 0 0 Z " fill="#14485D" transform="translate(1274,111)"/>
<path d="M0 0 C5.22868275 3.75811573 8.63132547 7.7477154 11.5625 13.45703125 C11.90760054 14.02638523 12.25270107 14.59573921 12.6082592 15.18234634 C13.85280481 18.14904943 13.80828252 20.52969529 13.80300903 23.746521 C13.80575836 25.03938522 13.80850769 26.33224945 13.81134033 27.66429138 C13.80426246 29.09488008 13.79699285 30.52546784 13.78955078 31.95605469 C13.78898657 33.46401461 13.78930341 34.97197509 13.79043579 36.47993469 C13.79100993 40.57259061 13.77924565 44.66512945 13.76528788 48.75775814 C13.75279081 53.03521571 13.75161082 57.31267592 13.74923706 61.59014893 C13.74301928 69.68967334 13.72660443 77.78914381 13.70653808 85.88864446 C13.68418835 95.10983594 13.67318798 104.33102998 13.66314721 113.5522418 C13.64223847 132.52053554 13.6070567 151.48877906 13.5625 170.45703125 C12.9025 170.45703125 12.2425 170.45703125 11.5625 170.45703125 C11.52125 171.28203125 11.48 172.10703125 11.4375 172.95703125 C9.53180788 180.57979975 4.31201809 185.07600321 -2.09375 189.23046875 C-10.91297526 193.8458633 -21.92636097 193.81963804 -31.5546875 191.8046875 C-40.70971978 188.48206675 -46.7134868 182.20803845 -51.18779373 173.71382713 C-53.51595822 167.64651618 -53.219859 161.48126535 -53.11865234 155.0715332 C-53.11695638 153.55268929 -53.11791676 152.03384047 -53.12130737 150.51499939 C-53.12301691 146.42443207 -53.08793868 142.33493744 -53.04586363 138.2446177 C-53.00815364 133.95790935 -53.0048154 129.67117176 -52.99771118 125.38432312 C-52.97912149 117.28128099 -52.92996493 109.17872916 -52.86961424 101.07590216 C-52.80236517 91.84493695 -52.76951403 82.61394734 -52.73944163 73.38279784 C-52.67685996 54.40726516 -52.5714404 35.43218774 -52.4375 16.45703125 C-51.7775 16.45703125 -51.1175 16.45703125 -50.4375 16.45703125 C-50.4375 15.65265625 -50.4375 14.84828125 -50.4375 14.01953125 C-48.63328382 7.59201111 -44.0975732 3.21575733 -38.6015625 -0.41796875 C-25.890968 -7.50591421 -12.52063602 -7.92572312 0 0 Z " fill="#15495C" transform="translate(226.4375,112.54296875)"/>
<path d="M0 0 C5.07445888 3.60995512 9.39249872 7.68046556 11.75 13.57421875 C11.75 14.56421875 11.75 15.55421875 11.75 16.57421875 C12.41 16.57421875 13.07 16.57421875 13.75 16.57421875 C13.75 67.39421875 13.75 118.21421875 13.75 170.57421875 C13.09 170.57421875 12.43 170.57421875 11.75 170.57421875 C11.70875 171.39921875 11.6675 172.22421875 11.625 173.07421875 C10.00683659 179.54687237 5.34917146 185.01110964 -0.25 188.57421875 C-9.47602256 194.03026494 -21.05811953 194.10498424 -31.3515625 191.9140625 C-38.81108549 189.24664793 -45.04416412 184.37308139 -48.75 177.32421875 C-49.9553473 174.72648749 -50.25 173.52109862 -50.25 170.57421875 C-50.91 170.57421875 -51.57 170.57421875 -52.25 170.57421875 C-52.39039429 150.81557196 -52.49608058 131.05702692 -52.56087303 111.29798412 C-52.591762 102.12272111 -52.63384712 92.94776869 -52.70263672 83.77270508 C-52.76259124 75.77221263 -52.80118517 67.77194521 -52.81453097 59.77123433 C-52.82232775 55.53794788 -52.84054679 51.30530499 -52.88438034 47.07222557 C-52.9253761 43.08052088 -52.93761546 39.08971933 -52.92864609 35.0978241 C-52.9302848 33.63980498 -52.94205947 32.18175288 -52.96523285 30.72391701 C-53.12363736 20.23641605 -51.53634694 12.27162769 -44.23996544 4.40788555 C-31.89738525 -7.31392323 -14.46008296 -9.16307341 0 0 Z " fill="#14485C" transform="translate(926.25,112.42578125)"/>
<path d="M0 0 C5.07445888 3.60995512 9.39249872 7.68046556 11.75 13.57421875 C11.75 14.56421875 11.75 15.55421875 11.75 16.57421875 C12.41 16.57421875 13.07 16.57421875 13.75 16.57421875 C13.75 67.39421875 13.75 118.21421875 13.75 170.57421875 C13.09 170.57421875 12.43 170.57421875 11.75 170.57421875 C11.70875 171.39921875 11.6675 172.22421875 11.625 173.07421875 C10.00683659 179.54687237 5.34917146 185.01110964 -0.25 188.57421875 C-9.47602256 194.03026494 -21.05811953 194.10498424 -31.3515625 191.9140625 C-38.81108549 189.24664793 -45.04416412 184.37308139 -48.75 177.32421875 C-49.9553473 174.72648749 -50.25 173.52109862 -50.25 170.57421875 C-50.91 170.57421875 -51.57 170.57421875 -52.25 170.57421875 C-52.39039429 150.81557196 -52.49608058 131.05702692 -52.56087303 111.29798412 C-52.591762 102.12272111 -52.63384712 92.94776869 -52.70263672 83.77270508 C-52.76259124 75.77221263 -52.80118517 67.77194521 -52.81453097 59.77123433 C-52.82232775 55.53794788 -52.84054679 51.30530499 -52.88438034 47.07222557 C-52.9253761 43.08052088 -52.93761546 39.08971933 -52.92864609 35.0978241 C-52.9302848 33.63980498 -52.94205947 32.18175288 -52.96523285 30.72391701 C-53.12363736 20.23641605 -51.53634694 12.27162769 -44.23996544 4.40788555 C-31.89738525 -7.31392323 -14.46008296 -9.16307341 0 0 Z " fill="#14485D" transform="translate(576.25,112.42578125)"/>
<path d="M0 0 C1.26360352 -0.0299707 1.26360352 -0.0299707 2.55273438 -0.06054688 C11.92176671 -0.05333438 20.39589843 3.83109348 27.0625 10.4375 C29.48506199 14.03381033 31.0625 17.06809882 31.0625 21.4375 C31.7225 21.4375 32.3825 21.4375 33.0625 21.4375 C33.0625 46.1875 33.0625 70.9375 33.0625 96.4375 C32.4025 96.4375 31.7425 96.4375 31.0625 96.4375 C30.98 97.283125 30.8975 98.12875 30.8125 99 C29.28059847 106.02121535 26.06416994 110.17429497 20.23046875 114.1484375 C10.72464816 119.80054704 -1.35890202 120.03901504 -12.04296875 117.78125 C-19.2888242 115.17498881 -25.40122864 110.32658201 -29.4375 103.75 C-30.9375 100.4375 -30.9375 100.4375 -30.9375 96.4375 C-31.5975 96.4375 -32.2575 96.4375 -32.9375 96.4375 C-32.9375 71.6875 -32.9375 46.9375 -32.9375 21.4375 C-32.2775 21.4375 -31.6175 21.4375 -30.9375 21.4375 C-30.8446875 20.1690625 -30.8446875 20.1690625 -30.75 18.875 C-29.22801367 12.43582705 -25.36094112 8.36006241 -20.07421875 4.578125 C-13.28261898 0.9526275 -7.60028246 -0.06367335 0 0 Z " fill="#14485C" transform="translate(731.9375,186.5625)"/>
<path d="M0 0 C0.83563477 0.00684814 1.67126953 0.01369629 2.53222656 0.02075195 C8.90027737 0.18634112 14.08012172 1.15164621 19.625 4.4375 C20.60146484 4.9634375 20.60146484 4.9634375 21.59765625 5.5 C26.76950259 8.66240286 29.06518442 13.07818573 31.625 18.4375 C31.9698645 18.99888672 32.314729 19.56027344 32.67004395 20.13867188 C33.97937237 23.29056666 33.91006096 25.99202567 33.94726562 29.40234375 C33.96216034 30.44232262 33.96216034 30.44232262 33.97735596 31.50331116 C34.00652494 33.79391496 34.02019576 36.08424105 34.03125 38.375 C34.03973213 39.55509644 34.03973213 39.55509644 34.04838562 40.7590332 C34.07835381 44.92905008 34.09681783 49.09892907 34.10546875 53.26904297 C34.11638651 57.54829843 34.16433166 61.82626434 34.22141266 66.1051178 C34.25894492 69.41859413 34.26909153 72.73176987 34.2721405 76.04544067 C34.27814032 77.62093086 34.29401491 79.1964192 34.32051086 80.771698 C34.49211762 91.76645683 33.22552754 101.02996482 25.68078613 109.66186523 C18.47586154 116.74648857 10.46185225 118.81447632 0.625 118.9375 C-6.39930845 118.86399231 -12.19978748 118.00513717 -18.375 114.4375 C-19.01566406 114.12167969 -19.65632813 113.80585938 -20.31640625 113.48046875 C-26.39007309 109.97794381 -29.14360812 103.8508988 -31.375 97.4375 C-32.40733067 91.61380368 -32.19824255 85.66531148 -32.13671875 79.7734375 C-32.13822507 78.08818287 -32.14166461 76.40292898 -32.14692688 74.71768188 C-32.15123243 71.20595991 -32.13461529 67.69516455 -32.10229492 64.18359375 C-32.06245433 59.70708056 -32.07185745 55.23229665 -32.09652996 50.75572777 C-32.11078231 47.28268517 -32.1005729 43.81003939 -32.08301735 40.33702469 C-32.0772141 38.68739395 -32.07840024 37.0377218 -32.08704185 35.38810349 C-32.12362032 24.92626153 -31.55589407 16.15787676 -24.19921875 8.03515625 C-23.49410156 7.52855469 -22.78898437 7.02195313 -22.0625 6.5 C-21.36511719 5.97535156 -20.66773438 5.45070312 -19.94921875 4.91015625 C-13.38399241 1.15432874 -7.53465602 -0.09490447 0 0 Z " fill="#14495C" transform="translate(31.375,186.5625)"/>
<path d="M0 0 C0.61101562 0.41636719 1.22203125 0.83273438 1.8515625 1.26171875 C2.92277344 1.93267578 2.92277344 1.93267578 4.015625 2.6171875 C9.27428059 6.18351211 12.39768755 9.90643676 14.43914795 16.02191162 C15.02195634 19.18712095 14.99578515 22.25566454 15.01269531 25.47363281 C15.02014267 26.55251015 15.02014267 26.55251015 15.02774048 27.65318298 C15.04232034 30.02791306 15.04915778 32.4025763 15.0546875 34.77734375 C15.06044322 36.43398031 15.0662009 38.09061687 15.07196045 39.74725342 C15.08245914 43.22066558 15.08830893 46.69405468 15.09179688 50.16748047 C15.09727349 54.6036416 15.12128836 59.03949455 15.14976883 63.47555923 C15.16845675 66.8986498 15.17360411 70.32166712 15.17513275 73.74480438 C15.17814688 75.3793684 15.18613327 77.01393151 15.19931793 78.64844513 C15.28956238 90.69803366 14.65507921 99.0784044 6.04296875 108.27734375 C-2.51731578 116.02890265 -13.05585731 115.89436594 -24.0078125 115.43652344 C-32.17905118 114.76925532 -38.83514517 110.32181023 -44.1484375 104.26171875 C-46.88068865 100.13246913 -48.1484375 97.26255217 -48.1484375 92.26171875 C-48.8084375 92.26171875 -49.4684375 92.26171875 -50.1484375 92.26171875 C-50.1484375 68.17171875 -50.1484375 44.08171875 -50.1484375 19.26171875 C-49.4884375 19.26171875 -48.8284375 19.26171875 -48.1484375 19.26171875 C-48.055625 18.02421875 -48.055625 18.02421875 -47.9609375 16.76171875 C-46.65911686 11.15387599 -44.45468042 7.00677589 -39.8046875 3.48828125 C-28.75029193 -3.33747505 -12.02326472 -6.82595706 0 0 Z " fill="#14485C" transform="translate(1449.1484375,189.73828125)"/>
<path d="M0 0 C1.64510941 0.00015915 3.29022379 0.00585551 4.93530273 0.01586914 C6.23164894 0.01799156 6.23164894 0.01799156 7.55418396 0.02015686 C10.32578941 0.025773 13.09731528 0.0383282 15.86889648 0.05102539 C17.74324428 0.05603831 19.61759334 0.06060158 21.49194336 0.06469727 C26.09679192 0.07574767 30.70158069 0.09302309 35.30639648 0.11352539 C35.80139648 2.58852539 35.80139648 2.58852539 36.30639648 5.11352539 C36.96639648 5.11352539 37.62639648 5.11352539 38.30639648 5.11352539 C38.7955957 6.61206055 38.7955957 6.61206055 39.29467773 8.14086914 C39.73546196 9.44446505 40.17690234 10.74783922 40.61889648 12.05102539 C40.93890625 13.04005859 40.93890625 13.04005859 41.26538086 14.04907227 C41.85680742 15.77038836 42.57503475 17.44684471 43.30639648 19.11352539 C44.29639648 19.44352539 45.28639648 19.77352539 46.30639648 20.11352539 C46.55389648 18.83477539 46.80139648 17.55602539 47.05639648 16.23852539 C49.85196675 3.56795513 49.85196675 3.56795513 53.30639648 0.11352539 C55.94639648 0.11352539 58.58639648 0.11352539 61.30639648 0.11352539 C61.30639648 10.67352539 61.30639648 21.23352539 61.30639648 32.11352539 C59.32639648 32.11352539 57.34639648 32.11352539 55.30639648 32.11352539 C54.81139648 24.68852539 54.81139648 24.68852539 54.30639648 17.11352539 C53.64639648 17.11352539 52.98639648 17.11352539 52.30639648 17.11352539 C52.19682617 17.69360352 52.08725586 18.27368164 51.97436523 18.87133789 C50.99205998 23.71098816 49.75817737 27.76718655 47.30639648 32.11352539 C44.99639648 32.11352539 42.68639648 32.11352539 40.30639648 32.11352539 C39.64639648 29.14352539 38.98639648 26.17352539 38.30639648 23.11352539 C37.64639648 23.11352539 36.98639648 23.11352539 36.30639648 23.11352539 C35.64639648 21.46352539 34.98639648 19.81352539 34.30639648 18.11352539 C33.97639648 22.73352539 33.64639648 27.35352539 33.30639648 32.11352539 C30.66639648 32.11352539 28.02639648 32.11352539 25.30639648 32.11352539 C25.30639648 23.53352539 25.30639648 14.95352539 25.30639648 6.11352539 C21.67639648 6.11352539 18.04639648 6.11352539 14.30639648 6.11352539 C14.30639648 14.69352539 14.30639648 23.27352539 14.30639648 32.11352539 C11.99639648 32.11352539 9.68639648 32.11352539 7.30639648 32.11352539 C7.30639648 23.53352539 7.30639648 14.95352539 7.30639648 6.11352539 C3.67639648 6.11352539 0.04639648 6.11352539 -3.69360352 6.11352539 C-4.02360352 4.46352539 -4.35360352 2.81352539 -4.69360352 1.11352539 C-3.69360352 0.11352539 -3.69360352 0.11352539 0 0 Z " fill="#C4122D" transform="translate(1402.693603515625,658.886474609375)"/>
</svg>
