<?xml version="1.0" encoding="UTF-8"?>
<svg version="1.1" xmlns="http://www.w3.org/2000/svg" width="1589" height="701">
<path d="M0 0 C1.90462747 -0.00209281 3.80925414 -0.00506013 5.71387908 -0.00880873 C10.90440358 -0.01652887 16.09485273 -0.01197308 21.28537587 -0.00525283 C26.94877073 -0.00014786 32.61215464 -0.00671168 38.27554792 -0.01173949 C48.18717407 -0.0189426 58.09877841 -0.01875623 68.01040554 -0.01364517 C78.6364209 -0.00818068 89.26242485 -0.0069946 99.88844013 -0.01111984 C100.56162763 -0.01137819 101.23481512 -0.01163653 101.92840224 -0.01190271 C104.67055464 -0.01296935 107.41270702 -0.01406678 110.15485939 -0.01520326 C135.64816423 -0.02576143 161.1414605 -0.02650842 186.63476658 -0.02090836 C187.38895842 -0.02074276 188.14315026 -0.02057717 188.92019639 -0.02040657 C190.05331038 -0.02015778 190.05331038 -0.02015778 191.20931557 -0.01990396 C214.2482118 -0.01485223 237.2871045 -0.0135573 260.32600117 -0.01594925 C261.87039865 -0.01610421 263.41479614 -0.01625852 264.95919363 -0.01641219 C271.16589493 -0.01703315 277.37259623 -0.01767049 283.57929753 -0.01833172 C300.92815427 -0.02016548 318.27701102 -0.02130687 335.62586784 -0.02190399 C336.81077812 -0.02194493 336.81077812 -0.02194493 338.01962597 -0.02198669 C363.18009959 -0.02280491 388.34057199 -0.0205532 413.50104523 -0.01620483 C414.31677245 -0.01606434 415.13249967 -0.01592384 415.9729459 -0.01577908 C429.21879556 -0.01348934 442.46464519 -0.01105034 455.71049481 -0.00859874 C508.24354851 0.00111398 560.776592 0.00066228 613.30964565 -0.00905991 C626.5500965 -0.01150239 639.79054735 -0.01392454 653.03099823 -0.01620483 C654.25398275 -0.01641618 654.25398275 -0.01641618 655.50167403 -0.01663179 C680.63745791 -0.02094572 705.77324095 -0.02277242 730.90902519 -0.02190399 C732.09303881 -0.02186324 732.09303881 -0.02186324 733.30097189 -0.02182166 C750.63012535 -0.02119664 767.95927871 -0.01992923 785.28843208 -0.01808299 C791.48918019 -0.01742474 797.6899283 -0.01679857 803.89067642 -0.01618156 C805.43318225 -0.01602679 806.97568808 -0.01586933 808.51819392 -0.01570917 C831.55011342 -0.01332439 854.58202893 -0.01535019 877.61394793 -0.02040657 C878.36822256 -0.02057216 879.1224972 -0.02073775 879.89962864 -0.02090836 C880.65250448 -0.02107372 881.40538031 -0.02123909 882.18107057 -0.02140946 C907.6015805 -0.02693187 933.02208017 -0.02488456 958.44258863 -0.01434687 C961.17541269 -0.01324222 963.90823675 -0.0121688 966.64106083 -0.01111984 C967.31171781 -0.01085943 967.98237479 -0.01059902 968.67335471 -0.01033071 C979.91167724 -0.00615568 991.14998888 -0.00984553 1002.38831065 -0.01563922 C1012.17742919 -0.02012883 1021.96652827 -0.01732406 1031.75564393 -0.00862968 C1037.32998066 -0.00387997 1042.90426914 -0.00222913 1048.47860432 -0.00944164 C1053.55981603 -0.0159489 1058.64093712 -0.0130908 1063.72214235 -0.00308032 C1065.53903598 -0.00108281 1067.35593729 -0.00235325 1069.17282475 -0.0074922 C1085.80116543 -0.05114874 1102.32107609 1.06953064 1118.63654995 4.43918228 C1119.67440639 4.65058853 1120.71226284 4.86199478 1121.78156948 5.07980728 C1136.08653105 8.13316087 1150.11134939 12.67958516 1163.19904995 19.25168228 C1164.42636748 19.84266347 1165.65428054 20.43240878 1166.8826437 21.02121353 C1173.97902294 24.45683751 1180.91039117 28.11475768 1187.69904995 32.12668228 C1188.35228237 32.50792252 1189.00551479 32.88916275 1189.67854214 33.28195572 C1191.22230297 34.21323258 1192.71686714 35.22522809 1194.19904995 36.25168228 C1194.19904995 36.91168228 1194.19904995 37.57168228 1194.19904995 38.25168228 C1194.90029995 38.49918228 1195.60154995 38.74668228 1196.32404995 39.00168228 C1199.59419543 40.42348466 1202.34017195 42.12414516 1205.19904995 44.25168228 C1205.19904995 44.91168228 1205.19904995 45.57168228 1205.19904995 46.25168228 C1205.76237026 46.49789322 1206.32569057 46.74410416 1206.9060812 46.99777603 C1216.19462786 52.07720274 1226.15557929 62.58061569 1232.19904995 71.25168228 C1232.19904995 71.91168228 1232.19904995 72.57168228 1232.19904995 73.25168228 C1232.85904995 73.25168228 1233.51904995 73.25168228 1234.19904995 73.25168228 C1237.19904995 77.63629767 1237.19904995 77.63629767 1237.19904995 80.25168228 C1237.85904995 80.25168228 1238.51904995 80.25168228 1239.19904995 80.25168228 C1256.01437665 103.83858649 1262.56759993 133.39487387 1268.19904995 161.25168228 C1268.41190639 162.30275162 1268.62476284 163.35382095 1268.84406948 164.43674088 C1283.8553776 241.14287575 1284.3758543 351.02513555 1240.03498745 418.66183853 C1235.53607614 425.00817512 1230.85332247 430.96536131 1225.51154995 436.62668228 C1224.89779507 437.27806168 1224.28404018 437.92944107 1223.65168667 438.60055923 C1186.59163802 477.57285629 1133.23870963 499.79610808 1079.5856932 501.43532613 C1074.66796638 501.52893238 1069.75088771 501.51728399 1064.83250618 501.50336456 C1062.93849953 501.50545601 1061.04449369 501.50842233 1059.1504896 501.5121733 C1053.97546113 501.51991294 1048.80050795 501.51532714 1043.6254808 501.50861739 C1037.98408406 501.50352206 1032.34269844 501.51007249 1026.7013033 501.51510406 C1016.8236188 501.52231416 1006.94595618 501.52211645 997.06827068 501.51700974 C986.47647106 501.51154874 975.88468189 501.51035632 965.29288197 501.51448441 C964.62232079 501.51474275 963.95175961 501.5150011 963.2608784 501.51526727 C960.52949827 501.51633389 957.79811816 501.51743132 955.06673806 501.51856782 C929.6617804 501.52913112 904.25683134 501.52987066 878.85187244 501.52427292 C878.09998224 501.52410733 877.34809204 501.52394174 876.57341729 501.52377113 C875.44376274 501.52352234 875.44376274 501.52352234 874.29128689 501.52326852 C851.32898923 501.51821816 828.36669511 501.51692123 805.40439701 501.51931381 C803.86553921 501.51946877 802.32668142 501.51962308 800.78782362 501.51977675 C794.6034474 501.52039771 788.41907117 501.52103505 782.23469495 501.52169628 C764.9475082 501.52353014 747.66032145 501.52467146 730.37313461 501.52526855 C729.58596726 501.52529585 728.79879991 501.52532314 727.98777901 501.52535126 C702.9118077 501.5261696 677.83583763 501.52391717 652.75986671 501.5195694 C651.94676865 501.5194289 651.13367058 501.5192884 650.29593317 501.51914365 C637.0925587 501.51685387 623.88918426 501.51441489 610.68580983 501.5119633 C558.33043788 501.50225237 505.97507615 501.50270046 453.61970425 501.51242447 C440.42649079 501.51486696 427.23327734 501.51728911 414.04006386 501.5195694 C413.22765035 501.51971029 412.41523684 501.51985119 411.57820474 501.51999636 C386.53058456 501.52431054 361.48296523 501.52613693 336.4353447 501.52526855 C335.6487182 501.52524139 334.8620917 501.52521422 334.05162803 501.52518623 C316.78165991 501.52456119 299.51169187 501.52329376 282.24172384 501.52144755 C276.06199844 501.5207893 269.88227303 501.52016313 263.70254763 501.51954613 C262.16526338 501.51939135 260.62797912 501.51923389 259.09069487 501.51907373 C236.13806704 501.5166891 213.18544321 501.5187145 190.23281588 501.52377113 C189.48117406 501.52393672 188.72953225 501.52410231 187.95511341 501.52427292 C187.20486482 501.52443828 186.45461622 501.52460365 185.68163283 501.52477402 C160.34516176 501.53029744 135.00870099 501.52824716 109.6722314 501.51771143 C106.94796132 501.51660679 104.22369122 501.51553337 101.49942112 501.51448441 C100.83086426 501.51422399 100.1623074 501.51396358 99.47349125 501.51369527 C88.27359788 501.50952141 77.07371633 501.51320899 65.87382409 501.51900378 C56.11605475 501.52349508 46.35830494 501.52068557 36.60053849 501.51199424 C31.04487427 501.50724681 25.48925845 501.50558891 19.9335958 501.51280621 C14.8681194 501.51931938 9.80273383 501.51644704 4.73726391 501.50644489 C2.92718089 501.50444941 1.11709016 501.50571225 -0.69298665 501.51085676 C-17.45345925 501.5550687 -34.32682903 500.68357766 -50.73845005 497.06418228 C-51.72224644 496.85277603 -52.70604282 496.64136978 -53.71965122 496.42355728 C-68.14238661 493.19931304 -82.59928027 488.9774238 -95.80095005 482.25168228 C-97.03843404 481.64848142 -98.27678871 481.047065 -99.5157938 480.44699478 C-109.53147785 475.56050011 -119.51779251 470.44045397 -128.80095005 464.25168228 C-128.80095005 463.59168228 -128.80095005 462.93168228 -128.80095005 462.25168228 C-129.51380161 462.01062759 -130.22665318 461.76957291 -130.9611063 461.52121353 C-134.21816176 460.06517085 -136.51442754 458.23818 -139.23845005 455.93918228 C-140.1923563 455.13738541 -141.14626255 454.33558853 -142.12907505 453.50949478 C-143.0107938 452.76441666 -143.89251255 452.01933853 -144.80095005 451.25168228 C-146.02945801 450.27168929 -147.25846135 449.29231615 -148.48845005 448.31418228 C-149.25157505 447.63355728 -150.01470005 446.95293228 -150.80095005 446.25168228 C-150.80095005 445.59168228 -150.80095005 444.93168228 -150.80095005 444.25168228 C-151.44032505 443.98355728 -152.07970005 443.71543228 -152.73845005 443.43918228 C-154.80095005 442.25168228 -154.80095005 442.25168228 -155.80095005 439.25168228 C-157.80111471 438.04286132 -157.80111471 438.04286132 -159.80095005 437.25168228 C-159.80095005 436.59168228 -159.80095005 435.93168228 -159.80095005 435.25168228 C-160.46095005 435.25168228 -161.12095005 435.25168228 -161.80095005 435.25168228 C-163.52751255 433.35324478 -163.52751255 433.35324478 -165.42595005 430.87668228 C-166.05759068 430.06457291 -166.6892313 429.25246353 -167.34001255 428.41574478 C-168.80095005 426.25168228 -168.80095005 426.25168228 -168.80095005 424.25168228 C-169.46095005 424.25168228 -170.12095005 424.25168228 -170.80095005 424.25168228 C-172.3517313 422.19699478 -172.3517313 422.19699478 -174.11345005 419.37668228 C-174.97389927 418.01929947 -174.97389927 418.01929947 -175.8517313 416.63449478 C-192.67163312 387.44404393 -200.16572004 355.079579 -204.98845005 322.06418228 C-205.14329868 321.01037369 -205.29814732 319.95656509 -205.45768833 318.87082291 C-205.94968533 315.33529717 -206.38407745 311.79687518 -206.80095005 308.25168228 C-206.88955296 307.53227463 -206.97815586 306.81286697 -207.0694437 306.07165909 C-209.08631599 289.24760112 -209.11127553 272.43657268 -209.06169224 255.52096939 C-209.05030843 251.6039225 -209.05707059 247.68714771 -209.06856918 243.77011013 C-209.1116177 226.50975563 -208.82016846 209.4182519 -206.80095005 192.25168228 C-206.68399784 191.22486847 -206.68399784 191.22486847 -206.56468296 190.17731094 C-206.10644235 186.21216417 -205.5716572 182.26272188 -204.98845005 178.31418228 C-204.81595737 177.14363297 -204.6434647 175.97308365 -204.46574497 174.76706314 C-201.89742234 157.83995061 -198.36923512 141.4430441 -193.36345005 125.06418228 C-193.00420444 123.88283707 -192.64495884 122.70149185 -192.274827 121.4843483 C-189.7238707 113.41627356 -186.49907487 105.85641419 -182.80095005 98.25168228 C-182.36484409 97.33290298 -181.92873814 96.41412369 -181.47941685 95.46750259 C-176.89629013 85.85406593 -171.10776897 76.05976054 -163.80095005 68.25168228 C-163.14095005 68.25168228 -162.48095005 68.25168228 -161.80095005 68.25168228 C-161.14095005 66.93168228 -160.48095005 65.61168228 -159.80095005 64.25168228 C-159.14095005 64.25168228 -158.48095005 64.25168228 -157.80095005 64.25168228 C-157.4142313 63.37769791 -157.4142313 63.37769791 -157.01970005 62.48605728 C-155.70260988 60.07139198 -154.25006621 58.43428051 -152.30095005 56.50168228 C-151.3882938 55.58129166 -151.3882938 55.58129166 -150.45720005 54.64230728 C-148.80095005 53.25168228 -148.80095005 53.25168228 -146.80095005 53.25168228 C-146.47095005 52.26168228 -146.14095005 51.27168228 -145.80095005 50.25168228 C-143.75193491 48.46602926 -141.71776356 46.81784846 -139.55095005 45.18918228 C-138.97731724 44.74252213 -138.40368443 44.29586197 -137.8126688 43.83566666 C-134.60361705 41.3905008 -131.67321659 39.54001156 -127.80095005 38.25168228 C-127.80095005 37.59168228 -127.80095005 36.93168228 -127.80095005 36.25168228 C-125.66203214 34.77042016 -123.54355608 33.43530691 -121.30095005 32.12668228 C-120.62749546 31.7292482 -119.95404087 31.33181412 -119.26017857 30.92233658 C-98.5251473 18.85147493 -76.46921674 9.56202865 -52.98845005 4.50168228 C-52.09013462 4.30308609 -51.19181919 4.1044899 -50.26628208 3.89987564 C-33.72146015 0.52824366 -16.83027344 -0.04767078 0 0 Z " fill="#0094A1" transform="translate(262.800950050354,148.74831771850586)"/>
<path d="M0 0 C2.33261939 -0.00043641 4.66523873 -0.00131259 6.99785781 -0.00258917 C13.38983794 -0.00482048 19.78180126 -0.0008315 26.17377925 0.0041889 C32.36429735 0.00856168 38.55481563 0.00722781 44.7453348 0.00650705 C57.40267673 0.00519555 70.06001342 0.00852545 82.71735382 0.01452446 C95.24499792 0.02044675 107.77263985 0.02429147 120.30028534 0.02537727 C121.0799737 0.02544601 121.85966206 0.02551475 122.66297734 0.02558558 C126.62281512 0.02592392 130.58265291 0.0262253 134.54249069 0.02651245 C162.57103287 0.02861141 190.59957221 0.03534471 218.62811279 0.04481506 C245.85304754 0.05400326 273.0779815 0.06106812 300.30291748 0.06532288 C302.01568337 0.06559352 303.72844927 0.06586422 305.44121516 0.06613499 C319.35873794 0.06832384 333.27626075 0.07036639 347.19378357 0.07237347 C411.52362127 0.08175608 475.85345154 0.10182777 540.18328857 0.12025452 C540.18328857 136.08025452 540.18328857 272.04025452 540.18328857 412.12025452 C398.10430533 412.32214773 398.10430533 412.32214773 343.56449032 412.36107934 C329.30423935 412.37128438 315.04398858 412.38172345 300.78373832 412.39288449 C299.0590608 412.39423371 297.33438327 412.39557557 295.60970575 412.39690996 C268.16285685 412.41820678 240.71605979 412.4556975 213.26924216 412.50174062 C185.03727523 412.54901433 156.80533691 412.57970733 128.57333107 412.58982947 C124.5767524 412.59127003 120.58017383 412.59289821 116.58359528 412.59464073 C115.40383338 412.5951464 115.40383338 412.5951464 114.20023791 412.59566229 C101.58975009 412.60154828 88.97935128 412.62467706 76.36889962 412.65441469 C63.66076373 412.68400885 50.95271522 412.69505523 38.24454615 412.6877614 C31.37126696 412.68431629 24.49826189 412.68928953 17.6250267 412.71628189 C-38.62350629 412.92595924 -93.4078677 405.88381172 -136.00421143 365.37025452 C-150.61955674 350.17987922 -160.45839761 331.70263282 -167.81671143 312.12025452 C-168.47606689 310.40902405 -168.47606689 310.40902405 -169.14874268 308.66322327 C-179.31729992 280.41723092 -182.26814351 249.95129298 -182.81671143 220.12025452 C-182.83002502 219.47163452 -182.84333862 218.82301453 -182.85705566 218.15473938 C-184.06126611 158.51756784 -178.79215594 93.29674662 -136.190979 47.45228577 C-112.80948138 23.28319235 -79.09888679 10.03627006 -46.71417236 3.50648499 C-45.10137467 3.17819806 -43.49354977 2.82563052 -41.88702393 2.46791077 C-28.11705087 -0.54564564 -14.01195617 -0.01949083 0 0 Z " fill="#FEFEFE" transform="translate(285.81671142578125,192.87974548339844)"/>
<path d="M0 0 C21.75701954 20.34166123 25.50458722 50.55346702 27.33203125 78.7265625 C27.33203125 88.2965625 27.33203125 97.8665625 27.33203125 107.7265625 C-29.09796875 107.7265625 -85.52796875 107.7265625 -143.66796875 107.7265625 C-143.60351088 132.61786696 -143.60351088 132.61786696 -133.48046875 154.4140625 C-118.99209317 166.32672686 -99.38150425 164.88801496 -81.578125 163.44921875 C-73.50672313 162.44149319 -65.44981689 160.08625191 -59.73046875 153.9765625 C-56.26899349 148.52211663 -54.92721844 143.02281095 -53.66796875 136.7265625 C-27.26796875 136.7265625 -0.86796875 136.7265625 26.33203125 136.7265625 C26.33203125 158.09932012 22.79574553 174.82744346 8.30078125 190.81640625 C-6.72900564 205.39887806 -28.66681435 209.74410399 -48.66796875 212.7265625 C-49.88508545 212.90888428 -51.10220215 213.09120605 -52.35620117 213.27905273 C-66.00804458 215.04285899 -79.65707298 215.10147254 -93.40429688 215.09716797 C-96.14577921 215.09700645 -98.88658585 215.11075948 -101.62792969 215.13818359 C-125.96853427 215.37768744 -150.67365701 214.50817392 -173.66796875 205.7265625 C-174.71339844 205.35917969 -175.75882812 204.99179687 -176.8359375 204.61328125 C-193.77896117 198.23498903 -206.24849111 186.62600525 -214.66796875 170.7265625 C-216.57298356 166.4624879 -218.18814921 162.15472479 -219.66796875 157.7265625 C-220.11269531 156.39625 -220.11269531 156.39625 -220.56640625 155.0390625 C-226.32769705 136.7854679 -227.01048673 117.68073918 -226.92871094 98.68359375 C-226.91797745 95.72895808 -226.9286877 92.77493011 -226.94140625 89.8203125 C-226.95335811 74.39727712 -226.21451124 58.95588787 -222.85546875 43.8515625 C-222.68587646 43.07184082 -222.51628418 42.29211914 -222.34155273 41.48876953 C-218.13199439 23.02752811 -209.27719491 5.95815425 -193.32421875 -4.86328125 C-190.81365153 -6.42444093 -188.26826 -7.8672377 -185.66796875 -9.2734375 C-184.91773438 -9.69367188 -184.1675 -10.11390625 -183.39453125 -10.546875 C-137.77945562 -33.72346683 -39.92732097 -34.022988 0 0 Z " fill="#0194A1" transform="translate(439.66796875,304.2734375)"/>
<path d="M0 0 C1.83156647 -0.0049926 1.83156647 -0.0049926 3.70013428 -0.01008606 C6.27860134 -0.01512847 8.85707488 -0.01749522 11.43554688 -0.01733398 C15.30610472 -0.01950142 19.17636817 -0.03763367 23.046875 -0.05664062 C41.78818297 -0.10031124 60.68638432 0.16655937 79.046875 4.35546875 C80.4702417 4.67366577 80.4702417 4.67366577 81.92236328 4.99829102 C93.74202147 7.81235213 104.39107775 12.8146559 114.109375 20.16796875 C114.70878906 20.60367187 115.30820313 21.039375 115.92578125 21.48828125 C131.75848225 33.88525071 137.97597875 54.66517281 141.421875 73.60546875 C143.51643102 91.68071142 143.109375 109.97177238 143.109375 128.16796875 C86.679375 128.16796875 30.249375 128.16796875 -27.890625 128.16796875 C-26.77944269 152.1582153 -26.77944269 152.1582153 -18.890625 174.16796875 C-18.45943359 175.20050781 -18.45943359 175.20050781 -18.01953125 176.25390625 C-16.58966498 178.67824699 -15.48044109 179.11486727 -12.890625 180.16796875 C-11.97667969 180.58175781 -11.06273437 180.99554688 -10.12109375 181.421875 C-9.11691406 181.85371094 -8.11273437 182.28554688 -7.078125 182.73046875 C-6.08167969 183.16488281 -5.08523438 183.59929687 -4.05859375 184.046875 C10.72674323 189.27917058 33.30638726 188.20448825 48.109375 183.16796875 C48.89828125 182.91273438 49.6871875 182.6575 50.5 182.39453125 C55.35563638 180.43429286 57.95784002 177.3270462 60.8828125 173.0703125 C62.73470935 168.68827632 63.25836594 163.84851857 64.109375 159.16796875 C90.509375 159.16796875 116.909375 159.16796875 144.109375 159.16796875 C142.69620905 180.36545807 138.73690179 197.99096526 123.109375 213.16796875 C122.56925781 213.72871094 122.02914063 214.28945313 121.47265625 214.8671875 C112.11494624 223.84776058 98.37474294 227.92998584 86.109375 231.16796875 C84.98789063 231.46574219 83.86640625 231.76351562 82.7109375 232.0703125 C62.56965573 236.70234641 41.47335753 236.37133885 20.92608643 236.46450806 C18.6280066 236.47497516 16.32994154 236.48977774 14.03192139 236.5093689 C-19.23983376 236.75444844 -58.42024158 234.29987761 -83.890625 210.16796875 C-106.21810721 187.28130094 -108.43933681 152.03513106 -108.28173828 121.94189453 C-108.26567649 118.30462983 -108.2816663 114.66848097 -108.30078125 111.03125 C-108.32418519 83.68398041 -106.42291099 54.06159087 -89.890625 31.16796875 C-89.12492188 30.10642578 -89.12492188 30.10642578 -88.34375 29.0234375 C-72.41098864 9.02861074 -44.66977409 3.92364214 -20.77114868 0.89979553 C-13.84174963 0.11772007 -6.96846953 0.00675464 0 0 Z " fill="#FDFEFE" transform="translate(1000.890625,280.83203125)"/>
<path d="M0 0 C1.96236969 -0.00450487 3.92473039 -0.01249263 5.88708878 -0.02053452 C47.44717959 -0.15196265 47.44717959 -0.15196265 66.17990494 4.55792618 C67.53378311 4.88385757 67.53378311 4.88385757 68.91501236 5.21637344 C79.74864006 7.91287689 89.6105235 11.37052907 98.55490494 18.24542618 C99.19170181 18.73011368 99.82849869 19.21480118 100.48459244 19.71417618 C108.23560164 25.96820935 111.50792462 32.86550636 114.55490494 42.24542618 C114.88490494 43.23542618 115.21490494 44.22542618 115.55490494 45.24542618 C115.55490494 52.17542618 115.55490494 59.10542618 115.55490494 66.24542618 C90.14490494 66.24542618 64.73490494 66.24542618 38.55490494 66.24542618 C36.90490494 62.94542618 35.25490494 59.64542618 33.55490494 56.24542618 C26.35275 48.72317546 17.56737854 47.50087936 7.5390358 47.1355629 C-17.04334559 45.98016441 -17.04334559 45.98016441 -40.44509506 52.24542618 C-44.34728407 56.14761518 -44.60158338 60.16141672 -44.63259506 65.49542618 C-44.66720698 74.23560035 -44.66720698 74.23560035 -40.32009506 81.49542618 C-22.50518369 92.33928528 2.28574263 89.78342784 22.344944 90.1614418 C92.57805238 91.51712691 92.57805238 91.51712691 114.55490494 112.12042618 C125.88159842 124.22827093 129.27126399 140.42964175 129.07638931 156.52179337 C129.05497942 158.61315062 129.07630075 160.70104816 129.10177994 162.79230118 C129.14122781 181.3138208 124.05195151 198.3380823 110.99631119 211.96808243 C96.77135806 225.23711871 79.48669487 231.34377557 60.6533699 234.85330582 C59.29453061 235.1072193 57.93696867 235.36810867 56.58107376 235.6373024 C36.64179611 239.46710404 16.2591829 238.66206498 -3.94771957 238.56799698 C-7.86983711 238.55453853 -11.79183929 238.55974637 -15.71396923 238.56512547 C-19.5396503 238.56849163 -23.36526325 238.56178773 -27.19093132 238.55199623 C-28.99552744 238.54819788 -30.8001312 238.54697321 -32.60473061 238.54858208 C-43.4035456 238.55019448 -53.77702329 237.98987648 -64.44509506 236.24542618 C-65.60604439 236.06620621 -65.60604439 236.06620621 -66.79044724 235.88336563 C-83.58469524 233.1727234 -101.11567106 226.86860927 -112.09743881 213.18683243 C-122.07452266 198.94473564 -125.44509506 183.39929638 -125.44509506 166.24542618 C-98.38509506 166.24542618 -71.32509506 166.24542618 -43.44509506 166.24542618 C-42.45509506 170.70042618 -42.45509506 170.70042618 -41.44509506 175.24542618 C-38.89284704 180.94992439 -35.2524626 185.65064204 -29.37478256 188.11261368 C-21.99039864 190.74095372 -14.72490246 191.4018635 -6.94118881 191.41339493 C-6.14084717 191.41672333 -5.34050552 191.42005173 -4.5159111 191.42348099 C-2.82751662 191.42852011 -1.13911229 191.43089025 0.5492897 191.43072891 C3.08584162 191.43289917 5.6219463 191.45104221 8.15842056 191.47003555 C25.99359633 191.8519191 25.99359633 191.8519191 42.55490494 186.24542618 C47.94080903 179.69500228 48.23251632 172.42604355 47.55490494 164.24542618 C46.35508154 158.27465147 44.48681955 154.0564511 39.55490494 150.24542618 C32.41747018 146.6767088 26.25668843 146.10027172 18.44552994 146.03448868 C16.5771932 146.00883393 14.70886658 145.98243365 12.84054947 145.95538712 C11.85717606 145.94213394 10.87380264 145.92888077 9.86063004 145.91522598 C-87.00489287 144.49508629 -87.00489287 144.49508629 -111.85525131 121.92511368 C-122.99040083 110.1607051 -125.84095096 94.1946843 -125.69509506 78.55792618 C-125.68832748 77.50572891 -125.68155991 76.45353165 -125.67458725 75.36944962 C-125.41182878 55.45480178 -121.87580417 36.91227806 -107.75759506 21.93292618 C-80.39023086 -3.78580163 -34.74222956 0.06603569 0 0 Z " fill="#0194A1" transform="translate(646.4450950622559,280.7545738220215)"/>
<path d="M0 0 C66.99 0 133.98 0 203 0 C203 17.82 203 35.64 203 54 C183.2 54 163.4 54 143 54 C143 114.06 143 174.12 143 236 C115.61 236 88.22 236 60 236 C60 175.94 60 115.88 60 54 C40.2 54 20.4 54 0 54 C0 36.18 0 18.36 0 0 Z " fill="#FDFEFE" transform="translate(1195,281)"/>
<path d="M0 0 C1.63304077 0.01123901 1.63304077 0.01123901 3.29907227 0.02270508 C30.91383498 0.38986266 30.91383498 0.38986266 39.5234375 9.109375 C47.8227546 19.55436921 47.6875 29.08000545 47.6875 42.25 C17.9875 42.25 -11.7125 42.25 -42.3125 42.25 C-42.3125 18.3203125 -42.3125 18.3203125 -36.125 9.8125 C-25.82804655 0.4308313 -13.39122231 -0.12224179 0 0 Z " fill="#0294A1" transform="translate(1016.3125,329.75)"/>
<path d="M0 0 C2.34576839 0.0031624 4.69027519 -0.0203693 7.03588867 -0.0456543 C18.34048825 -0.0937695 28.87904251 0.82786434 37.91674805 8.31567383 C46.47286236 17.80795333 45.91674805 27.59539528 45.91674805 40.31567383 C16.87674805 40.31567383 -12.16325195 40.31567383 -42.08325195 40.31567383 C-42.08325195 16.4496024 -42.08325195 16.4496024 -33.7746582 7.74536133 C-24.25402113 -0.30210558 -11.79229745 -0.03323161 0 0 Z " fill="#FDFEFE" transform="translate(338.083251953125,331.684326171875)"/>
<path d="M0 0 C7.86043799 3.68083962 13.85897631 8.78109547 17.390625 16.81640625 C19.79343156 24.42778108 19.05396176 31.887308 15.453125 38.94140625 C15.15921875 39.53695312 14.8653125 40.1325 14.5625 40.74609375 C10.74938893 47.14870563 3.39304204 51.2657089 -3.5390625 53.6171875 C-13.79041876 55.27256215 -23.43222661 54.10237282 -32.08984375 48.2109375 C-38.73635931 42.77879346 -42.04567395 36.92846496 -43.484375 28.50390625 C-43.99634092 20.53384219 -41.51338774 14.62815481 -36.421875 8.56640625 C-32.24259505 4.2092846 -28.22087657 1.84873447 -22.546875 -0.05859375 C-16.48842215 -3.08782017 -6.30958202 -1.88314618 0 0 Z M-31.19921875 16.13671875 C-34.72043281 20.85208366 -34.03410594 26.28370968 -33.546875 31.94140625 C-31.95284487 38.11110559 -27.02992138 41.12823752 -21.984375 44.55859375 C-17.0843434 47.33841937 -12.07612819 47.47378367 -6.546875 46.94140625 C-2.44637432 45.78013164 1.30646278 43.83633549 4.453125 40.94140625 C4.453125 40.28140625 4.453125 39.62140625 4.453125 38.94140625 C0.823125 38.94140625 -2.806875 38.94140625 -6.546875 38.94140625 C-6.876875 37.95140625 -7.206875 36.96140625 -7.546875 35.94140625 C-8.206875 35.94140625 -8.866875 35.94140625 -9.546875 35.94140625 C-10.206875 34.62140625 -10.866875 33.30140625 -11.546875 31.94140625 C-12.206875 31.94140625 -12.866875 31.94140625 -13.546875 31.94140625 C-13.546875 31.28140625 -13.546875 30.62140625 -13.546875 29.94140625 C-14.206875 29.94140625 -14.866875 29.94140625 -15.546875 29.94140625 C-15.546875 32.91140625 -15.546875 35.88140625 -15.546875 38.94140625 C-18.516875 38.94140625 -21.486875 38.94140625 -24.546875 38.94140625 C-24.546875 30.03140625 -24.546875 21.12140625 -24.546875 11.94140625 C-21.35 12.04453125 -18.153125 12.14765625 -14.859375 12.25390625 C-13.86075439 12.27880127 -12.86213379 12.30369629 -11.83325195 12.3293457 C-3.25475704 12.68458615 -3.25475704 12.68458615 0.453125 15.94140625 C1.10442884 19.39331662 1.24647873 21.6884545 -0.6796875 24.73046875 C-1.89630002 26.19735584 -3.21604053 27.57730092 -4.546875 28.94140625 C-3.886875 28.94140625 -3.226875 28.94140625 -2.546875 28.94140625 C-2.546875 29.60140625 -2.546875 30.26140625 -2.546875 30.94140625 C-1.886875 30.94140625 -1.226875 30.94140625 -0.546875 30.94140625 C-0.546875 31.60140625 -0.546875 32.26140625 -0.546875 32.94140625 C0.113125 32.94140625 0.773125 32.94140625 1.453125 32.94140625 C1.72125 33.56015625 1.989375 34.17890625 2.265625 34.81640625 C3.40869348 37.24092955 3.40869348 37.24092955 6.453125 38.94140625 C10.61622444 33.08704767 11.63437787 28.0802823 10.453125 20.94140625 C7.94595969 14.63615221 3.24862698 9.75304081 -2.87109375 6.83203125 C-14.7020635 2.89413183 -23.70618935 7.09046458 -31.19921875 16.13671875 Z M-15.546875 16.94140625 C-15.546875 18.92140625 -15.546875 20.90140625 -15.546875 22.94140625 C-12.081875 22.44640625 -12.081875 22.44640625 -8.546875 21.94140625 C-8.876875 20.29140625 -9.206875 18.64140625 -9.546875 16.94140625 C-11.526875 16.94140625 -13.506875 16.94140625 -15.546875 16.94140625 Z " fill="#0093A0" transform="translate(1488.546875,123.05859375)"/>
</svg>
